<?xml version="1.0" encoding="utf-8"?>
<!-- Generator: Adobe Illustrator 27.5.0, SVG Export Plug-In . SVG Version: 6.00 Build 0)  -->
<svg version="1.1" xmlns="http://www.w3.org/2000/svg" xmlns:xlink="http://www.w3.org/1999/xlink" x="0px" y="0px"
	 viewBox="0 0 500 500" style="enable-background:new 0 0 500 500;" xml:space="preserve">
<g id="Background_Simple">
	<g>
		<path style="opacity:0.7;fill:#FFFFFF;" d="M67.931,167.086c0,0-27.877,71.988,11.297,144.503
			c39.174,72.516,119.879,110.802,184.469,143.548c64.59,32.746,131.661,16.799,163.534-36.838
			c31.873-53.637-11.845-91.928-11.897-168.418c-0.051-76.49,11.447-96.742-29.963-161.364
			c-41.41-64.623-143.059-78.925-219.9-30.996C88.631,105.45,67.931,167.086,67.931,167.086z"/>
	</g>
	<g>
		<path style="fill:#92E3A9;" d="M193.95,24.406c-33.911,5.596-66.418,17.911-94.037,39.201
			C59.734,94.578,37.446,140.88,35.121,191.234c-1.535,33.237,6.402,65.646,15.989,97.206
			c12.333,40.601,20.29,86.849,46.045,121.552c40.092,54.023,117.588,76.782,182.395,67.115c41.87-6.246,86.11-30.026,98.989-73.003
			c4.768-15.912,7.092-33.009,15.243-47.714c9.767-17.62,27.483-27.911,40.931-42.256c16.615-17.723,23.308-39.801,27.447-63.157
			c9.058-51.114-3.312-105.272-33.178-147.672C397.813,59.056,351.57,35.322,299.07,25.98c-5.762-1.025-11.553-1.89-17.36-2.618
			C252.878,19.748,222.902,19.628,193.95,24.406z"/>
		<path style="opacity:0.7;fill:#FFFFFF;" d="M193.95,24.406c-33.911,5.596-66.418,17.911-94.037,39.201
			C59.734,94.578,37.446,140.88,35.121,191.234c-1.535,33.237,6.402,65.646,15.989,97.206
			c12.333,40.601,20.29,86.849,46.045,121.552c40.092,54.023,117.588,76.782,182.395,67.115c41.87-6.246,86.11-30.026,98.989-73.003
			c4.768-15.912,7.092-33.009,15.243-47.714c9.767-17.62,27.483-27.911,40.931-42.256c16.615-17.723,23.308-39.801,27.447-63.157
			c9.058-51.114-3.312-105.272-33.178-147.672C397.813,59.056,351.57,35.322,299.07,25.98c-5.762-1.025-11.553-1.89-17.36-2.618
			C252.878,19.748,222.902,19.628,193.95,24.406z"/>
	</g>
</g>
<g id="Note">
	<g>
		<path style="opacity:0.2;fill-opacity:0.7;" d="M201.282,382.659l83.679-15.612c0,0,18.938,59.762,22.763,67.489l-2.02,4.693
			l1.261,7.851L223.82,466l-6.667-5.257L201.282,382.659z"/>
		<g>
			<g>
				<defs>
					
						<rect id="XMLID_18_" x="206.454" y="369.111" transform="matrix(0.9731 -0.2304 0.2304 0.9731 -87.9474 68.194)" width="83.17" height="83.17"/>
				</defs>
				<use xlink:href="#XMLID_18_"  style="overflow:visible;fill:#92E3A9;"/>
				<clipPath id="XMLID_00000017489980324569976050000006513873976989649312_">
					<use xlink:href="#XMLID_18_"  style="overflow:visible;"/>
				</clipPath>
				<path style="opacity:0.2;clip-path:url(#XMLID_00000017489980324569976050000006513873976989649312_);fill-opacity:0.7;" d="
					M284.093,382.475l13.427,56.712l-77.176,18.272c-9.302-23.273-16.414-52.573-16.414-52.573L284.093,382.475z"/>
				
					<use xlink:href="#XMLID_18_"  style="overflow:visible;fill:none;stroke:#263238;stroke-linecap:round;stroke-linejoin:round;stroke-miterlimit:10;"/>
			</g>
			<g>
				<defs>
					<path id="XMLID_17_" d="M300.606,436.422c-20.221,4.788-48.874,9.29-66.154,11.829c-9.04,1.318-14.98,2.098-14.98,2.098
						c-7.661-14.043-21.479-70.539-21.479-70.539l80.933-19.161c0.154,0.693,0.296,1.379,0.447,2.062
						C289.027,406.443,300.606,436.422,300.606,436.422z"/>
				</defs>
				<use xlink:href="#XMLID_17_"  style="overflow:visible;fill:#FFFFFF;"/>
				<clipPath id="XMLID_00000075132171743085932150000008299875158193601677_">
					<use xlink:href="#XMLID_17_"  style="overflow:visible;"/>
				</clipPath>
				<path style="opacity:0.4;clip-path:url(#XMLID_00000075132171743085932150000008299875158193601677_);fill:#92E3A9;" d="
					M300.606,436.422c-20.221,4.788-48.874,9.29-66.154,11.829c-12.978-8.632-16.109-17.094-15.952-25.157
					c0.176-9.588,41.91-0.221,50.632-9.711c6.222-6.769,6.042-35.507,10.241-50.673
					C289.027,406.443,300.606,436.422,300.606,436.422z"/>
				
					<use xlink:href="#XMLID_17_"  style="overflow:visible;fill:none;stroke:#263238;stroke-linecap:round;stroke-linejoin:round;stroke-miterlimit:10;"/>
			</g>
			<path style="fill:none;stroke:#263238;stroke-linecap:round;stroke-linejoin:round;stroke-miterlimit:10;" d="M211.646,392.047
				c1.099-1.272,2.422-2.349,3.891-3.165c0.401,1.026,0.802,2.052,1.203,3.078c1.398-0.508,2.796-1.016,4.194-1.524
				c1.399-0.508,2.953-1.162,3.488-2.551c0.77,1.829,3.424,1.52,5.314,0.912c13.082-4.209,26.461-7.496,40.004-9.827"/>
			<path style="fill:none;stroke:#263238;stroke-linecap:round;stroke-linejoin:round;stroke-miterlimit:10;" d="M213.682,403.245
				c-0.875-0.45-0.153-2.014,0.828-1.938c0.981,0.076,1.608,1.139,1.686,2.12c0.852-0.092,1.604-0.784,1.768-1.625
				c0.462,0.322,0.924,0.645,1.386,0.967c-0.48-0.686-0.245-1.761,0.478-2.184c0.723-0.423,1.775-0.102,2.138,0.653
				c-0.1-1.135,0.343-2.782,1.45-2.514c0.364,0.088,0.632,0.387,0.936,0.607c1.316,0.951,3.503,0.042,3.758-1.561
				c1.09,1.243,3.038,1.07,4.668,0.792c4.855-0.827,9.709-1.654,14.564-2.481c0.133-0.917,0.596-2.102,1.514-1.977
				c0.534,0.073,0.879,0.591,1.345,0.862c0.659,0.384,1.487,0.241,2.233,0.08c6.555-1.417,12.997-3.355,19.245-5.788"/>
			<path style="fill:none;stroke:#263238;stroke-linecap:round;stroke-linejoin:round;stroke-miterlimit:10;" d="M218.696,416.021
				c1.94,0.17,3.917-0.102,5.739-0.791c-0.689-1.342-0.268-3.154,0.943-4.055c0.587,0.376,1.175,0.753,1.762,1.129
				c7.075-0.161,14.132-1.133,20.987-2.891c3.078-0.789,6.113-1.736,9.146-2.681c5.754-1.794,11.507-3.588,17.261-5.382"/>
		</g>
	</g>
</g>
<g id="Glasses">
	<g>
		<path style="opacity:0.2;fill-opacity:0.7;" d="M352.439,61.51l-1.608,0.1c-1.629,0.101-2.965-0.783-3.375-2.28
			c-2.45-8.95-11.431-13.977-21.844-13.332c-9.387,0.582-19.268,6.5-24.996,14.68c-1.548,2.211-3.92,3.727-6.322,3.876l-7.99,0.495
			c-2.402,0.149-4.337-1.1-5.211-3.161c-3.235-7.624-11.425-12.422-20.811-11.84c-10.414,0.646-21.173,6.896-26.524,16.33
			c-0.895,1.577-2.54,2.646-4.168,2.747l-1.608,0.1c-0.731,0.045-1.421,0.693-1.539,1.446l-0.635,4.023
			c-0.098,0.62,0.223,1.137,0.78,1.258l1.947,0.583c1.527,0.457,2.49,1.841,2.398,3.574c-0.686,12.81,8.354,22.224,21.226,21.426
			c12.416-0.77,24.222-10.782,28.078-23.138c0.625-2.001,2.394-3.664,4.368-4.159c2.333-0.585,5.329-1.011,8.432-0.593
			c1.88,0.253,3.198,1.723,3.193,3.71c-0.03,12.143,8.826,20.901,21.259,20.131c12.871-0.798,25.09-11.529,28.474-24.507
			c0.458-1.756,1.881-3.287,3.584-3.945l2.171-0.838c0.607-0.193,1.098-0.76,1.196-1.38l0.635-4.023
			C353.667,62.039,353.171,61.465,352.439,61.51z M252.694,98.137c-11.963,0.742-20.113-8.679-18.169-21.001
			c1.944-12.321,13.258-22.948,25.221-23.69c11.963-0.742,20.113,8.679,18.169,21C275.97,86.768,264.657,97.396,252.694,98.137z
			 M281.48,71.853c0.048-0.701,0.066-1.392,0.056-2.072c-0.008-0.561,0.51-1.103,1.069-1.138l14.319-0.888
			c0.559-0.035,0.914,0.454,0.727,1.027c-0.224,0.686-0.424,1.379-0.597,2.079C290.892,69.049,284.741,70.657,281.48,71.853z
			 M318.025,94.087c-11.963,0.742-20.113-8.679-18.169-21.001c1.944-12.321,13.258-22.948,25.221-23.69
			c11.963-0.742,20.113,8.679,18.169,21C341.301,82.719,329.987,93.346,318.025,94.087z"/>
		<path style="fill:#263238;" d="M342.167,64.023l-91.756,12.155c-4.382,0.58-8.313,2.991-10.818,6.633l-13.434,19.535
			c-0.533,0.774-0.201,1.843,0.677,2.18l0,0c1.852,0.71,3.949,0.059,5.074-1.575l12.417-18.041c1.496-2.174,3.835-3.622,6.449-3.993
			l91.729-12.996L342.167,64.023z"/>
		<path style="fill:#263238;" d="M218.379,71.719l92.545-1.531c4.42-0.073,8.664,1.73,11.679,4.963l16.172,17.336
			c0.641,0.687,0.471,1.793-0.348,2.256l0,0c-1.727,0.976-3.897,0.642-5.251-0.808l-14.945-16.009
			c-1.801-1.929-4.328-3.016-6.968-2.996l-92.643,0.696L218.379,71.719z"/>
		<g>
			<path style="fill:#92E3A9;stroke:#263238;stroke-linecap:round;stroke-linejoin:round;stroke-miterlimit:10;" d="M274.471,77.607
				c1.139,0.216,1.085,7.972-1.488,10.634c-2.573,2.662-5.228-3.772-4.551-6.067C269.109,79.878,270.901,76.93,274.471,77.607z"/>
			<path style="fill:#92E3A9;stroke:#263238;stroke-linecap:round;stroke-linejoin:round;stroke-miterlimit:10;" d="M290.549,76.61
				c-1.104,0.355-0.092,8.045,2.789,10.369c2.882,2.323,4.722-4.389,3.767-6.583C296.15,78.202,294.008,75.497,290.549,76.61z"/>
		</g>
		<path style="opacity:0.5;fill:#92E3A9;" d="M233.22,59.385c4.841-4.14,15.086-11.193,26.308-4.486s15.097,13.981,12.79,23.871
			c-2.307,9.89-9.368,23.072-26.007,20.769C229.673,97.236,218.187,72.242,233.22,59.385z"/>
		<path style="opacity:0.5;fill:#92E3A9;" d="M298.646,56.186c4.841-4.14,15.086-11.192,26.307-4.486s15.097,13.981,12.79,23.871
			c-2.307,9.89-9.368,23.072-26.007,20.769C295.099,94.037,283.613,69.043,298.646,56.186z"/>
		<path style="fill:#757575;stroke:#263238;stroke-linecap:round;stroke-linejoin:round;stroke-miterlimit:10;" d="M344.078,62.598
			l-1.608,0.1c-1.629,0.101-3.178-0.755-3.923-2.207c-4.454-8.683-14.663-13.545-25.077-12.9c-9.387,0.582-18.1,6.344-22.106,14.294
			c-1.083,2.149-3.153,3.624-5.555,3.773l-7.99,0.495c-2.402,0.149-4.638-1.06-5.978-3.058
			c-4.957-7.394-14.315-12.036-23.702-11.454c-10.414,0.645-19.944,6.732-23.292,15.898c-0.56,1.533-1.992,2.573-3.62,2.674
			l-1.608,0.1c-0.731,0.045-1.288,0.675-1.242,1.406l0.242,3.906c0.037,0.602,0.476,1.103,1.067,1.219l2.102,0.562
			c1.649,0.441,2.93,1.782,3.217,3.464c2.125,12.435,13.361,21.555,26.232,20.757c12.416-0.77,22.179-10.51,23.368-22.509
			c0.193-1.943,1.62-3.561,3.512-4.045c2.236-0.572,5.179-0.991,8.417-0.591c1.961,0.242,3.621,1.667,4.054,3.595
			c2.643,11.786,13.547,20.271,25.98,19.5c12.871-0.798,22.895-11.236,23.467-23.838c0.078-1.705,1.183-3.194,2.765-3.835
			l2.017-0.818c0.573-0.189,0.946-0.74,0.908-1.342l-0.242-3.906C345.439,63.109,344.81,62.553,344.078,62.598z M251.034,98.33
			c-11.963,0.742-22.298-8.387-23.04-20.35c-0.742-11.963,8.387-22.298,20.35-23.04c11.963-0.742,22.298,8.387,23.04,20.35
			C272.126,87.253,262.997,97.589,251.034,98.33z M274.427,72.767c-0.106-0.681-0.24-1.351-0.4-2.011
			c-0.132-0.544,0.274-1.072,0.833-1.106l14.319-0.888c0.559-0.035,1.026,0.439,0.963,0.996c-0.076,0.666-0.126,1.34-0.148,2.019
			C283.35,70.027,277.47,71.6,274.427,72.767z M316.365,94.281c-11.963,0.742-22.298-8.387-23.04-20.35
			c-0.742-11.963,8.387-22.298,20.35-23.04c11.963-0.742,22.298,8.387,23.04,20.35C337.457,83.203,328.328,93.539,316.365,94.281z"
			/>
		<path style="opacity:0.4;fill:#FFFFFF;" d="M235,90.637c0,0-8.011-10.582-2.356-22.883c5.088-11.066,17.017-12.326,22.642-9.952
			L242.955,79.27c1.639-8.018,5.1-15.248,5.1-15.248S237.187,75.011,235,90.637z"/>
		<path style="opacity:0.4;fill:#FFFFFF;" d="M300.176,85.969c0,0-8.011-10.582-2.356-22.883
			c5.088-11.066,17.017-12.326,22.642-9.952L308.13,74.602c0.929-7.716,5.1-15.248,5.1-15.248S302.363,70.343,300.176,85.969z"/>
	</g>
</g>
<g id="Pen">
	<g>
		<polygon style="opacity:0.2;fill-opacity:0.7;" points="65.601,272.842 68.505,285.871 71.813,271.123 63.11,123.788 
			57.176,123.788 		"/>
		<g>
			<g>
				<defs>
					<path id="XMLID_16_" d="M60.304,121.997l8.201,148.203l-3.021,12.186l-4.347-11.778l-8.201-148.203
						c-0.057-1.028,0.726-1.903,1.754-1.96l3.654-0.202C59.372,120.186,60.247,120.969,60.304,121.997z"/>
				</defs>
				<use xlink:href="#XMLID_16_"  style="overflow:visible;fill:#92E3A9;"/>
				<clipPath id="XMLID_00000085217057614726230800000013576445086174451328_">
					<use xlink:href="#XMLID_16_"  style="overflow:visible;"/>
				</clipPath>
				<path style="opacity:0.2;clip-path:url(#XMLID_00000085217057614726230800000013576445086174451328_);fill-opacity:0.7;" d="
					M65.483,282.386l-4.347-11.778l-8.201-148.203c-0.057-1.028,0.726-1.903,1.754-1.96l0.509-0.028l8.261,149.292L65.483,282.386z"
					/>
				
					<use xlink:href="#XMLID_16_"  style="overflow:visible;fill:none;stroke:#263238;stroke-linecap:round;stroke-linejoin:round;stroke-miterlimit:10;"/>
			</g>
			<path style="fill:#92E3A9;stroke:#263238;stroke-linecap:round;stroke-linejoin:round;stroke-miterlimit:10;" d="M55.34,122.954
				l8.051,145.489c0.038,0.697,0.635,1.23,1.331,1.192l0.878-0.049"/>
		</g>
	</g>
</g>
<g id="Device">
	<g>
		<path style="opacity:0.2;fill-opacity:0.7;" d="M91.751,300.461l27.111-177.128c1.736-11.341,12.337-19.127,23.677-17.391
			l260.315,39.844c11.341,1.736,19.127,12.337,17.391,23.677l-27.111,177.128c-1.736,11.341-12.337,19.127-23.677,17.391
			l-260.315-39.843C97.801,322.403,90.015,311.802,91.751,300.461z"/>
		<g>
			<path style="fill:#92E3A9;stroke:#263238;stroke-linecap:round;stroke-linejoin:round;stroke-miterlimit:10;" d="
				M121.496,116.592l-2.359,15.411l-5.67-0.868c-0.54-0.083-0.911-0.587-0.828-1.127l2.06-13.455
				c0.083-0.54,0.587-0.911,1.127-0.828L121.496,116.592z"/>
			<path style="fill:#92E3A9;stroke:#263238;stroke-linecap:round;stroke-linejoin:round;stroke-miterlimit:10;" d="
				M161.304,110.521l-15.411-2.359l0.868-5.67c0.083-0.54,0.587-0.911,1.127-0.828l13.456,2.059c0.54,0.083,0.911,0.587,0.828,1.127
				L161.304,110.521z"/>
			<path style="fill:#92E3A9;stroke:#263238;stroke-linecap:round;stroke-linejoin:round;stroke-miterlimit:10;" d="
				M179.636,113.327l-15.411-2.359l0.868-5.67c0.083-0.54,0.587-0.911,1.127-0.828l13.456,2.06c0.54,0.083,0.911,0.587,0.828,1.127
				L179.636,113.327z"/>
			<path style="fill:#92E3A9;stroke:#263238;stroke-linecap:round;stroke-linejoin:round;stroke-miterlimit:10;" d="M88.751,296.461
				l27.111-177.128c1.736-11.341,12.337-19.127,23.677-17.391l260.315,39.844c11.341,1.736,19.127,12.337,17.391,23.677
				l-27.111,177.128c-1.736,11.341-12.337,19.127-23.677,17.391l-260.315-39.843C94.801,318.403,87.015,307.802,88.751,296.461z"/>
			<path style="fill:#757575;stroke:#263238;stroke-linecap:round;stroke-linejoin:round;stroke-miterlimit:10;" d="
				M367.481,357.794l-261.662-40.05c-9.703-1.485-16.365-10.555-14.88-20.258l27.317-178.476
				c1.485-9.703,10.555-16.365,20.258-14.88l261.662,40.05c9.703,1.485,16.365,10.555,14.88,20.258L387.74,342.914
				C386.254,352.618,377.184,359.28,367.481,357.794z"/>
			<path style="fill:#999999;stroke:#263238;stroke-linecap:round;stroke-linejoin:round;stroke-miterlimit:10;" d="
				M108.993,208.921c-0.085,0.556-0.605,0.938-1.161,0.853c-0.556-0.085-0.938-0.605-0.853-1.161
				c0.085-0.556,0.605-0.938,1.161-0.853C108.696,207.845,109.078,208.365,108.993,208.921z"/>
			<path style="fill:#263238;" d="M108.509,218.228c-0.163,1.064-1.157,1.794-2.221,1.632c-1.064-0.163-1.794-1.157-1.631-2.221
				c0.163-1.064,1.157-1.794,2.221-1.632C107.942,216.17,108.672,217.164,108.509,218.228z"/>
			<path style="fill:#263238;" d="M111.939,195.818c-0.163,1.064-1.157,1.794-2.221,1.632c-1.064-0.163-1.794-1.157-1.632-2.221
				c0.163-1.064,1.157-1.794,2.221-1.632C111.372,193.759,112.102,194.754,111.939,195.818z"/>
			<path style="fill:#263238;" d="M107.011,224.522c-0.119,0.775-0.843,1.308-1.619,1.189c-0.775-0.119-1.308-0.843-1.189-1.619
				s0.843-1.308,1.619-1.189S107.13,223.746,107.011,224.522z"/>
			<path style="fill:#263238;" d="M408.49,161.36l-27.93,182.52c-0.74,4.79-5.21,8.08-10,7.35l-219.21-33.55l-4.75-0.73l-17.87-2.74
				l-8.65-1.32l-12.5-1.91l-2.73-0.42c-4.79-0.73-8.08-5.21-7.35-10l27.94-182.52c0.73-4.79,5.21-8.08,10-7.34l81.83,12.52
				l12.38,1.9l11.83,1.81l15.2,2.32l5.5,0.84l138.97,21.27C405.94,152.1,409.22,156.57,408.49,161.36z"/>
			<g>
				<g>
					<g style="opacity:0.1;">
						<path style="fill:#FFFFFF;" d="M203.008,315.989l-92.955-14.228c-1.259-0.193-2.127-1.374-1.934-2.632l9.233-60.325
							c0.193-1.259,1.374-2.127,2.633-1.934l92.955,14.228c1.259,0.193,2.127,1.374,1.934,2.633l-9.233,60.325
							C205.449,315.315,204.268,316.182,203.008,315.989z M119.863,237.666c-0.82-0.125-1.589,0.439-1.714,1.26l-9.233,60.325
							c-0.125,0.819,0.439,1.588,1.259,1.714l92.955,14.228c0.82,0.125,1.589-0.439,1.714-1.259l9.233-60.325
							c0.126-0.82-0.44-1.589-1.259-1.715L119.863,237.666z"/>
					</g>
					<g>
						<path style="opacity:0.4;fill:#92E3A9;" d="M147.899,274.186l20.819,11.807c1.331-2.438,2.269-5.144,2.713-8.048
							c1.004-6.559-0.692-12.905-4.251-17.921L147.899,274.186z"/>
						<path style="opacity:0.6;fill:#92E3A9;" d="M148.099,273.039l18.604-13.665c-2.479-3.263-5.77-5.91-9.632-7.611l-3.666,8.694
							L148.099,273.039z"/>
						<path style="fill:#92E3A9;" d="M151.271,250.029l-3.223,21.054l8.278-19.631C154.727,250.81,153.037,250.328,151.271,250.029z
							"/>
						<path style="opacity:0.1;fill:#FFFFFF;" d="M146.796,273.94l3.678-24.033c-13.253-1.81-25.556,7.336-27.587,20.608
							c-0.661,4.322-0.147,8.55,1.295,12.368L146.796,273.94z"/>
						<path style="opacity:0.2;fill:#92E3A9;" d="M143.444,298.502c10.219,1.564,19.924-3.417,24.872-11.81l-21.188-12.016
							l-22.655,8.959C127.657,291.294,134.646,297.155,143.444,298.502z"/>
					</g>
					<g>
						<g>
							<path style="fill:#92E3A9;" d="M185.142,263.758l-2.762-0.423c-0.342-0.052-0.577-0.372-0.524-0.714l0.423-2.762
								c0.052-0.342,0.372-0.577,0.714-0.524l2.762,0.423c0.342,0.052,0.577,0.372,0.524,0.714l-0.423,2.762
								C185.803,263.575,185.484,263.81,185.142,263.758z"/>
							<g>
								<g>
									<path style="fill:#92E3A9;" d="M200.746,263.546l-12.051-1.845c-0.254-0.039-0.428-0.276-0.389-0.53
										c0.039-0.254,0.276-0.428,0.53-0.389l12.051,1.845c0.254,0.039,0.428,0.276,0.389,0.53
										C201.237,263.411,201,263.585,200.746,263.546z"/>
								</g>
								<g>
									<path style="fill:#92E3A9;" d="M196.763,264.983l-8.374-1.282c-0.254-0.039-0.428-0.276-0.389-0.53
										c0.039-0.254,0.276-0.428,0.53-0.389l8.374,1.282c0.254,0.039,0.428,0.276,0.389,0.53
										C197.254,264.848,197.017,265.022,196.763,264.983z"/>
								</g>
							</g>
						</g>
						<g>
							<path style="opacity:0.6;fill:#92E3A9;" d="M183.77,272.716l-2.762-0.423c-0.342-0.052-0.577-0.372-0.524-0.714l0.423-2.762
								c0.052-0.342,0.372-0.577,0.714-0.524l2.762,0.423c0.342,0.052,0.577,0.372,0.524,0.714l-0.423,2.762
								C184.432,272.534,184.112,272.769,183.77,272.716z"/>
							<g>
								<g>
									<path style="fill:#92E3A9;" d="M199.375,272.505l-12.051-1.845c-0.254-0.039-0.428-0.276-0.389-0.53
										c0.039-0.254,0.276-0.428,0.53-0.389l12.051,1.844c0.254,0.039,0.428,0.276,0.389,0.53
										C199.866,272.37,199.629,272.544,199.375,272.505z"/>
								</g>
								<g>
									<path style="fill:#92E3A9;" d="M195.392,273.942l-8.374-1.282c-0.254-0.039-0.428-0.276-0.389-0.53
										c0.039-0.254,0.276-0.428,0.53-0.389l8.374,1.282c0.254,0.039,0.428,0.276,0.389,0.53
										C195.883,273.807,195.646,273.981,195.392,273.942z"/>
								</g>
							</g>
						</g>
						<g>
							<path style="opacity:0.4;fill:#92E3A9;" d="M182.399,281.676l-2.762-0.423c-0.342-0.052-0.577-0.372-0.524-0.714l0.423-2.762
								c0.052-0.342,0.372-0.577,0.714-0.524l2.762,0.423c0.342,0.052,0.577,0.372,0.524,0.714l-0.423,2.762
								C183.061,281.493,182.741,281.728,182.399,281.676z"/>
							<g>
								<g>
									<path style="fill:#92E3A9;" d="M198.004,281.464l-12.051-1.845c-0.254-0.039-0.428-0.276-0.389-0.53
										c0.039-0.254,0.276-0.428,0.53-0.389l12.051,1.845c0.254,0.039,0.428,0.276,0.389,0.53
										C198.495,281.329,198.258,281.503,198.004,281.464z"/>
								</g>
								<g>
									<path style="fill:#92E3A9;" d="M194.021,282.901l-8.374-1.282c-0.254-0.039-0.428-0.276-0.389-0.53
										c0.039-0.254,0.276-0.428,0.53-0.389l8.374,1.282c0.254,0.039,0.428,0.276,0.389,0.53
										C194.512,282.766,194.275,282.94,194.021,282.901z"/>
								</g>
							</g>
						</g>
						<g>
							<path style="opacity:0.2;fill:#92E3A9;" d="M181.028,290.634l-2.762-0.423c-0.342-0.052-0.577-0.372-0.524-0.714l0.423-2.762
								c0.052-0.342,0.372-0.577,0.714-0.524l2.762,0.423c0.342,0.052,0.577,0.372,0.524,0.714l-0.423,2.762
								C181.689,290.452,181.37,290.687,181.028,290.634z"/>
							<g>
								<g>
									<path style="fill:#92E3A9;" d="M196.633,290.423l-12.051-1.845c-0.254-0.039-0.428-0.276-0.389-0.53
										c0.039-0.254,0.276-0.428,0.53-0.389l12.051,1.844c0.254,0.039,0.428,0.276,0.389,0.53
										C197.124,290.288,196.887,290.462,196.633,290.423z"/>
								</g>
								<g>
									<path style="fill:#92E3A9;" d="M192.65,291.86l-8.374-1.282c-0.254-0.039-0.428-0.276-0.389-0.53
										c0.039-0.254,0.276-0.428,0.53-0.389l8.374,1.282c0.254,0.039,0.428,0.276,0.389,0.53
										C193.141,291.725,192.904,291.899,192.65,291.86z"/>
								</g>
							</g>
						</g>
						<g>
							<path style="opacity:0.1;fill:#FFFFFF;" d="M179.657,299.594l-2.762-0.423c-0.342-0.052-0.577-0.372-0.524-0.714l0.423-2.762
								c0.052-0.342,0.372-0.577,0.714-0.524l2.762,0.423c0.342,0.052,0.577,0.372,0.524,0.714l-0.423,2.762
								C180.318,299.411,179.999,299.646,179.657,299.594z"/>
							<g>
								<g>
									<path style="fill:#92E3A9;" d="M195.261,299.382l-12.051-1.844c-0.254-0.039-0.428-0.276-0.389-0.53
										c0.039-0.254,0.276-0.428,0.53-0.389l12.051,1.845c0.254,0.039,0.428,0.276,0.389,0.53
										C195.752,299.247,195.515,299.421,195.261,299.382z"/>
								</g>
								<g>
									<path style="fill:#92E3A9;" d="M191.278,300.819l-8.374-1.282c-0.254-0.039-0.428-0.276-0.389-0.53
										c0.039-0.254,0.276-0.428,0.53-0.389l8.374,1.282c0.254,0.039,0.428,0.276,0.389,0.53
										C191.769,300.684,191.532,300.858,191.278,300.819z"/>
								</g>
							</g>
						</g>
					</g>
				</g>
				<g style="opacity:0.1;">
					<path style="fill:#FFFFFF;" d="M378.158,276.385l-151.123-23.131c-1.259-0.193-2.443,0.67-2.636,1.929l-0.637,4.159
						l-0.122,0.797l-0.859,5.609l-0.122,0.797l-0.857,5.602l-0.122,0.797l-0.857,5.602l-0.122,0.797l-0.858,5.61l-0.122,0.797
						l-0.857,5.602l-0.122,0.797l-0.857,5.602l-0.122,0.797l-0.859,5.61l-0.122,0.797l-0.857,5.602l-0.122,0.797l-0.637,4.159
						c-0.193,1.259,0.678,2.444,1.937,2.637l151.123,23.131c1.259,0.193,2.436-0.679,2.629-1.938l0.637-4.159l0.122-0.797
						l0.857-5.602l0.122-0.797l0.859-5.609l0.122-0.797l0.857-5.602l0.122-0.797l0.857-5.602l0.122-0.797l0.859-5.609l0.122-0.797
						l0.857-5.602l0.122-0.797l0.857-5.602l0.122-0.797l0.859-5.609l0.122-0.797l0.637-4.159
						C380.281,277.754,379.417,276.578,378.158,276.385z M370.058,339.217c-0.126,0.821-0.897,1.388-1.71,1.263l-151.123-23.131
						c-0.821-0.126-1.388-0.897-1.262-1.718l0.637-4.159l154.095,23.586L370.058,339.217z M370.816,334.261l-154.095-23.586
						l0.857-5.602l154.095,23.586L370.816,334.261z M371.796,327.862l-154.095-23.586l0.858-5.61l154.095,23.586L371.796,327.862z
						 M372.776,321.456l-154.095-23.586l0.857-5.602l154.095,23.586L372.776,321.456z M373.756,315.058l-154.095-23.586l0.857-5.602
						l154.095,23.586L373.756,315.058z M374.735,308.659L220.64,285.074l0.859-5.609l154.095,23.586L374.735,308.659z
						 M375.716,302.253l-154.095-23.586l0.857-5.602l154.095,23.586L375.716,302.253z M376.695,295.855L222.6,272.269l0.857-5.602
						l154.095,23.586L376.695,295.855z M377.674,289.456l-154.095-23.586l0.859-5.609l154.095,23.586L377.674,289.456z
						 M224.56,259.464l0.637-4.159c0.126-0.821,0.896-1.38,1.717-1.254l151.123,23.131c0.813,0.124,1.381,0.888,1.255,1.709
						l-0.637,4.159L224.56,259.464z"/>
				</g>
				<g>
					<g style="opacity:0.1;">
						<path style="fill:#FFFFFF;" d="M394.304,168.718l-257.526-39.417c-1.436-0.22-2.784,0.77-3.004,2.206l-14.43,94.276
							c-0.22,1.436,0.77,2.784,2.206,3.004l257.526,39.417c1.436,0.22,2.783-0.77,3.003-2.206l14.43-94.276
							C396.73,170.285,395.741,168.938,394.304,168.718z M184.265,182.274l17.913,2.742l-1.556,10.169l-17.913-2.742
							L184.265,182.274z M181.912,192.321l-17.913-2.742l1.556-10.169l17.913,2.742L181.912,192.321z M202.975,185.138l17.913,2.742
							l-1.556,10.169l-17.913-2.742L202.975,185.138z M295.85,198.538l-17.913-2.742l1.556-10.169l17.913,2.742L295.85,198.538z
							 M298.203,188.491l17.913,2.742l-1.556,10.169l-17.913-2.742L298.203,188.491z M240.395,190.865l17.913,2.742l-1.556,10.169
							l-17.913-2.742L240.395,190.865z M238.042,200.912l-17.913-2.742l1.556-10.169l17.913,2.742L238.042,200.912z
							 M259.105,193.729l17.913,2.742l-1.556,10.169l-17.913-2.742L259.105,193.729z M277.814,196.593l17.913,2.742l-1.556,10.169
							l-17.913-2.742L277.814,196.593z M277.14,195.674l-17.913-2.742l1.556-10.169l17.913,2.742L277.14,195.674z M258.43,192.81
							l-17.913-2.742l1.556-10.169l17.913,2.742L258.43,192.81z M239.72,189.947l-17.913-2.742l1.556-10.169l17.913,2.742
							L239.72,189.947z M221.01,187.083l-17.913-2.742l1.556-10.169l17.913,2.742L221.01,187.083z M219.21,198.845l-1.556,10.169
							l-17.913-2.742l1.556-10.169L219.21,198.845z M220.007,198.967l17.913,2.742l-1.556,10.169l-17.913-2.742L220.007,198.967z
							 M238.716,201.831l17.913,2.742l-1.556,10.169l-17.913-2.742L238.716,201.831z M257.426,204.694l17.913,2.742l-1.556,10.169
							l-17.913-2.742L257.426,204.694z M276.136,207.558l17.913,2.742l-1.556,10.169l-17.913-2.742L276.136,207.558z
							 M294.846,210.422l17.913,2.742l-1.557,10.169l-17.913-2.742L294.846,210.422z M294.968,209.625l1.556-10.169l17.913,2.742
							l-1.556,10.169L294.968,209.625z M315.234,202.32l17.913,2.742l-1.556,10.169l-17.913-2.742L315.234,202.32z M333.944,205.184
							l17.913,2.742l-1.556,10.169l-17.913-2.742L333.944,205.184z M334.066,204.387l1.556-10.169l17.913,2.742l-1.556,10.169
							L334.066,204.387z M333.27,204.265l-17.913-2.742l1.556-10.169l17.913,2.742L333.27,204.265z M317.034,190.558l1.556-10.168
							l17.913,2.742l-1.556,10.168L317.034,190.558z M316.238,190.436l-17.913-2.742l1.556-10.168l17.913,2.742L316.238,190.436z
							 M297.528,187.572l-17.913-2.742l1.556-10.168l17.913,2.742L297.528,187.572z M278.818,184.708l-17.913-2.742l1.556-10.168
							l17.913,2.742L278.818,184.708z M260.108,181.845l-17.913-2.742l1.556-10.168l17.913,2.742L260.108,181.845z M241.398,178.981
							l-17.913-2.742l1.556-10.168l17.913,2.742L241.398,178.981z M222.688,176.117l-17.913-2.742l1.556-10.168l17.913,2.742
							L222.688,176.117z M203.978,173.253l-17.913-2.742l1.556-10.168l17.913,2.742L203.978,173.253z M203.856,174.05l-1.556,10.169
							l-17.913-2.742l1.556-10.169L203.856,174.05z M183.59,181.355l-17.913-2.742l1.556-10.169l17.913,2.742L183.59,181.355z
							 M164.88,178.492l-17.913-2.742l1.556-10.169l17.913,2.742L164.88,178.492z M164.758,179.288l-1.556,10.169l-17.913-2.742
							l1.556-10.169L164.758,179.288z M163.08,190.254l-1.556,10.169l-17.913-2.742l1.556-10.169L163.08,190.254z M163.877,190.376
							l17.913,2.742l-1.556,10.169l-17.913-2.742L163.877,190.376z M182.587,193.24l17.913,2.742l-1.556,10.169l-17.913-2.742
							L182.587,193.24z M198.821,206.947l-1.556,10.169l-17.913-2.742l1.556-10.169L198.821,206.947z M199.618,207.069l17.913,2.742
							l-1.556,10.169l-17.913-2.742L199.618,207.069z M218.328,209.932l17.913,2.742l-1.556,10.169l-17.913-2.742L218.328,209.932z
							 M237.038,212.796l17.913,2.742l-1.556,10.169l-17.913-2.742L237.038,212.796z M255.748,215.66l17.913,2.742l-1.556,10.169
							l-17.913-2.742L255.748,215.66z M274.458,218.524l17.913,2.742l-1.556,10.169l-17.913-2.742L274.458,218.524z
							 M293.168,221.387l17.913,2.742l-1.556,10.169l-17.913-2.742L293.168,221.387z M311.877,224.251l17.913,2.742l-1.556,10.169
							l-17.913-2.742L311.877,224.251z M311.999,223.454l1.556-10.169l17.913,2.742l-1.556,10.169L311.999,223.454z
							 M332.266,216.149l17.913,2.742l-1.556,10.169l-17.913-2.742L332.266,216.149z M350.975,219.013l17.913,2.742l-1.556,10.169
							l-17.913-2.742L350.975,219.013z M351.097,218.216l1.556-10.169l17.913,2.742l-1.556,10.169L351.097,218.216z
							 M352.776,207.251l1.556-10.169l17.913,2.742l-1.556,10.169L352.776,207.251z M354.454,196.285l1.556-10.168l17.913,2.742
							l-1.556,10.168L354.454,196.285z M353.657,196.163l-17.913-2.742l1.556-10.168l17.913,2.742L353.657,196.163z
							 M337.423,182.456l1.556-10.169l17.913,2.742l-1.556,10.169L337.423,182.456z M336.626,182.335l-17.913-2.742l1.556-10.169
							l17.913,2.742L336.626,182.335z M317.916,179.471l-17.913-2.742l1.556-10.169l17.913,2.742L317.916,179.471z M299.206,176.607
							l-17.913-2.742l1.556-10.169l17.913,2.742L299.206,176.607z M280.496,173.743l-17.913-2.742l1.556-10.169l17.913,2.742
							L280.496,173.743z M261.786,170.88l-17.913-2.742l1.556-10.169l17.913,2.742L261.786,170.88z M243.077,168.016l-17.913-2.742
							l1.556-10.169l17.913,2.742L243.077,168.016z M224.367,165.152l-17.913-2.742l1.556-10.169l17.913,2.742L224.367,165.152z
							 M205.656,162.288l-17.913-2.742l1.556-10.169l17.913,2.742L205.656,162.288z M186.947,159.425l-17.913-2.742l1.556-10.169
							l17.913,2.742L186.947,159.425z M186.825,160.221l-1.556,10.168l-17.913-2.742l1.556-10.168L186.825,160.221z
							 M166.559,167.526l-17.913-2.742l1.556-10.168l17.913,2.742L166.559,167.526z M147.849,164.662l-17.913-2.742l1.556-10.168
							l17.913,2.742L147.849,164.662z M147.727,165.459l-1.556,10.169l-17.913-2.742l1.556-10.169L147.727,165.459z
							 M146.048,176.425l-1.556,10.169l-17.913-2.742l1.556-10.169L146.048,176.425z M144.37,187.39l-1.556,10.169l-17.913-2.742
							l1.556-10.169L144.37,187.39z M142.692,198.356l-1.556,10.169l-17.913-2.742l1.556-10.169L142.692,198.356z M143.488,198.477
							l17.913,2.742l-1.556,10.169l-17.913-2.742L143.488,198.477z M162.198,201.341l17.913,2.742l-1.556,10.169l-17.913-2.742
							L162.198,201.341z M178.433,215.048l-1.556,10.169l-17.913-2.742l1.556-10.169L178.433,215.048z M179.23,215.17l17.913,2.742
							l-1.556,10.169l-17.913-2.742L179.23,215.17z M197.94,218.034l17.913,2.742l-1.556,10.169l-17.913-2.742L197.94,218.034z
							 M216.65,220.898l17.913,2.742l-1.556,10.169l-17.913-2.742L216.65,220.898z M235.36,223.762l17.913,2.742l-1.556,10.169
							l-17.913-2.742L235.36,223.762z M254.069,226.625l17.913,2.742l-1.556,10.169l-17.913-2.742L254.069,226.625z
							 M272.779,229.489l17.913,2.742l-1.556,10.169l-17.913-2.742L272.779,229.489z M291.49,232.353l17.913,2.742l-1.556,10.169
							l-17.913-2.742L291.49,232.353z M310.199,235.217l17.913,2.742l-1.556,10.169l-17.913-2.742L310.199,235.217z M328.909,238.08
							l17.913,2.742l-1.556,10.169l-17.913-2.742L328.909,238.08z M329.031,237.283l1.556-10.169l17.913,2.742l-1.556,10.169
							L329.031,237.283z M349.297,229.978l17.913,2.742l-1.556,10.169l-17.913-2.742L349.297,229.978z M368.007,232.842
							l17.913,2.742l-1.556,10.169l-17.913-2.742L368.007,232.842z M368.129,232.045l1.556-10.169l17.913,2.742l-1.556,10.169
							L368.129,232.045z M369.808,221.08l1.556-10.169l17.913,2.742l-1.556,10.169L369.808,221.08z M371.486,210.115l1.556-10.169
							l17.913,2.742l-1.556,10.169L371.486,210.115z M373.164,199.149l1.556-10.168l17.913,2.742l-1.556,10.168L373.164,199.149z
							 M374.843,188.184l1.556-10.169l17.913,2.742l-1.556,10.169L374.843,188.184z M374.046,188.062l-17.914-2.742l1.556-10.169
							l17.914,2.742L374.046,188.062z M357.811,174.355l1.556-10.169l17.913,2.742l-1.556,10.169L357.811,174.355z M357.014,174.233
							l-17.913-2.742l1.557-10.169l17.913,2.742L357.014,174.233z M338.305,171.369l-17.913-2.742l1.556-10.169l17.913,2.742
							L338.305,171.369z M319.594,168.505l-17.913-2.742l1.556-10.169l17.913,2.742L319.594,168.505z M300.885,165.642
							l-17.913-2.742l1.556-10.169l17.913,2.742L300.885,165.642z M282.175,162.778l-17.913-2.742l1.556-10.169l17.913,2.742
							L282.175,162.778z M263.465,159.914l-17.913-2.742l1.556-10.169l17.913,2.742L263.465,159.914z M244.755,157.051
							l-17.913-2.742l1.556-10.169l17.913,2.742L244.755,157.051z M226.045,154.187l-17.913-2.742l1.556-10.169l17.913,2.742
							L226.045,154.187z M207.335,151.323l-17.913-2.742l1.556-10.169l17.913,2.742L207.335,151.323z M188.625,148.459
							l-17.913-2.742l1.556-10.169l17.913,2.742L188.625,148.459z M169.915,145.596l-17.913-2.742l1.556-10.169l17.913,2.742
							L169.915,145.596z M169.793,146.392l-1.556,10.169l-17.913-2.742l1.556-10.169L169.793,146.392z M149.527,153.697
							l-17.913-2.742l1.556-10.169l17.913,2.742L149.527,153.697z M123.1,206.579l17.913,2.742l-1.556,10.169l-17.913-2.742
							L123.1,206.579z M141.81,209.443l17.913,2.742l-1.556,10.169l-17.913-2.742L141.81,209.443z M158.045,223.15l-1.556,10.168
							l-17.913-2.742l1.556-10.168L158.045,223.15z M158.842,223.272l17.913,2.742l-1.556,10.168l-17.913-2.742L158.842,223.272z
							 M177.551,226.136l17.913,2.742l-1.556,10.168l-17.913-2.742L177.551,226.136z M196.261,229l17.913,2.742l-1.556,10.168
							l-17.913-2.742L196.261,229z M214.971,231.863l17.913,2.742l-1.556,10.168l-17.913-2.742L214.971,231.863z M233.681,234.727
							l17.913,2.742l-1.556,10.168l-17.913-2.742L233.681,234.727z M252.391,237.591l17.913,2.742l-1.556,10.168l-17.913-2.742
							L252.391,237.591z M271.101,240.454l17.913,2.742l-1.556,10.168l-17.914-2.742L271.101,240.454z M289.811,243.318
							l17.913,2.742l-1.556,10.168l-17.913-2.742L289.811,243.318z M308.521,246.182l17.913,2.742l-1.556,10.168l-17.913-2.742
							L308.521,246.182z M327.231,249.046l17.913,2.742l-1.556,10.168l-17.913-2.742L327.231,249.046z M345.94,251.909l17.914,2.742
							l-1.556,10.168l-17.913-2.742L345.94,251.909z M346.062,251.113l1.556-10.169l17.913,2.742l-1.556,10.169L346.062,251.113z
							 M366.329,243.808l17.913,2.742l-1.556,10.169l-17.913-2.742L366.329,243.808z M395.713,171.6l-1.28,8.361l-17.913-2.742
							l1.556-10.169l16.105,2.465C395.179,169.667,395.866,170.603,395.713,171.6z M136.657,130.098l16.105,2.465l-1.556,10.169
							l-17.913-2.742l1.28-8.361C134.725,130.633,135.66,129.946,136.657,130.098z M120.142,225.905l1.28-8.36l17.913,2.742
							l-1.556,10.168l-16.105-2.465C120.677,227.837,119.99,226.902,120.142,225.905z M379.199,267.406l-16.105-2.465l1.556-10.168
							l17.913,2.742l-1.28,8.36C381.131,266.872,380.196,267.559,379.199,267.406z"/>
					</g>
					<g>
						<path style="opacity:0.5;fill:#92E3A9;" d="M385.796,236.38l-4.513,29.482c-0.146,0.956-1.038,1.611-2.002,1.463
							L121.61,227.887c-0.956-0.146-1.611-1.038-1.464-1.994l0.604-3.944c0,0,12.111-9.759,19.689-8.599
							c8.956,1.371,10.544,6.45,18.512,7.669c7.96,1.218,16.764-17.299,23.983-16.194c3.904,0.598,4.904,3.605,6.822,6.361
							c1.422,2.061,3.371,3.974,7.4,4.664c0.094,0.023,0.198,0.038,0.294,0.053c9.801,1.5,23.065-50.528,36.547-48.464
							c5.96,0.912,8.369,12.396,10.156,25.073c2.269,16.021,3.553,33.954,9.8,34.91c11.179,1.711,14.976-20.965,25.374-19.374
							c6.534,1,8.913,13.107,14.41,22.69c3.249,5.676,7.604,10.468,14.569,11.534c6.327,0.968,10.556-0.505,13.845-2.814
							c6.447-4.51,9.33-12.207,17.394-10.973c4.773,0.731,6.517,4.414,8.294,7.883c1.55,3.034,3.133,5.902,6.815,6.466
							c4.327,0.662,8.015-5.534,11.923-11.035c3.212-4.524,6.564-8.577,10.548-7.967c4.072,0.623,6.472,5.508,7.683,8.996
							C385.494,234.834,385.796,236.38,385.796,236.38z"/>
						<path style="opacity:0.5;fill:#92E3A9;" d="M391.996,195.871l-10.713,69.992c-0.146,0.956-1.038,1.611-2.002,1.463
							L121.61,227.887c-0.956-0.146-1.611-1.038-1.464-1.994l0.604-3.944c10.701,1.638,16.412-6.369,23.591-5.27
							c7.179,1.099,10.897,6.112,17.622,7.142c6.725,1.029,17.083-14.698,24.438-13.572c1.267,0.194,2.366,0.525,3.355,0.938
							c2.828,1.183,4.779,3.088,7.4,4.664c1.778,1.063,3.864,1.978,6.733,2.417c8.614,1.318,25.844-29.846,35.828-28.318
							c1.745,0.267,3.185,1.197,4.435,2.563c5.898,6.432,7.417,22.509,15.744,23.783c10.088,1.544,15.487-14.869,25.271-13.371
							c9.785,1.498,12.675,18.364,24.022,20.101c11.347,1.737,23.623-29.236,35.391-27.435c11.761,1.8,15.134,17.709,25.363,19.274
							C381.148,216.579,391.996,195.871,391.996,195.871z"/>
						<path style="fill:#92E3A9;" d="M387.016,228.412l-5.732,37.45c-0.146,0.956-1.038,1.611-2.002,1.463L121.61,227.887
							c-0.956-0.146-1.611-1.038-1.464-1.994l0.295-1.928c0.373-0.359,6.436-6.085,12.603-5.141
							c6.367,0.975,6.383,6.677,15.267,8.037c8.884,1.36,11.468-5.665,24.074-3.736c12.614,1.931,12.554,10.737,25.582,12.731
							c13.028,1.994,15.72-8.562,24.971-7.146c9.243,1.415,8.637,6.81,13.888,7.614c5.251,0.804,8.324-7.443,14.794-6.453
							c6.47,0.99,11.416,14.55,18.707,15.666c5.124,0.784,14.177-9.353,23.41-14.798c3.907-2.297,7.849-3.757,11.538-3.192
							c7.61,1.165,12.05,7.104,16.876,11.912c3.035,3.025,6.229,5.602,10.452,6.248c6.032,0.923,10.61-4.533,15.235-9.338
							c3.762-3.909,7.549-7.391,12.163-6.685c2.94,0.45,4.991,1.221,6.575,2.115c3.979,2.24,5.05,5.258,9.839,5.991
							C382.189,238.674,387.016,228.412,387.016,228.412z"/>
					</g>
					<path style="fill:#92E3A9;" d="M152.048,126.257l-13.835-2.118c-1.346-0.206-2.27-1.464-2.064-2.811l0,0
						c0.206-1.346,1.464-2.27,2.811-2.064l13.835,2.118c1.346,0.206,2.27,1.464,2.064,2.811l0,0
						C154.652,125.539,153.394,126.463,152.048,126.257z"/>
					<g>
						<path style="fill:#92E3A9;" d="M159.688,123.466L159.688,123.466c0.074,0,0.149,0.006,0.225,0.017l13.835,2.118
							c0.387,0.059,0.728,0.266,0.96,0.581c0.232,0.316,0.327,0.703,0.268,1.09c-0.109,0.709-0.73,1.244-1.446,1.244
							c-0.074,0-0.149-0.006-0.225-0.017l-13.835-2.117c-0.387-0.059-0.728-0.266-0.96-0.581c-0.232-0.316-0.327-0.702-0.267-1.09
							C158.351,124.001,158.972,123.466,159.688,123.466 M159.688,122.466c-1.197,0-2.248,0.873-2.434,2.093
							c-0.206,1.346,0.718,2.604,2.064,2.811l13.835,2.118c0.126,0.019,0.252,0.029,0.376,0.029c1.197,0,2.248-0.873,2.434-2.093
							c0.206-1.346-0.718-2.604-2.064-2.811l-13.835-2.118C159.938,122.476,159.812,122.466,159.688,122.466L159.688,122.466z"/>
					</g>
					<g>
						<path style="fill:#92E3A9;" d="M180.793,126.697L180.793,126.697c0.074,0,0.149,0.006,0.225,0.017l13.835,2.118
							c0.387,0.059,0.728,0.266,0.96,0.581c0.232,0.315,0.327,0.702,0.268,1.089c-0.109,0.709-0.73,1.244-1.446,1.244
							c-0.074,0-0.149-0.006-0.225-0.017l-13.835-2.118c-0.387-0.059-0.728-0.266-0.96-0.581c-0.232-0.316-0.327-0.702-0.268-1.089
							C179.456,127.232,180.077,126.697,180.793,126.697 M180.793,125.697c-1.197,0-2.248,0.873-2.434,2.093
							c-0.206,1.346,0.718,2.604,2.064,2.81l13.835,2.118c0.126,0.019,0.252,0.029,0.376,0.029c1.197,0,2.248-0.873,2.434-2.093
							c0.206-1.346-0.718-2.605-2.064-2.811l-13.835-2.118C181.043,125.706,180.917,125.697,180.793,125.697L180.793,125.697z"/>
					</g>
					<path style="fill:#92E3A9;" d="M396.264,161.41l0.165-1.08l-0.798-0.194c-0.022-0.178-0.064-0.351-0.126-0.515l0.617-0.541
						l-0.647-0.881l-0.701,0.427c-0.139-0.108-0.291-0.2-0.454-0.274l0.054-0.82l-1.08-0.165l-0.193,0.798
						c-0.178,0.022-0.351,0.064-0.516,0.126l-0.541-0.617l-0.881,0.647l0.427,0.701c-0.108,0.139-0.2,0.291-0.274,0.454l-0.82-0.054
						l-0.165,1.08l0.798,0.194c0.022,0.178,0.064,0.351,0.126,0.515l-0.617,0.541l0.647,0.881l0.701-0.427
						c0.139,0.108,0.291,0.2,0.454,0.274l-0.054,0.82l1.08,0.165l0.194-0.798c0.178-0.022,0.351-0.064,0.516-0.126l0.541,0.617
						l0.881-0.647l-0.427-0.701c0.108-0.139,0.2-0.291,0.274-0.454L396.264,161.41z M393.188,161.671
						c-0.693-0.106-1.169-0.754-1.063-1.447c0.106-0.693,0.754-1.169,1.447-1.063c0.693,0.106,1.169,0.754,1.063,1.447
						C394.53,161.301,393.882,161.777,393.188,161.671z"/>
				</g>
				<g>
					<g>
						
							<rect x="236.136" y="280.057" transform="matrix(0.9885 0.1513 -0.1513 0.9885 46.7247 -32.6037)" style="opacity:0.2;fill:#92E3A9;" width="2.976" height="21.403"/>
						
							<rect x="236.505" y="283.31" transform="matrix(0.9885 0.1513 -0.1513 0.9885 46.3643 -32.6874)" style="fill:#92E3A9;" width="2.976" height="10.075"/>
					</g>
					<g>
						
							<rect x="228.696" y="284.383" transform="matrix(0.9885 0.1513 -0.1513 0.9885 47.2953 -31.4293)" style="opacity:0.2;fill:#92E3A9;" width="2.976" height="21.403"/>
						
							<rect x="225.15" y="293.576" transform="matrix(0.1513 -0.9885 0.9885 0.1513 -96.3052 477.9608)" style="fill:#92E3A9;" width="10.075" height="2.976"/>
					</g>
					<g>
						
							<rect x="222.695" y="279.311" transform="matrix(0.9885 0.1513 -0.1513 0.9885 46.4571 -30.5788)" style="opacity:0.2;fill:#92E3A9;" width="2.976" height="21.403"/>
						
							<rect x="222.332" y="287.344" transform="matrix(0.9885 0.1513 -0.1513 0.9885 46.8131 -30.4976)" style="fill:#92E3A9;" width="2.976" height="10.075"/>
					</g>
					<g>
						
							<rect x="242.119" y="285.251" transform="matrix(0.9885 0.1513 -0.1513 0.9885 47.5811 -33.4501)" style="opacity:0.2;fill:#92E3A9;" width="2.976" height="21.403"/>
						
							<rect x="242.488" y="288.504" transform="matrix(0.9885 0.1513 -0.1513 0.9885 47.2297 -33.5392)" style="fill:#92E3A9;" width="2.976" height="10.075"/>
					</g>
					<g>
						
							<rect x="249.699" y="280.006" transform="matrix(0.9885 0.1513 -0.1513 0.9885 46.8732 -34.6564)" style="opacity:0.2;fill:#92E3A9;" width="2.976" height="21.403"/>
						
							<rect x="250.19" y="282.461" transform="matrix(0.9885 0.1513 -0.1513 0.9885 46.395 -34.7686)" style="fill:#92E3A9;" width="2.976" height="10.075"/>
					</g>
					<g>
						
							<rect x="255.485" y="286.482" transform="matrix(0.9885 0.1513 -0.1513 0.9885 47.9195 -35.4572)" style="opacity:0.2;fill:#92E3A9;" width="2.976" height="21.403"/>
						
							<rect x="256.22" y="287.344" transform="matrix(0.9885 0.1513 -0.1513 0.9885 47.2031 -35.6248)" style="fill:#92E3A9;" width="2.976" height="10.075"/>
					</g>
					<g>
						
							<rect x="263.801" y="276.434" transform="matrix(0.9885 0.1513 -0.1513 0.9885 46.495 -36.8309)" style="opacity:0.2;fill:#92E3A9;" width="2.976" height="21.403"/>
						
							<rect x="264.536" y="277.296" transform="matrix(0.9885 0.1513 -0.1513 0.9885 45.7786 -36.9986)" style="fill:#92E3A9;" width="2.976" height="10.075"/>
					</g>
					<g>
						
							<rect x="268.384" y="290.771" transform="matrix(0.9885 0.1513 -0.1513 0.9885 48.7187 -37.3605)" style="opacity:0.2;fill:#92E3A9;" width="2.976" height="21.403"/>
						
							<rect x="268.753" y="294.023" transform="matrix(0.9885 0.1513 -0.1513 0.9885 48.3563 -37.4429)" style="fill:#92E3A9;" width="2.976" height="10.075"/>
					</g>
					<g>
						
							<rect x="274.818" y="293.019" transform="matrix(0.9885 0.1513 -0.1513 0.9885 49.1328 -38.3079)" style="opacity:0.2;fill:#92E3A9;" width="2.976" height="21.403"/>
						
							<rect x="274.455" y="301.052" transform="matrix(0.9885 0.1513 -0.1513 0.9885 49.4852 -38.2246)" style="fill:#92E3A9;" width="2.976" height="10.075"/>
					</g>
					<g>
						
							<rect x="283.472" y="280.754" transform="matrix(0.9885 0.1513 -0.1513 0.9885 47.3862 -39.7653)" style="opacity:0.2;fill:#92E3A9;" width="2.976" height="21.403"/>
						
							<rect x="282.988" y="289.585" transform="matrix(0.9885 0.1513 -0.1513 0.9885 47.8503 -39.6488)" style="fill:#92E3A9;" width="2.976" height="10.075"/>
					</g>
					<g>
						
							<rect x="288.672" y="291.067" transform="matrix(0.9885 0.1513 -0.1513 0.9885 48.9969 -40.4265)" style="opacity:0.2;fill:#92E3A9;" width="2.976" height="21.403"/>
						
							<rect x="288.919" y="295.116" transform="matrix(0.9885 0.1513 -0.1513 0.9885 48.7537 -40.4812)" style="fill:#92E3A9;" width="2.976" height="10.075"/>
					</g>
					<g>
						
							<rect x="296.139" y="286.561" transform="matrix(0.9885 0.1513 -0.1513 0.9885 48.3993 -41.6068)" style="opacity:0.2;fill:#92E3A9;" width="2.976" height="21.403"/>
						
							<rect x="296.508" y="289.813" transform="matrix(0.9885 0.1513 -0.1513 0.9885 48.0389 -41.6906)" style="fill:#92E3A9;" width="2.976" height="10.075"/>
					</g>
					<g>
						
							<rect x="304.215" y="278.075" transform="matrix(0.9885 0.1513 -0.1513 0.9885 47.2085 -42.9265)" style="opacity:0.2;fill:#92E3A9;" width="2.976" height="21.403"/>
						
							<rect x="305.072" y="278.14" transform="matrix(0.9885 0.1513 -0.1513 0.9885 46.373 -43.1219)" style="fill:#92E3A9;" width="2.976" height="10.075"/>
					</g>
					<g>
						
							<rect x="308.787" y="292.488" transform="matrix(0.9885 0.1513 -0.1513 0.9885 49.4533 -43.4608)" style="opacity:0.2;fill:#92E3A9;" width="2.976" height="21.403"/>
						
							<rect x="309.278" y="294.944" transform="matrix(0.9885 0.1513 -0.1513 0.9885 48.9638 -43.5647)" style="fill:#92E3A9;" width="2.976" height="10.075"/>
					</g>
					<g>
						
							<rect x="313.986" y="302.799" transform="matrix(0.9885 0.1513 -0.1513 0.9885 51.0616 -44.1201)" style="opacity:0.2;fill:#92E3A9;" width="2.976" height="21.403"/>
						
							<rect x="314.477" y="305.255" transform="matrix(0.9885 0.1513 -0.1513 0.9885 50.5837 -44.2327)" style="fill:#92E3A9;" width="2.976" height="10.075"/>
					</g>
					<g>
						
							<rect x="322.323" y="292.615" transform="matrix(0.9885 0.1513 -0.1513 0.9885 49.6186 -45.5)" style="opacity:0.2;fill:#92E3A9;" width="2.976" height="21.403"/>
						
							<rect x="321.96" y="300.648" transform="matrix(0.9885 0.1513 -0.1513 0.9885 49.9826 -45.4254)" style="fill:#92E3A9;" width="2.976" height="10.075"/>
					</g>
					<g>
						
							<rect x="330.775" y="281.67" transform="matrix(0.9885 0.1513 -0.1513 0.9885 48.0599 -46.9049)" style="opacity:0.2;fill:#92E3A9;" width="2.976" height="21.403"/>
						
							<rect x="330.169" y="291.297" transform="matrix(0.9885 0.1513 -0.1513 0.9885 48.6506 -46.7659)" style="fill:#92E3A9;" width="2.976" height="10.075"/>
					</g>
					<g>
						
							<rect x="335.567" y="294.642" transform="matrix(0.9885 0.1513 -0.1513 0.9885 50.076 -47.4791)" style="opacity:0.2;fill:#92E3A9;" width="2.976" height="21.403"/>
						
							<rect x="335.937" y="297.895" transform="matrix(0.9885 0.1513 -0.1513 0.9885 49.7288 -47.5737)" style="fill:#92E3A9;" width="2.976" height="10.075"/>
					</g>
					<g>
						
							<rect x="341.651" y="299.176" transform="matrix(0.9885 0.1513 -0.1513 0.9885 50.8319 -48.3473)" style="opacity:0.2;fill:#92E3A9;" width="2.976" height="21.403"/>
						
							<rect x="341.167" y="308.006" transform="matrix(0.9885 0.1513 -0.1513 0.9885 51.3071 -48.239)" style="fill:#92E3A9;" width="2.976" height="10.075"/>
					</g>
					<g>
						
							<rect x="349.284" y="293.591" transform="matrix(0.9885 0.1513 -0.1513 0.9885 50.0765 -49.5679)" style="opacity:0.2;fill:#92E3A9;" width="2.976" height="21.403"/>
						
							<rect x="350.141" y="293.656" transform="matrix(0.9885 0.1513 -0.1513 0.9885 49.2375 -49.7604)" style="fill:#92E3A9;" width="2.976" height="10.075"/>
					</g>
					<g>
						
							<rect x="354.896" y="301.203" transform="matrix(0.9885 0.1513 -0.1513 0.9885 51.2911 -50.3278)" style="opacity:0.2;fill:#92E3A9;" width="2.976" height="21.403"/>
						
							<rect x="355.509" y="302.862" transform="matrix(0.9885 0.1513 -0.1513 0.9885 50.6921 -50.4667)" style="fill:#92E3A9;" width="2.976" height="10.075"/>
					</g>
					<g>
						
							<rect x="361.955" y="299.363" transform="matrix(0.9885 0.1513 -0.1513 0.9885 51.0957 -51.4186)" style="opacity:0.2;fill:#92E3A9;" width="2.976" height="21.403"/>
						
							<rect x="362.69" y="300.225" transform="matrix(0.9885 0.1513 -0.1513 0.9885 50.3758 -51.5835)" style="fill:#92E3A9;" width="2.976" height="10.075"/>
					</g>
					<g>
						
							<rect x="368.162" y="303.094" transform="matrix(0.9885 0.1513 -0.1513 0.9885 51.7296 -52.3129)" style="opacity:0.2;fill:#92E3A9;" width="2.976" height="21.403"/>
						
							<rect x="367.433" y="313.518" transform="matrix(0.9885 0.1513 -0.1513 0.9885 52.4557 -52.1602)" style="fill:#92E3A9;" width="2.976" height="10.075"/>
					</g>
				</g>
			</g>
			
				<rect x="209.863" y="328.566" transform="matrix(0.9885 0.1513 -0.1513 0.9885 52.5817 -32.2053)" style="fill:#999999;stroke:#263238;stroke-linecap:round;stroke-linejoin:round;stroke-miterlimit:10;" width="56.125" height="1.737"/>
		</g>
	</g>
</g>
<g id="Right_hand_1_">
	<g>
		<path style="opacity:0.2;fill-opacity:0.7;" d="M301.06,211.88c0,0-7.52,4.167-2.735,15.473
			c4.785,11.306,33.923,29.872,33.332,39.314c0,0-29.906-18.641-38.217-7.879c0,0,22.594,21.908,24.937,38.395
			c2.343,16.487,10.034,23.786,27.685,33.187c17.651,9.401,56.117,59.022,56.117,59.022l-5.75-83.302l-55.985-63.201l-27.685-15.774
			L301.06,211.88z"/>
		<g>
			<path style="fill:#FFFFFF;" d="M453.01,360.4c0,0-49.3,32.38-49.31,32.38c-0.03,0.01-0.05,0.02-0.08,0.02
				c-0.09,0-0.17-0.06-0.21-0.15c-0.22-0.58-22.03-58.79-27.25-63.33c-3.89-3.38-5.59-7.79-6.22-9.94c0-0.01-0.01-0.01-0.01-0.02
				c-0.01-0.02-0.01-0.05-0.02-0.08c-0.19-0.64-0.28-1.06-0.3-1.17c-0.19-0.46-3.77-8.48-12.87-14.46
				c-3.43-2.26-7.42-3.88-11.64-5.6c-6.2-2.51-12.58-5.1-17.09-9.89c-0.76-0.81-1.47-1.68-2.11-2.63
				c-7.17-10.5-18.24-22.09-21.93-24.47c-3.83-2.48-10.45-2.06-10.51-2.05c-0.12,0.01-0.22-0.07-0.24-0.18
				c-0.29-1.69,0.28-3.5,1.62-5.09c1.84-2.19,4.69-3.5,7.63-3.5c5.7,0,13.55,3.03,17.51,6.77c3.87,3.65,13.12,6.54,14.17,6.86
				c1.49-0.88,4.96,1.01,6.29,1.81c-1.53-5.45-0.91-7.55-0.67-8.08c-3.28-4.25-20.36-16.83-29.43-23.14h-0.01
				c-2.5-1.75-4.38-3.01-5.2-3.49c-4.23-2.49-7.73-10.28-7.05-15.72c0.22-1.77,0.9-3.04,2.01-3.78c0.96-0.64,2.05-0.76,2.85-0.73
				c0.68,0.02,1.16,0.14,1.21,0.15c0.04,0.02,0.08,0.04,0.11,0.07c0.08,0.11,8.57,10.18,11.51,11.76c1.44,0.77,9.1,4.64,16.38,8.24
				c1.11,0.55,2.21,1.1,3.28,1.62c0.02-1.55,0.09-7.63,0.5-9.49c0.28-1.24,2.26-3.01,4.51-4.04c1.05-0.48,3.03-1.17,4.43-0.41
				c0.55,0.31,1.85,1.11,3.65,2.23c0.88,0.54,1.9,1.18,3.02,1.86c0.38-0.55,1.57-2.17,2.32-2.61s4.9-1.21,6.38-0.69
				c1.29,0.47,5.43,3.1,9.81,5.88c0.62,0.39,1.25,0.79,1.89,1.19c0.23-0.43,0.77-1.33,1.28-1.53c1.95-0.79,5.11-0.95,6.75-0.36
				c1.48,0.54,6.56,4.29,11.48,7.92c2.7,2,5.29,3.91,6.99,5.06c0.06,0.02,0.11,0.05,0.14,0.1c0.49,0.33,0.9,0.59,1.21,0.77
				c3.62,2.07,12.52,48.75,12.61,49.22c0.58,3.13,2.7,6.36,4.94,9.78c2.19,3.34,4.67,7.13,6.16,11.49
				c2.85,8.33,9.34,20.52,18.85,35.42c0.86,1.35,1.75,2.72,2.66,4.11C447.58,352.42,450.32,356.48,453.01,360.4z"/>
			<path style="opacity:0.4;fill:#92E3A9;" d="M343.14,271.02c-1.91,1.51-15.77,0.08-17.47,4.74c-1,2.75-0.26,6.91,2.34,12.4
				c-0.76-0.81-1.47-1.68-2.11-2.63c-7.17-10.5-18.24-22.09-21.93-24.47c-3.83-2.48-10.45-2.06-10.51-2.05
				c-0.12,0.01-0.22-0.07-0.24-0.18c-0.29-1.69,0.28-3.5,1.62-5.09c1.84-2.19,4.69-3.5,7.63-3.5c5.7,0,13.55,3.03,17.51,6.77
				c3.87,3.65,13.12,6.54,14.17,6.86c1.49-0.88,4.96,1.01,6.29,1.81c-1.53-5.45-0.91-7.55-0.67-8.08
				c-3.28-4.25-20.36-16.83-29.43-23.14h-0.01c-2.5-1.75-4.38-3.01-5.2-3.49c-4.23-2.49-7.73-10.28-7.05-15.72
				c0.22-1.77,0.9-3.04,2.01-3.78c0.96-0.64,2.05-0.76,2.85-0.73c-0.63,0.24-1.26,0.61-1.88,1.14c-2.78,2.37,3.85,14.88,7.58,18.34
				c3.9,3.61,21.44,12.57,27.74,17.91c3.46,2.93,8,7.37,8,7.37C341.61,260.21,345.04,269.52,343.14,271.02z"/>
			<path style="fill:#92E3A9;" d="M407.54,194.53c-0.01-0.09-0.01-0.11,0.01-0.07C407.56,194.49,407.56,194.51,407.54,194.53z"/>
			<path style="opacity:0.4;fill:#92E3A9;" d="M442.35,344.37c-7.43-7.07-18.49-18.08-20.56-22.91c-3.16-7.4-5.27-14.23-9.2-19.21
				c-3.92-4.97-11.9-58.05-14.19-58.2c-2.23-0.16,2.88,20.98,3.15,22.08c-0.22-0.67-3.08-9.68-5.82-19.95
				c-2.84-10.67-5.71-11.25-5.71-11.25c-3.81,0.76-3.83,3.47-5.78,3.43c-1.94-0.04-8.64-4.79-8.64-4.79
				c-6.49,0.94-30.84-14.74-30.84-14.74c-5.54,0.75-6.84,5.59-2.11,10.13c4.74,4.55,11.8,10.07,11.8,10.07
				c-4.56,2.22-21.3-7.17-21.3-7.17l-1-0.9c1.11,0.55,2.21,1.1,3.28,1.62c0.02-1.55,0.09-7.63,0.5-9.49
				c0.28-1.24,2.26-3.01,4.51-4.04c1.05-0.48,3.03-1.17,4.43-0.41c0.55,0.31,1.85,1.11,3.65,2.23c0.88,0.54,1.9,1.18,3.02,1.86
				c0.38-0.55,1.57-2.17,2.32-2.61s4.9-1.21,6.38-0.69c1.29,0.47,5.43,3.1,9.81,5.88c0.62,0.39,1.25,0.79,1.89,1.19
				c0.23-0.43,0.77-1.33,1.28-1.53c1.95-0.79,5.11-0.95,6.75-0.36c1.48,0.54,6.56,4.29,11.48,7.92c2.7,2,5.29,3.91,6.99,5.06
				c0.06,0.02,0.11,0.05,0.14,0.1c0.49,0.33,0.9,0.59,1.21,0.77c3.62,2.07,12.52,48.75,12.61,49.22c0.58,3.13,2.7,6.36,4.94,9.78
				c2.19,3.34,4.67,7.13,6.16,11.49C426.35,317.28,432.84,329.47,442.35,344.37z"/>
			<g>
				<path style="fill:none;stroke:#263238;stroke-linecap:round;stroke-linejoin:round;stroke-miterlimit:10;" d="M403.62,392.578
					c0,0-21.99-58.793-27.313-63.422c-5.324-4.629-6.481-11.111-6.481-11.111s-3.472-8.333-12.962-14.582
					c-9.49-6.25-23.841-7.87-30.785-18.055c-6.944-10.185-18.055-21.99-21.99-24.536c-3.935-2.546-10.648-2.083-10.648-2.083
					c-0.694-3.935,3.704-8.333,9.027-8.333s13.194,2.778,17.36,6.713c4.166,3.935,14.351,6.944,14.351,6.944
					c1.62-1.157,6.626,2.054,6.626,2.054c-1.996-6.771-0.781-8.593-0.781-8.593c-3.935-5.324-30.843-24.478-34.778-26.793
					s-7.638-9.953-6.944-15.508c0.694-5.555,5.787-4.166,5.787-4.166s8.564,10.185,11.573,11.805s26.619,13.425,30.091,14.814
					c3.472,1.389,6.018-0.463,6.018-0.463"/>
				<path style="fill:none;stroke:#263238;stroke-linecap:round;stroke-linejoin:round;stroke-miterlimit:10;" d="M335.652,232.929
					c0,0,0.032-7.704,0.495-9.787c0.463-2.083,6.069-5.696,8.615-4.307c2.546,1.389,21.302,13.718,26.188,14.261"/>
				<path style="fill:none;stroke:#263238;stroke-linecap:round;stroke-linejoin:round;stroke-miterlimit:10;" d="M351.588,223.042
					c0,0,1.521-2.233,2.382-2.735c0.694-0.405,4.803-1.165,6.192-0.665c2.778,0.998,19.154,12.297,21.932,12.991"/>
				<path style="fill:none;stroke:#263238;stroke-linecap:round;stroke-linejoin:round;stroke-miterlimit:10;" d="M372.021,226.817
					c0,0,0.708-1.419,1.277-1.648c1.985-0.798,5.052-0.911,6.596-0.349c2.546,0.926,16.55,11.979,19.791,13.83
					c3.241,1.852,11.342,42.822,12.499,49.072c1.157,6.25,8.102,12.499,11.111,21.295c3.009,8.796,10.185,22.221,21.527,39.581
					c1.994,3.051,4.08,6.167,6.165,9.23"/>
				<path style="fill:none;stroke:#263238;stroke-linecap:round;stroke-linejoin:round;stroke-miterlimit:10;" d="M349.919,249.24
					c0,0,1.042-4.687,3.819-6.771c2.778-2.083,6.597,1.215,9.375,1.562"/>
				<path style="fill:none;stroke:#263238;stroke-linecap:round;stroke-linejoin:round;stroke-miterlimit:10;" d="M368.842,241.785
					c0,0,1.562-5.391,4.34-6.606c2.778-1.215,7.06,2.43,8.911,2.604"/>
				<path style="fill:none;stroke:#263238;stroke-linecap:round;stroke-linejoin:round;stroke-miterlimit:10;" d="M387.07,236.915
					c0,0,2.083-1.971,2.951-1.983c0.868-0.013,4.514,3.806,5.295,4.067c0.781,0.26,1.739-1.168,3.083-1.192"/>
				<path style="fill:none;stroke:#263238;stroke-linecap:round;stroke-linejoin:round;stroke-miterlimit:10;" d="M380.743,232.025
					c0,0,2.508-0.232,4.331,1.07"/>
				<path style="fill:none;stroke:#263238;stroke-linecap:round;stroke-linejoin:round;stroke-miterlimit:10;" d="M340.024,257.573
					c0,0-1.389-3.559-0.694-5.382"/>
				<path style="fill:none;stroke:#263238;stroke-linecap:round;stroke-linejoin:round;stroke-miterlimit:10;" d="M342.715,231.446
					c0,0,1.649,1.935,1.736,3.485s4.043,3.427,4.043,3.427"/>
				<path style="fill:none;stroke:#263238;stroke-linecap:round;stroke-linejoin:round;stroke-miterlimit:10;" d="M369.184,232.632
					c0,0,2.262-0.81,3.477,0"/>
				<path style="fill:none;stroke:#263238;stroke-linecap:round;stroke-linejoin:round;stroke-miterlimit:10;" d="M340.024,262.26
					c0,0-0.463-3.588,2.691-6.018"/>
				<path style="fill:none;stroke:#263238;stroke-linecap:round;stroke-linejoin:round;stroke-miterlimit:10;" d="M340.805,266.167
					c0,0-2.575,2.228-2.575,3.617"/>
				<path style="fill:none;stroke:#263238;stroke-linecap:round;stroke-linejoin:round;stroke-miterlimit:10;" d="M328.928,262.26
					c3.064,1.138,5.599,5.902,7.451,6.713"/>
				<path style="fill:none;stroke:#263238;stroke-linecap:round;stroke-linejoin:round;stroke-miterlimit:10;" d="M366.006,247.099
					c1.852,2.662,6.018,21.99,10.185,28.124"/>
				<path style="fill:none;stroke:#263238;stroke-linecap:round;stroke-linejoin:round;stroke-miterlimit:10;" d="M381.519,241.635
					c0.347,0.231,2.778,7.754,2.778,7.754"/>
				<path style="fill:none;stroke:#263238;stroke-linecap:round;stroke-linejoin:round;stroke-miterlimit:10;" d="M412.592,289.286
					c0.981,6.306,3.296,11.167,3.296,11.167"/>
				<path style="fill:none;stroke:#263238;stroke-linecap:round;stroke-linejoin:round;stroke-miterlimit:10;" d="M370.142,319.311
					c-0.317-1.267-1.657-9.6-3.302-12.377"/>
			</g>
		</g>
	</g>
</g>
<g id="Left_hand">
	<g>
		<path style="opacity:0.2;fill-opacity:0.7;" d="M89.893,449.289c0,0,32.536-43.75,57.074-51.761
			c24.538-8.011,25.752-18.878,24.75-39.159c-1.003-20.281-0.255-40.719-6.959-43.159c-6.703-2.44,8.083-28.916,0.981-39.414
			l-46.425,72.946L89.893,449.289z"/>
		<g>
			<path style="fill:#FFFFFF;" d="M82,461.48c-0.14-0.04-0.3-0.1-0.49-0.16c0.39,0.22,0.63,0.36,0.7,0.39
				C82.18,461.67,82.11,461.6,82,461.48z M161.1,327.27c-4.05-1.87-11.94-10.64-12.93-11.74c5.02-8.42,9.94-16.54,11.65-18.49
				c3.55-4.04,7.88-15.67,6.12-21.31c-1.61-5.18-6.88-4.35-7.6-4.21c-0.05,0.01-0.08,0.02-0.08,0.02c-0.06,0.01-0.1,0.04-0.13,0.09
				c-0.11,0.19-10.84,18.28-14.17,22.61c-1.59,2.06-5.25,6.75-8.96,11.45c-0.19-0.03-0.59-0.1-1.11-0.17
				c-1.72-0.21-4.88-0.47-7.05,0.2c-0.07,0.02-0.15,0.05-0.23,0.08c-0.77,0.29-1.98,0.94-3.43,1.82c-0.14-0.06-0.42-0.18-0.79-0.33
				c-1.58-0.66-4.85-1.93-6.4-2c-1.89-0.1-8.55,2.99-12.53,5.5c-0.62-0.2-4.39-1.33-8.42-1.17c-3.05,0.13-9.27,2.66-14.27,4.69
				c-2.22,0.9-4.14,1.68-5.26,2.03c-0.34,0.11-0.66,0.2-0.97,0.3c-2.98,0.89-4.62,1.39-6.7,5.55c-2.16,4.32-4.49,20.43-5.61,28.17
				l-0.15,1.05c-0.43,2.96-0.36,8.26-0.29,13.87c0.11,7.8,0.22,15.86-0.94,19.02c-1.73,4.69-4.29,8.41-6.16,11.12
				c-0.33,0.47-0.63,0.91-0.91,1.33c-1.76,2.61-2.62,4.91-3.71,7.81c-0.84,2.22-1.89,4.66-2.91,6.89c-1.88,4.13-3.63,7.54-3.63,7.54
				S78.91,458.05,82,461.48c0.31,0.11,0.49,0.16,0.51,0.16c0.12-0.2,6.66-11.38,13.59-22.41c5.97-9.52,12.23-18.93,14.9-21.09
				c4.38-3.55,6.58-8.44,7.66-11.92c1.44-4.63,10.63-10.34,19.52-15.86c9.83-6.1,19.98-12.41,20.34-17.63
				c0.19-2.7,0.81-7.17,1.53-12.36C162,346.31,164.42,328.8,161.1,327.27z M144.26,349.75l-4.37,4.28c-0.62-3.5-4.87-8.15-5.54-8.86
				c0.36-1.54,0.51-3.38,0.65-5.1c0.16-1.95,0.33-3.97,0.81-4.33c0.48-0.36,2.69-3.97,6.29-10.01c0.3,4.23,3.96,8.89,4.5,9.56
				L144.26,349.75z"/>
			<path style="opacity:0.4;fill:#92E3A9;" d="M92.37,336.76c-1.29,11.52-12.58,40.1-12.58,40.1l-2.04-28.79
				c0,0-8.71,39.07-11.16,40.48c-2.45,1.4-6.64,8.88-9.02,14.81c-1.59,3.99-7.01,6.72-10.41,8.09c1.02-2.23,2.07-4.67,2.91-6.89
				c1.09-2.9,1.95-5.2,3.71-7.81c0.28-0.42,0.58-0.86,0.91-1.33c1.87-2.71,4.43-6.43,6.16-11.12c1.16-3.16,1.05-11.22,0.94-19.02
				c-0.07-5.61-0.14-10.91,0.29-13.87l0.15-1.05c1.12-7.74,3.45-23.85,5.61-28.17c2.08-4.16,3.72-4.66,6.7-5.55
				c0.31-0.1,0.63-0.19,0.97-0.3c1.12-0.35,3.04-1.13,5.26-2.03c5-2.03,11.22-4.56,14.27-4.69c4.03-0.16,7.8,0.97,8.42,1.17
				c3.98-2.51,10.64-5.6,12.53-5.5c1.55,0.07,4.82,1.34,6.4,2c-6.59,3.47-17.76,11.75-17.76,11.75
				C91.96,321.74,92.37,336.76,92.37,336.76z"/>
			<path style="opacity:0.4;fill:#92E3A9;" d="M114.75,321.46c0,0,6.91-4.73,10.15-6.25c3.24-1.52,4.28-7.58,2-9.29
				c-0.08-0.06-0.17-0.1-0.29-0.12c0.08-0.03,0.16-0.06,0.23-0.08c2.17-0.67,5.33-0.41,7.05-0.2c-4.19,6.29-7.47,11.11-8.34,12.15
				C122.62,321.17,114.75,321.46,114.75,321.46z"/>
			<path style="opacity:0.4;fill:#92E3A9;" d="M131.28,360.93l1.53,0.66C131.88,365.3,131.28,360.93,131.28,360.93z"/>
			<path style="opacity:0.4;fill:#92E3A9;" d="M161.1,327.27c-4.05-1.87-11.94-10.64-12.93-11.74c5.02-8.42,9.94-16.54,11.65-18.49
				c3.55-4.04,7.88-15.67,6.12-21.31c-1.61-5.18-6.88-4.35-7.6-4.21l-0.03,0.22c0,0,5.7,0.71,5.69,8.95
				c-0.01,8.25-14.81,24.57-14.81,24.57s-15.22,28.55-16.23,28.12c-1.01-0.43-3.23,19.08-3.23,19.08s4.24,3.61,3.23,8.47
				c-0.05,0.24-0.1,0.46-0.15,0.66l6.52,2.81c0,0,6.54-4.59,9.86,2.16c3.33,6.74-31.88,30.87-34.65,34.43c0,0-0.39,13.45-5.53,15.43
				c-3.33,1.28-9.2,14-12.91,22.81c5.97-9.52,12.23-18.93,14.9-21.09c4.38-3.55,6.58-8.44,7.66-11.92
				c1.44-4.63,10.63-10.34,19.52-15.86c9.83-6.1,19.98-12.41,20.34-17.63c0.19-2.7,0.81-7.17,1.53-12.36
				C162,346.31,164.42,328.8,161.1,327.27z M144.26,349.75l-4.37,4.28c-0.62-3.5-4.87-8.15-5.54-8.86c0.36-1.54,0.51-3.38,0.65-5.1
				c0.16-1.95,0.33-3.97,0.81-4.33c0.48-0.36,2.69-3.97,6.29-10.01c0.3,4.23,3.96,8.89,4.5,9.56L144.26,349.75z"/>
			<g>
				<path style="fill:none;stroke:#263238;stroke-linecap:round;stroke-linejoin:round;stroke-miterlimit:10;" d="M118.46,321.725
					c0,0,4.052-0.675,7.092-4.052c3.039-3.377,15.197-18.912,18.574-23.302c3.377-4.39,14.184-22.627,14.184-22.627
					s5.741-1.351,7.43,4.052c1.688,5.403-2.364,16.88-6.079,21.104c-3.715,4.224-22.627,37.658-23.977,38.671
					c-1.351,1.013-0.338,10.482-3.039,12.502"/>
				<path style="fill:none;stroke:#263238;stroke-linecap:round;stroke-linejoin:round;stroke-miterlimit:10;" d="M134.111,345.231
					c0,0,5.287,5.537,5.625,9.251l4.728-4.626l2.364-14.624c0,0-4.671-5.628-4.531-10.244"/>
				<path style="fill:none;stroke:#263238;stroke-linecap:round;stroke-linejoin:round;stroke-miterlimit:10;" d="M147.907,315.556
					c0,0,8.714,9.884,13.104,11.91c4.39,2.026-2.026,35.46-2.702,45.253c-0.675,9.794-36.807,23.623-39.85,33.434
					c-1.209,3.899-3.491,8.494-7.599,11.82c-5.86,4.745-28.537,43.565-28.537,43.565"/>
				<path style="fill:none;stroke:#263238;stroke-linecap:round;stroke-linejoin:round;stroke-miterlimit:10;" d="M135.093,305.92
					c0,0-5.151-0.946-8.19,0s-15.872,10.064-18.912,11.753c-3.039,1.688-7.43,2.026-8.443,4.052"/>
				<path style="fill:none;stroke:#263238;stroke-linecap:round;stroke-linejoin:round;stroke-miterlimit:10;" d="M123.196,307.855
					c0,0-5.187-2.259-7.213-2.356c-2.026-0.097-10.131,3.73-13.846,6.432c-3.715,2.702-7.317,4.053-9.456,4.615"/>
				<path style="fill:none;stroke:#263238;stroke-linecap:round;stroke-linejoin:round;stroke-miterlimit:10;" d="M103.484,311.022
					c0,0-4.049-1.373-8.439-1.189c-4.39,0.185-15.872,5.588-19.475,6.714c-3.602,1.126-5.291,1.238-7.542,5.741
					c-2.251,4.503-4.728,22.176-5.741,29.156c-1.013,6.979,0.788,27.411-1.238,32.927c-2.026,5.516-5.159,9.621-7.092,12.495
					c-3.849,5.724-3.416,10.042-10.429,22.129"/>
				<path style="fill:none;stroke:#263238;stroke-linecap:round;stroke-linejoin:round;stroke-miterlimit:10;" d="M95.327,323.244
					c-4.39,3.884-3.574,11.319-2.955,13.514c0.619,2.195-2.111,10.97-2.955,15.698"/>
				<path style="fill:none;stroke:#263238;stroke-linecap:round;stroke-linejoin:round;stroke-miterlimit:10;" d="M123.196,326.959
					c-7.945,0.169-10.478,5.572-10.984,9.118"/>
				<path style="fill:none;stroke:#263238;stroke-linecap:round;stroke-linejoin:round;stroke-miterlimit:10;" d="M89.417,319.023
					c-2.364-0.169-8.443,3.546-9.625,9.625"/>
				<path style="fill:none;stroke:#263238;stroke-linecap:round;stroke-linejoin:round;stroke-miterlimit:10;" d="M146.828,335.233
					c0,0,1.182-3.377,2.364-3.715"/>
				<path style="fill:none;stroke:#263238;stroke-linecap:round;stroke-linejoin:round;stroke-miterlimit:10;" d="M144.464,349.857
					c0,0-1.125,3.781-2.167,5.808c-1.041,2.026,0,5.189,0,5.189"/>
				<path style="fill:none;stroke:#263238;stroke-linecap:round;stroke-linejoin:round;stroke-miterlimit:10;" d="M139.736,354.483
					c-0.169,3.377-3.882,7.002-4.643,6.371"/>
				<path style="fill:none;stroke:#263238;stroke-linecap:round;stroke-linejoin:round;stroke-miterlimit:10;" d="M107.939,348.742
					c-0.117,3.715-6.871,30.901-6.871,30.901"/>
			</g>
		</g>
	</g>
</g>
</svg>
