<?xml version="1.0" encoding="utf-8"?>
<!-- Generator: Adobe Illustrator 27.5.0, SVG Export Plug-In . SVG Version: 6.00 Build 0)  -->
<svg version="1.1" xmlns="http://www.w3.org/2000/svg" xmlns:xlink="http://www.w3.org/1999/xlink" x="0px" y="0px"
	 viewBox="0 0 750 500" style="enable-background:new 0 0 750 500;" xml:space="preserve">
<g id="Background_Simple">
	<g>
		<path style="fill:#92E3A9;" d="M286.182,112.488c97.474-47.994,197.73-110.752,310.967-85.069
			c35.11,7.963,67.062,27.87,88.661,56.811c57.753,77.387,53.057,195.92,21.679,283.033c-4.095,11.368-9.208,22.393-15.787,32.547
			c-31.847,49.154-85.513,51.47-137.276,37.259c-43.805-12.026-82.614-24.399-127.864-12.17
			c-25.063,6.773-49.35,16.082-74.321,23.167c-33.997,9.646-69.046,16.199-104.452,16.862
			C154.12,466.684,47.122,418.9,38.823,314.297c-0.538-6.779-0.633-13.592-0.328-20.385c1.871-41.759,15.672-83.579,53.925-105.26
			c38.459-21.798,84.089-30.416,125.228-45.876C241.041,133.985,263.74,123.538,286.182,112.488z"/>
		<path style="opacity:0.7;fill:#FFFFFF;" d="M286.182,112.488c97.474-47.994,197.73-110.752,310.967-85.069
			c35.11,7.963,67.062,27.87,88.661,56.811c57.753,77.387,53.057,195.92,21.679,283.033c-4.095,11.368-9.208,22.393-15.787,32.547
			c-31.847,49.154-85.513,51.47-137.276,37.259c-43.805-12.026-82.614-24.399-127.864-12.17
			c-25.063,6.773-49.35,16.082-74.321,23.167c-33.997,9.646-69.046,16.199-104.452,16.862
			C154.12,466.684,47.122,418.9,38.823,314.297c-0.538-6.779-0.633-13.592-0.328-20.385c1.871-41.759,15.672-83.579,53.925-105.26
			c38.459-21.798,84.089-30.416,125.228-45.876C241.041,133.985,263.74,123.538,286.182,112.488z"/>
	</g>
</g>
<g id="Floor">
	
		<line style="fill:none;stroke:#263238;stroke-linecap:round;stroke-linejoin:round;stroke-miterlimit:10;" x1="29.706" y1="468.525" x2="718.572" y2="468.525"/>
</g>
<g id="Plants">
	<g>
		<g>
			<path style="fill:#92E3A9;stroke:#263238;stroke-linecap:round;stroke-linejoin:round;stroke-miterlimit:10;" d="M51.321,327.928
				c0,0-2.337,6.428-7.305,7.305c-4.967,0.877-13.733-8.765-8.181-13.733C41.387,316.533,48.983,324.422,51.321,327.928z"/>
			<path style="fill:#92E3A9;stroke:#263238;stroke-linecap:round;stroke-linejoin:round;stroke-miterlimit:10;" d="M58.917,296.372
				c0,0-7.305,17.823-4.383,26.589c2.922,8.766,21.037,15.194,26.297,3.798c5.259-11.395-6.428-27.465-10.811-30.971
				C65.638,292.281,60.378,293.45,58.917,296.372z"/>
			<path style="fill:#92E3A9;stroke:#263238;stroke-linecap:round;stroke-linejoin:round;stroke-miterlimit:10;" d="
				M101.576,303.969c0,0-12.564,11.395-14.025,22.79c-1.461,11.395,7.012,15.486,15.778,14.025
				c8.765-1.461,13.148-23.667,10.519-33.893C111.218,296.664,101.576,303.969,101.576,303.969z"/>
			<g>
				<path style="fill:#92E3A9;stroke:#263238;stroke-linecap:round;stroke-linejoin:round;stroke-miterlimit:10;" d="
					M103.914,367.08c0,0-14.025,0.585-14.609,7.305c-0.584,6.72,6.136,8.181,12.856,2.337
					C108.881,370.879,109.757,367.373,103.914,367.08z"/>
				<path style="fill:none;stroke:#263238;stroke-miterlimit:10;" d="M89.537,375.987c0,0,11.053-5.057,16.031-5.935"/>
			</g>
			<g>
				<path style="fill:#92E3A9;stroke:#263238;stroke-linecap:round;stroke-linejoin:round;stroke-miterlimit:10;" d="
					M107.04,411.053c0,0-10.302-9.534-15.48-5.211c-5.178,4.323-1.477,10.119,7.405,10.766
					C107.848,417.254,110.953,415.404,107.04,411.053z"/>
				<path style="fill:none;stroke:#263238;stroke-miterlimit:10;" d="M90.588,407.135c0,0,11.379,4.274,15.511,7.185"/>
			</g>
			<g>
				<path style="fill:#92E3A9;stroke:#263238;stroke-linecap:round;stroke-linejoin:round;stroke-miterlimit:10;" d="
					M52.699,408.245c0,0,14.201-13.143,21.339-7.184c7.138,5.96,2.035,13.949-10.209,14.84
					C51.586,416.793,47.306,414.242,52.699,408.245z"/>
				<path style="fill:none;stroke:#263238;stroke-miterlimit:10;" d="M75.378,402.845c0,0-15.685,5.892-21.381,9.904"/>
			</g>
			<path style="fill:#92E3A9;stroke:#263238;stroke-linecap:round;stroke-linejoin:round;stroke-miterlimit:10;" d="M69.144,381.105
				c0,0-1.461,7.012-6.72,9.642c-5.259,2.63-14.609-2.922-9.642-11.395C57.749,370.879,66.514,377.599,69.144,381.105z"/>
			<path style="fill:#92E3A9;stroke:#263238;stroke-linecap:round;stroke-linejoin:round;stroke-miterlimit:10;" d="M56.872,359.192
				c0,0-2.63-5.844-12.856-2.045c-10.226,3.798-14.317,9.642-7.889,11.687C42.555,370.879,56.872,359.192,56.872,359.192z"/>
			<path style="fill:none;stroke:#263238;stroke-miterlimit:10;" d="M54.914,358.925c0,0-10.833,1.171-16.689,6.149"/>
			<path style="fill:#92E3A9;stroke:#263238;stroke-linecap:round;stroke-linejoin:round;stroke-miterlimit:10;" d="M86.09,289.068
				c0,0,1.753,4.091,5.259,3.214c3.506-0.876,4.383-6.136,9.934-4.675c5.552,1.461,10.226,7.889,10.226,4.967
				s-7.012-10.519-14.901-10.519C88.72,282.055,86.383,285.269,86.09,289.068z"/>
			<path style="fill:none;stroke:#263238;stroke-miterlimit:10;" d="M56.872,359.192c0,0,12.581-2.415,17.82,11.556
				c0.514,1.371,0.948,2.805,1.313,4.276"/>
			<path style="fill:#92E3A9;stroke:#263238;stroke-linecap:round;stroke-linejoin:round;stroke-miterlimit:10;" d="
				M109.379,345.657c0,0,2.63-5.844,12.856-2.045c10.226,3.798,14.317,9.642,7.889,11.687
				C123.696,357.344,109.379,345.657,109.379,345.657z"/>
			<path style="fill:none;stroke:#263238;stroke-miterlimit:10;" d="M111.716,346.042c0,0,10.541-0.586,15.518,5.563"/>
			<path style="fill:none;stroke:#263238;stroke-miterlimit:10;" d="M109.379,345.657c0,0-4.17-0.801-8.709,1.187"/>
			<path style="fill:none;stroke:#263238;stroke-miterlimit:10;" d="M63.579,335.175c-6.167-6.297-12.258-7.248-12.258-7.248
				s-8.997-2.381-12.51,0.84"/>
			<g>
				<line style="fill:none;stroke:#263238;stroke-miterlimit:10;" x1="64.83" y1="302.809" x2="64.283" y2="300.367"/>
				<path style="fill:none;stroke:#263238;stroke-miterlimit:10;" d="M79.059,431.98c0,0,1.31-50.318,0-65.598
					c-1.31-15.281-7.422-33.181-7.422-33.181l-6.227-27.804"/>
				<line style="fill:none;stroke:#263238;stroke-miterlimit:10;" x1="105.027" y1="313.612" x2="106.153" y2="311.2"/>
				<path style="fill:none;stroke:#263238;stroke-miterlimit:10;" d="M82.114,431.924c0,0,0.437-45.896,2.183-58.994
					c1.746-13.098,8.732-33.618,8.732-33.618l10.72-22.965"/>
				<path style="fill:none;stroke:#263238;stroke-miterlimit:10;" d="M89.537,375.987c0,0-3.056,26.313-4.802,56.001"/>
				<path style="fill:none;stroke:#263238;stroke-miterlimit:10;" d="M74.692,431.924c0,0,0.873-41.967-0.873-47.643
					c-1.746-5.676-4.676-3.177-4.676-3.177s-8.081,0.951-11.009,5.635"/>
				<path style="fill:none;stroke:#263238;stroke-miterlimit:10;" d="M76.698,378.292c2.284,12.799,0.177,53.676,0.177,53.676"/>
				<path style="fill:none;stroke:#263238;stroke-miterlimit:10;" d="M98.195,348.216c-2.529,1.731-4.959,4.524-6.636,8.997
					c-5.239,13.971-4.642,74.775-4.642,74.775"/>
				<path style="fill:none;stroke:#263238;stroke-miterlimit:10;" d="M65.099,336.841c2.729,3.205,5.376,7.538,7.41,13.386
					c6.986,20.083,9.605,72.092,8.295,81.697"/>
				<path style="fill:none;stroke:#263238;stroke-miterlimit:10;" d="M82.841,355.636c-0.425,25.347-0.726,76.288-0.726,76.288"/>
			</g>
			<path style="fill:none;stroke:#263238;stroke-miterlimit:10;" d="M82.894,352.482c0.288-16.76,0.627-33.163,0.967-41.985
				c0.873-22.703,2.229-21.43,2.229-21.43s1.616-5.097,10.693-4.512"/>
			<g>
				<path style="fill:#92E3A9;stroke:#263238;stroke-linecap:round;stroke-linejoin:round;stroke-miterlimit:10;" d="
					M71.713,371.622c0,0-7.305-6.514-4.383-9.717c2.922-3.204,21.037-5.553,26.297-1.388c5.259,4.165-6.428,10.038-10.811,11.319
					C78.434,373.117,73.174,372.69,71.713,371.622z"/>
				<path style="fill:none;stroke:#263238;stroke-miterlimit:10;" d="M78.459,366.289c-0.102,0.659-0.162,1.315-0.162,1.945"/>
				<path style="fill:none;stroke:#263238;stroke-miterlimit:10;" d="M80.971,358.684c0,0-1.087,2.174-1.875,4.839"/>
			</g>
			<g>
				<path style="fill:#92E3A9;stroke:#263238;stroke-linecap:round;stroke-linejoin:round;stroke-miterlimit:10;" d="
					M71.713,414.212c0,0-7.305-6.514-4.383-9.718c2.922-3.203,21.037-5.553,26.297-1.388c5.259,4.165-6.428,10.038-10.811,11.319
					C78.434,415.707,73.174,415.28,71.713,414.212z"/>
				<path style="fill:none;stroke:#263238;stroke-miterlimit:10;" d="M80.971,401.274c0,0-2.674,5.348-2.674,9.549"/>
			</g>
			<g>
				<path style="fill:#92E3A9;stroke:#263238;stroke-linecap:round;stroke-linejoin:round;stroke-miterlimit:10;" d="M77.151,396.2
					c0,0-4.959-4.423-2.976-6.598c1.984-2.175,14.283-3.77,17.854-0.943c3.571,2.828-4.364,6.815-7.34,7.685
					C81.714,397.215,78.143,396.925,77.151,396.2z"/>
				<path style="fill:none;stroke:#263238;stroke-miterlimit:10;" d="M83.437,387.415c0,0-1.815,3.631-1.815,6.484"/>
			</g>
		</g>
		
			<rect x="70.291" y="424.68" style="fill:#263238;stroke:#263238;stroke-linecap:round;stroke-linejoin:round;stroke-miterlimit:10;" width="19.773" height="43.845"/>
	</g>
	<g>
		<g>
			<path style="fill:#92E3A9;stroke:#263238;stroke-linecap:round;stroke-linejoin:round;stroke-miterlimit:10;" d="
				M647.843,327.928c0,0-2.337,6.428-7.305,7.305c-4.967,0.877-13.733-8.765-8.181-13.733
				C637.909,316.533,645.506,324.422,647.843,327.928z"/>
			<path style="fill:#92E3A9;stroke:#263238;stroke-linecap:round;stroke-linejoin:round;stroke-miterlimit:10;" d="M655.44,296.372
				c0,0-7.305,17.823-4.383,26.589c2.922,8.766,21.037,15.194,26.297,3.798c5.259-11.395-6.428-27.465-10.811-30.971
				C662.16,292.281,656.901,293.45,655.44,296.372z"/>
			<path style="fill:#92E3A9;stroke:#263238;stroke-linecap:round;stroke-linejoin:round;stroke-miterlimit:10;" d="
				M698.099,303.969c0,0-12.564,11.395-14.025,22.79c-1.461,11.395,7.012,15.486,15.778,14.025
				c8.765-1.461,13.148-23.667,10.519-33.893C707.741,296.664,698.099,303.969,698.099,303.969z"/>
			<g>
				<path style="fill:#92E3A9;stroke:#263238;stroke-linecap:round;stroke-linejoin:round;stroke-miterlimit:10;" d="
					M700.436,367.08c0,0-14.025,0.585-14.609,7.305c-0.584,6.72,6.136,8.181,12.856,2.337
					C705.404,370.879,706.28,367.373,700.436,367.08z"/>
				<path style="fill:none;stroke:#263238;stroke-miterlimit:10;" d="M686.059,375.987c0,0,11.053-5.057,16.031-5.935"/>
			</g>
			<g>
				<path style="fill:#92E3A9;stroke:#263238;stroke-linecap:round;stroke-linejoin:round;stroke-miterlimit:10;" d="
					M703.563,411.053c0,0-10.302-9.534-15.48-5.211c-5.178,4.323-1.477,10.119,7.405,10.766
					C704.371,417.254,707.475,415.404,703.563,411.053z"/>
				<path style="fill:none;stroke:#263238;stroke-miterlimit:10;" d="M687.111,407.135c0,0,11.379,4.274,15.511,7.185"/>
			</g>
			<g>
				<path style="fill:#92E3A9;stroke:#263238;stroke-linecap:round;stroke-linejoin:round;stroke-miterlimit:10;" d="
					M649.222,408.245c0,0,14.201-13.143,21.339-7.184c7.138,5.96,2.035,13.949-10.208,14.84
					C648.108,416.793,643.828,414.242,649.222,408.245z"/>
				<path style="fill:none;stroke:#263238;stroke-miterlimit:10;" d="M671.901,402.845c0,0-15.685,5.892-21.381,9.904"/>
			</g>
			<path style="fill:#92E3A9;stroke:#263238;stroke-linecap:round;stroke-linejoin:round;stroke-miterlimit:10;" d="
				M665.667,381.105c0,0-1.461,7.012-6.72,9.642c-5.259,2.63-14.609-2.922-9.642-11.395
				C654.271,370.879,663.037,377.599,665.667,381.105z"/>
			<path style="fill:#92E3A9;stroke:#263238;stroke-linecap:round;stroke-linejoin:round;stroke-miterlimit:10;" d="
				M653.395,359.192c0,0-2.63-5.844-12.856-2.045c-10.226,3.798-14.317,9.642-7.889,11.687
				C639.078,370.879,653.395,359.192,653.395,359.192z"/>
			<path style="fill:none;stroke:#263238;stroke-miterlimit:10;" d="M651.437,358.925c0,0-10.833,1.171-16.689,6.149"/>
			<path style="fill:#92E3A9;stroke:#263238;stroke-linecap:round;stroke-linejoin:round;stroke-miterlimit:10;" d="
				M682.613,289.068c0,0,1.753,4.091,5.259,3.214c3.506-0.876,4.383-6.136,9.934-4.675c5.552,1.461,10.226,7.889,10.226,4.967
				s-7.012-10.519-14.901-10.519C685.243,282.055,682.905,285.269,682.613,289.068z"/>
			<path style="fill:none;stroke:#263238;stroke-miterlimit:10;" d="M653.395,359.192c0,0,12.581-2.415,17.82,11.556
				c0.514,1.371,0.948,2.805,1.313,4.276"/>
			<path style="fill:#92E3A9;stroke:#263238;stroke-linecap:round;stroke-linejoin:round;stroke-miterlimit:10;" d="
				M705.902,345.657c0,0,2.63-5.844,12.856-2.045c10.226,3.798,14.317,9.642,7.889,11.687
				C720.219,357.344,705.902,345.657,705.902,345.657z"/>
			<path style="fill:none;stroke:#263238;stroke-miterlimit:10;" d="M708.239,346.042c0,0,10.54-0.586,15.518,5.563"/>
			<path style="fill:none;stroke:#263238;stroke-miterlimit:10;" d="M705.902,345.657c0,0-4.171-0.801-8.709,1.187"/>
			<path style="fill:none;stroke:#263238;stroke-miterlimit:10;" d="M660.102,335.175c-6.167-6.297-12.258-7.248-12.258-7.248
				s-8.997-2.381-12.51,0.84"/>
			<g>
				<line style="fill:none;stroke:#263238;stroke-miterlimit:10;" x1="661.353" y1="302.809" x2="660.806" y2="300.367"/>
				<path style="fill:none;stroke:#263238;stroke-miterlimit:10;" d="M675.581,431.98c0,0,1.31-50.318,0-65.598
					c-1.31-15.281-7.422-33.181-7.422-33.181l-6.226-27.804"/>
				<line style="fill:none;stroke:#263238;stroke-miterlimit:10;" x1="701.55" y1="313.612" x2="702.676" y2="311.2"/>
				<path style="fill:none;stroke:#263238;stroke-miterlimit:10;" d="M678.637,431.924c0,0,0.437-45.896,2.183-58.994
					c1.746-13.098,8.732-33.618,8.732-33.618l10.72-22.965"/>
				<path style="fill:none;stroke:#263238;stroke-miterlimit:10;" d="M686.059,375.987c0,0-3.056,26.313-4.802,56.001"/>
				<path style="fill:none;stroke:#263238;stroke-miterlimit:10;" d="M671.215,431.924c0,0,0.873-41.967-0.873-47.643
					c-1.746-5.676-4.676-3.177-4.676-3.177s-8.081,0.951-11.009,5.635"/>
				<path style="fill:none;stroke:#263238;stroke-miterlimit:10;" d="M673.221,378.292c2.284,12.799,0.177,53.676,0.177,53.676"/>
				<path style="fill:none;stroke:#263238;stroke-miterlimit:10;" d="M694.718,348.216c-2.529,1.731-4.959,4.524-6.636,8.997
					c-5.239,13.971-4.642,74.775-4.642,74.775"/>
				<path style="fill:none;stroke:#263238;stroke-miterlimit:10;" d="M661.622,336.841c2.729,3.205,5.376,7.538,7.41,13.386
					c6.985,20.083,9.605,72.092,8.295,81.697"/>
				<path style="fill:none;stroke:#263238;stroke-miterlimit:10;" d="M679.363,355.636c-0.425,25.347-0.726,76.288-0.726,76.288"/>
			</g>
			<path style="fill:none;stroke:#263238;stroke-miterlimit:10;" d="M679.417,352.482c0.288-16.76,0.627-33.163,0.967-41.985
				c0.873-22.703,2.229-21.43,2.229-21.43s1.616-5.097,10.693-4.512"/>
			<g>
				<path style="fill:#92E3A9;stroke:#263238;stroke-linecap:round;stroke-linejoin:round;stroke-miterlimit:10;" d="
					M668.236,371.622c0,0-7.305-6.514-4.383-9.717c2.922-3.204,21.037-5.553,26.297-1.388c5.259,4.165-6.428,10.038-10.811,11.319
					C674.956,373.117,669.697,372.69,668.236,371.622z"/>
				<path style="fill:none;stroke:#263238;stroke-miterlimit:10;" d="M674.982,366.289c-0.102,0.659-0.162,1.315-0.162,1.945"/>
				<path style="fill:none;stroke:#263238;stroke-miterlimit:10;" d="M677.494,358.684c0,0-1.087,2.174-1.875,4.839"/>
			</g>
			<g>
				<path style="fill:#92E3A9;stroke:#263238;stroke-linecap:round;stroke-linejoin:round;stroke-miterlimit:10;" d="
					M668.236,414.212c0,0-7.305-6.514-4.383-9.718c2.922-3.203,21.037-5.553,26.297-1.388c5.259,4.165-6.428,10.038-10.811,11.319
					C674.956,415.707,669.697,415.28,668.236,414.212z"/>
				<path style="fill:none;stroke:#263238;stroke-miterlimit:10;" d="M677.494,401.274c0,0-2.674,5.348-2.674,9.549"/>
			</g>
			<g>
				<path style="fill:#92E3A9;stroke:#263238;stroke-linecap:round;stroke-linejoin:round;stroke-miterlimit:10;" d="M673.674,396.2
					c0,0-4.96-4.423-2.976-6.598c1.984-2.175,14.283-3.77,17.854-0.943c3.571,2.828-4.364,6.815-7.34,7.685
					C678.237,397.215,674.666,396.925,673.674,396.2z"/>
				<path style="fill:none;stroke:#263238;stroke-miterlimit:10;" d="M679.959,387.415c0,0-1.815,3.631-1.815,6.484"/>
			</g>
		</g>
		
			<rect x="666.813" y="424.68" style="fill:#263238;stroke:#263238;stroke-linecap:round;stroke-linejoin:round;stroke-miterlimit:10;" width="19.773" height="43.845"/>
	</g>
</g>
<g id="Screen_3">
	<g>
		
			<rect x="491.849" y="60.423" style="fill:#263238;stroke:#263238;stroke-linecap:round;stroke-linejoin:round;stroke-miterlimit:10;" width="201.256" height="149.7"/>
		
			<rect x="497.564" y="64.674" style="fill:#FFFFFF;stroke:#263238;stroke-linecap:round;stroke-linejoin:round;stroke-miterlimit:10;" width="189.826" height="141.197"/>
	</g>
</g>
<g id="Screen_2">
	<g>
		
			<rect x="266.368" y="60.423" style="fill:#263238;stroke:#263238;stroke-linecap:round;stroke-linejoin:round;stroke-miterlimit:10;" width="220.512" height="149.7"/>
		
			<rect x="272.63" y="64.674" style="fill:#FFFFFF;stroke:#263238;stroke-linecap:round;stroke-linejoin:round;stroke-miterlimit:10;" width="207.988" height="141.197"/>
	</g>
</g>
<g id="Screen_1">
	<g>
		
			<rect x="60.764" y="60.423" style="fill:#263238;stroke:#263238;stroke-linecap:round;stroke-linejoin:round;stroke-miterlimit:10;" width="201.256" height="149.7"/>
		
			<rect x="66.479" y="64.674" style="fill:#FFFFFF;stroke:#263238;stroke-linecap:round;stroke-linejoin:round;stroke-miterlimit:10;" width="189.826" height="141.197"/>
	</g>
</g>
<g id="Chart_3">
	<g>
		<g>
			
				<line style="fill:none;stroke:#263238;stroke-linecap:round;stroke-linejoin:round;stroke-miterlimit:10;" x1="506.776" y1="90.32" x2="527.471" y2="90.32"/>
			
				<line style="fill:none;stroke:#263238;stroke-linecap:round;stroke-linejoin:round;stroke-miterlimit:10;" x1="506.776" y1="94.918" x2="527.471" y2="94.918"/>
			
				<line style="fill:none;stroke:#263238;stroke-linecap:round;stroke-linejoin:round;stroke-miterlimit:10;" x1="506.776" y1="99.517" x2="527.471" y2="99.517"/>
		</g>
		<g>
			
				<line style="fill:none;stroke:#263238;stroke-linecap:round;stroke-linejoin:round;stroke-miterlimit:10;" x1="632.311" y1="182.417" x2="653.006" y2="182.417"/>
			
				<line style="fill:none;stroke:#263238;stroke-linecap:round;stroke-linejoin:round;stroke-miterlimit:10;" x1="632.311" y1="187.016" x2="653.006" y2="187.016"/>
			
				<line style="fill:none;stroke:#263238;stroke-linecap:round;stroke-linejoin:round;stroke-miterlimit:10;" x1="632.311" y1="191.615" x2="653.006" y2="191.615"/>
		</g>
		<g>
			
				<line style="fill:none;stroke:#263238;stroke-linecap:round;stroke-linejoin:round;stroke-miterlimit:10;" x1="506.776" y1="156.607" x2="527.471" y2="156.607"/>
			
				<line style="fill:none;stroke:#263238;stroke-linecap:round;stroke-linejoin:round;stroke-miterlimit:10;" x1="506.776" y1="161.205" x2="527.471" y2="161.205"/>
			
				<line style="fill:none;stroke:#263238;stroke-linecap:round;stroke-linejoin:round;stroke-miterlimit:10;" x1="506.776" y1="165.804" x2="527.471" y2="165.804"/>
		</g>
		<path style="fill:#FFFFFF;stroke:#263238;stroke-linecap:round;stroke-linejoin:round;stroke-miterlimit:10;" d="M622.728,82.241
			c-26.566,0-48.102,21.536-48.102,48.102c0,26.566,21.536,48.102,48.102,48.102c26.566,0,48.102-21.536,48.102-48.102
			C670.83,103.777,649.294,82.241,622.728,82.241z M622.728,149.654c-10.665,0-19.311-8.646-19.311-19.311
			c0-10.665,8.646-19.311,19.311-19.311c10.665,0,19.311,8.646,19.311,19.311C642.04,141.008,633.394,149.654,622.728,149.654z"/>
		<polygon style="fill:#92E3A9;stroke:#263238;stroke-linecap:round;stroke-linejoin:round;stroke-miterlimit:10;" points="
			622.728,130.343 587.531,85.174 608.65,75.788 		"/>
		<polygon style="fill:#92E3A9;stroke:#263238;stroke-linecap:round;stroke-linejoin:round;stroke-miterlimit:10;" points="
			622.728,130.343 578.146,168.473 588.705,176.685 		"/>
		<polygon style="fill:#92E3A9;stroke:#263238;stroke-linecap:round;stroke-linejoin:round;stroke-miterlimit:10;" points="
			622.728,130.343 665.551,176.685 680.803,138.556 		"/>
		<polyline style="fill:#FFFFFF;stroke:#263238;stroke-linecap:round;stroke-linejoin:round;stroke-miterlimit:10;" points="
			591.638,78.721 588.705,72.855 514.792,72.855 514.792,84.587 		"/>
		<polyline style="fill:#FFFFFF;stroke:#263238;stroke-linecap:round;stroke-linejoin:round;stroke-miterlimit:10;" points="
			578.732,174.926 572.866,180.792 514.792,180.792 514.792,171.406 		"/>
		
			<line style="fill:#FFFFFF;stroke:#263238;stroke-linecap:round;stroke-linejoin:round;stroke-miterlimit:10;" x1="657.338" y1="160.26" x2="657.338" y2="187.244"/>
	</g>
</g>
<g id="Chart_2">
	<g>
		<g>
			<g>
				
					<line style="fill:none;stroke:#263238;stroke-linecap:round;stroke-linejoin:round;stroke-miterlimit:10;" x1="285.829" y1="182.911" x2="470.162" y2="182.911"/>
				
					<line style="fill:none;stroke:#263238;stroke-linecap:round;stroke-linejoin:round;stroke-miterlimit:10;" x1="295.793" y1="183.678" x2="295.793" y2="180.612"/>
				
					<line style="fill:none;stroke:#263238;stroke-linecap:round;stroke-linejoin:round;stroke-miterlimit:10;" x1="309.206" y1="183.678" x2="309.206" y2="180.612"/>
				
					<line style="fill:none;stroke:#263238;stroke-linecap:round;stroke-linejoin:round;stroke-miterlimit:10;" x1="322.619" y1="183.678" x2="322.619" y2="180.612"/>
				
					<line style="fill:none;stroke:#263238;stroke-linecap:round;stroke-linejoin:round;stroke-miterlimit:10;" x1="336.032" y1="183.678" x2="336.032" y2="180.612"/>
				
					<line style="fill:none;stroke:#263238;stroke-linecap:round;stroke-linejoin:round;stroke-miterlimit:10;" x1="349.445" y1="183.678" x2="349.445" y2="180.612"/>
				
					<line style="fill:none;stroke:#263238;stroke-linecap:round;stroke-linejoin:round;stroke-miterlimit:10;" x1="362.858" y1="183.678" x2="362.858" y2="180.612"/>
				
					<line style="fill:none;stroke:#263238;stroke-linecap:round;stroke-linejoin:round;stroke-miterlimit:10;" x1="376.271" y1="183.678" x2="376.271" y2="180.612"/>
				
					<line style="fill:none;stroke:#263238;stroke-linecap:round;stroke-linejoin:round;stroke-miterlimit:10;" x1="389.684" y1="183.678" x2="389.684" y2="180.612"/>
				
					<line style="fill:none;stroke:#263238;stroke-linecap:round;stroke-linejoin:round;stroke-miterlimit:10;" x1="403.097" y1="183.678" x2="403.097" y2="180.612"/>
				
					<line style="fill:none;stroke:#263238;stroke-linecap:round;stroke-linejoin:round;stroke-miterlimit:10;" x1="416.51" y1="183.678" x2="416.51" y2="180.612"/>
				
					<line style="fill:none;stroke:#263238;stroke-linecap:round;stroke-linejoin:round;stroke-miterlimit:10;" x1="429.923" y1="183.678" x2="429.923" y2="180.612"/>
				
					<line style="fill:none;stroke:#263238;stroke-linecap:round;stroke-linejoin:round;stroke-miterlimit:10;" x1="443.336" y1="183.678" x2="443.336" y2="180.612"/>
				
					<line style="fill:none;stroke:#263238;stroke-linecap:round;stroke-linejoin:round;stroke-miterlimit:10;" x1="456.749" y1="183.678" x2="456.749" y2="180.612"/>
			</g>
			<polyline style="fill:none;stroke:#263238;stroke-linecap:round;stroke-linejoin:round;stroke-miterlimit:10;" points="
				301.158,172.181 315.721,166.432 328.368,171.798 344.463,160.301 356.727,148.804 369.373,169.498 383.169,162.6 
				396.199,173.331 408.846,153.786 422.642,176.396 437.204,170.648 450.617,160.301 			"/>
			<polyline style="fill:none;stroke:#92E3A9;stroke-linecap:round;stroke-linejoin:round;stroke-miterlimit:10;" points="
				301.158,166.432 315.721,160.684 328.368,146.121 344.463,154.552 356.727,158.768 369.373,176.779 383.169,190.576 
				396.199,167.582 408.846,173.331 422.642,170.648 437.204,154.169 450.617,154.552 			"/>
		</g>
		<g>
			
				<rect x="285.624" y="93.377" style="fill:#92E3A9;stroke:#263238;stroke-linecap:round;stroke-linejoin:round;stroke-miterlimit:10;" width="8.075" height="40.884"/>
			
				<rect x="297.426" y="108.891" style="fill:#FFFFFF;stroke:#263238;stroke-linecap:round;stroke-linejoin:round;stroke-miterlimit:10;" width="8.075" height="25.37"/>
			
				<rect x="309.228" y="111.629" style="fill:#92E3A9;stroke:#263238;stroke-linecap:round;stroke-linejoin:round;stroke-miterlimit:10;" width="8.075" height="22.632"/>
			
				<rect x="321.03" y="105.241" style="fill:#FFFFFF;stroke:#263238;stroke-linecap:round;stroke-linejoin:round;stroke-miterlimit:10;" width="8.075" height="29.02"/>
			
				<rect x="332.832" y="104.328" style="fill:#92E3A9;stroke:#263238;stroke-linecap:round;stroke-linejoin:round;stroke-miterlimit:10;" width="8.075" height="29.933"/>
			
				<rect x="344.634" y="83.947" style="fill:#FFFFFF;stroke:#263238;stroke-linecap:round;stroke-linejoin:round;stroke-miterlimit:10;" width="8.075" height="50.314"/>
			
				<rect x="356.436" y="106.762" style="fill:#92E3A9;stroke:#263238;stroke-linecap:round;stroke-linejoin:round;stroke-miterlimit:10;" width="8.075" height="27.499"/>
			
				<rect x="368.238" y="98.853" style="fill:#FFFFFF;stroke:#263238;stroke-linecap:round;stroke-linejoin:round;stroke-miterlimit:10;" width="8.075" height="35.409"/>
			
				<rect x="380.04" y="117.104" style="fill:#92E3A9;stroke:#263238;stroke-linecap:round;stroke-linejoin:round;stroke-miterlimit:10;" width="8.075" height="17.157"/>
		</g>
		<g>
			<g>
				
					<rect x="422.148" y="88.076" style="fill:#FFFFFF;stroke:#263238;stroke-linecap:round;stroke-linejoin:round;stroke-miterlimit:10;" width="52.23" height="6.097"/>
				
					<rect x="422.148" y="98.098" style="fill:#FFFFFF;stroke:#263238;stroke-linecap:round;stroke-linejoin:round;stroke-miterlimit:10;" width="52.23" height="6.097"/>
				
					<rect x="422.148" y="108.12" style="fill:#FFFFFF;stroke:#263238;stroke-linecap:round;stroke-linejoin:round;stroke-miterlimit:10;" width="52.23" height="6.097"/>
				
					<rect x="422.148" y="118.142" style="fill:#FFFFFF;stroke:#263238;stroke-linecap:round;stroke-linejoin:round;stroke-miterlimit:10;" width="52.23" height="6.097"/>
				
					<rect x="422.148" y="128.164" style="fill:#FFFFFF;stroke:#263238;stroke-linecap:round;stroke-linejoin:round;stroke-miterlimit:10;" width="52.23" height="6.097"/>
			</g>
			<g>
				
					<rect x="422.148" y="88.076" style="fill:#92E3A9;stroke:#263238;stroke-linecap:round;stroke-linejoin:round;stroke-miterlimit:10;" width="31.535" height="6.097"/>
				
					<rect x="422.148" y="98.098" style="fill:#92E3A9;stroke:#263238;stroke-linecap:round;stroke-linejoin:round;stroke-miterlimit:10;" width="20.805" height="6.097"/>
				
					<rect x="422.148" y="108.12" style="fill:#92E3A9;stroke:#263238;stroke-linecap:round;stroke-linejoin:round;stroke-miterlimit:10;" width="45.715" height="6.097"/>
				
					<rect x="422.148" y="118.142" style="fill:#92E3A9;stroke:#263238;stroke-linecap:round;stroke-linejoin:round;stroke-miterlimit:10;" width="41.499" height="6.097"/>
				
					<rect x="422.148" y="128.164" style="fill:#92E3A9;stroke:#263238;stroke-linecap:round;stroke-linejoin:round;stroke-miterlimit:10;" width="34.601" height="6.097"/>
			</g>
		</g>
		<g>
			
				<line style="fill:none;stroke:#263238;stroke-linecap:round;stroke-linejoin:round;stroke-miterlimit:10;" x1="285.624" y1="73.308" x2="306.318" y2="73.308"/>
			
				<line style="fill:none;stroke:#263238;stroke-linecap:round;stroke-linejoin:round;stroke-miterlimit:10;" x1="285.624" y1="77.907" x2="306.318" y2="77.907"/>
			
				<line style="fill:none;stroke:#263238;stroke-linecap:round;stroke-linejoin:round;stroke-miterlimit:10;" x1="285.624" y1="82.505" x2="306.318" y2="82.505"/>
		</g>
		<g>
			
				<line style="fill:none;stroke:#263238;stroke-linecap:round;stroke-linejoin:round;stroke-miterlimit:10;" x1="422.492" y1="73.308" x2="443.186" y2="73.308"/>
			
				<line style="fill:none;stroke:#263238;stroke-linecap:round;stroke-linejoin:round;stroke-miterlimit:10;" x1="422.492" y1="77.907" x2="443.186" y2="77.907"/>
			
				<line style="fill:none;stroke:#263238;stroke-linecap:round;stroke-linejoin:round;stroke-miterlimit:10;" x1="422.492" y1="82.505" x2="443.186" y2="82.505"/>
		</g>
	</g>
</g>
<g id="Chart_1">
	<g>
		<g>
			
				<line style="fill:none;stroke:#263238;stroke-linecap:round;stroke-linejoin:round;stroke-miterlimit:10;" x1="211.868" y1="145.73" x2="232.563" y2="145.73"/>
			
				<line style="fill:none;stroke:#263238;stroke-linecap:round;stroke-linejoin:round;stroke-miterlimit:10;" x1="211.868" y1="150.329" x2="232.563" y2="150.329"/>
			
				<line style="fill:none;stroke:#263238;stroke-linecap:round;stroke-linejoin:round;stroke-miterlimit:10;" x1="211.868" y1="154.928" x2="232.563" y2="154.928"/>
		</g>
		<g>
			
				<line style="fill:none;stroke:#263238;stroke-linecap:round;stroke-linejoin:round;stroke-miterlimit:10;" x1="77.686" y1="81.305" x2="98.381" y2="81.305"/>
			
				<line style="fill:none;stroke:#263238;stroke-linecap:round;stroke-linejoin:round;stroke-miterlimit:10;" x1="77.686" y1="85.904" x2="98.381" y2="85.904"/>
			
				<line style="fill:none;stroke:#263238;stroke-linecap:round;stroke-linejoin:round;stroke-miterlimit:10;" x1="77.686" y1="90.503" x2="98.381" y2="90.503"/>
		</g>
		<polyline style="fill:none;stroke:#263238;stroke-linecap:round;stroke-linejoin:round;stroke-miterlimit:10;" points="
			93.7,185.778 93.7,114.505 222.246,114.505 		"/>
		
			<line style="fill:none;stroke:#263238;stroke-linecap:round;stroke-linejoin:round;stroke-miterlimit:10;" x1="222.323" y1="98.959" x2="222.323" y2="130.343"/>
		
			<line style="fill:none;stroke:#263238;stroke-linecap:round;stroke-linejoin:round;stroke-miterlimit:10;" x1="178.869" y1="114.925" x2="178.869" y2="126.033"/>
		
			<line style="fill:none;stroke:#263238;stroke-linecap:round;stroke-linejoin:round;stroke-miterlimit:10;" x1="160.652" y1="102.929" x2="160.652" y2="114.037"/>
		
			<line style="fill:none;stroke:#263238;stroke-linecap:round;stroke-linejoin:round;stroke-miterlimit:10;" x1="136.66" y1="114.925" x2="136.66" y2="126.033"/>
		
			<rect x="140.274" y="80.481" style="fill:#92E3A9;stroke:#263238;stroke-linecap:round;stroke-linejoin:round;stroke-miterlimit:10;" width="42.236" height="21.705"/>
		
			<rect x="76.006" y="120.371" style="fill:#FFFFFF;stroke:#263238;stroke-linecap:round;stroke-linejoin:round;stroke-miterlimit:10;" width="35.387" height="18.185"/>
		
			<rect x="76.006" y="148.528" style="fill:#92E3A9;stroke:#263238;stroke-linecap:round;stroke-linejoin:round;stroke-miterlimit:10;" width="35.387" height="18.185"/>
		
			<rect x="76.006" y="176.685" style="fill:#FFFFFF;stroke:#263238;stroke-linecap:round;stroke-linejoin:round;stroke-miterlimit:10;" width="35.387" height="18.185"/>
		
			<rect x="118.881" y="120.371" style="fill:#FFFFFF;stroke:#263238;stroke-linecap:round;stroke-linejoin:round;stroke-miterlimit:10;" width="35.387" height="18.185"/>
		
			<rect x="161.755" y="120.371" style="fill:#92E3A9;stroke:#263238;stroke-linecap:round;stroke-linejoin:round;stroke-miterlimit:10;" width="35.387" height="18.185"/>
		
			<rect x="204.63" y="120.371" style="fill:#FFFFFF;stroke:#263238;stroke-linecap:round;stroke-linejoin:round;stroke-miterlimit:10;" width="35.387" height="18.185"/>
		
			<rect x="204.63" y="89.867" style="fill:#92E3A9;stroke:#263238;stroke-linecap:round;stroke-linejoin:round;stroke-miterlimit:10;" width="35.387" height="18.185"/>
	</g>
</g>
<g id="Character_4">
	<g>
		<g>
			<path style="fill:#FFFFFF;stroke:#263238;stroke-linecap:round;stroke-linejoin:round;stroke-miterlimit:10;" d="M568.02,248.845
				c0,0-5.233-16.608-5.233-16.949c0-0.341-1.024-6.256-1.706-7.621c-0.682-1.365-5.005-5.005-5.005-5.005l-1.82,20.362l2.958,3.071
				l2.844,2.616l0.796,8.19L568.02,248.845z"/>
			
				<rect x="545.692" y="214.12" transform="matrix(0.9943 -0.1065 0.1065 0.9943 -21.0735 60.0856)" style="fill:#263238;stroke:#263238;stroke-linecap:round;stroke-linejoin:round;stroke-miterlimit:10;" width="12.47" height="26.385"/>
			<path style="fill:#FFFFFF;stroke:#263238;stroke-linecap:round;stroke-linejoin:round;stroke-miterlimit:10;" d="
				M563.242,237.242c0,0-1.479-6.37-2.048-7.394c-0.569-1.024-3.64-3.868-4.778-6.029c-1.138-2.161-2.503-0.228-2.503,2.389
				s2.73,3.868,2.73,3.868s0.796,6.598,1.365,7.394c0.569,0.796,2.503,2.616,2.503,2.616"/>
		</g>
		<g>
			<g>
				<path style="fill:#FFFFFF;stroke:#263238;stroke-linecap:round;stroke-linejoin:round;stroke-miterlimit:10;" d="
					M570.92,203.085c0,0-2.154,4.846-1.256,6.82c0.897,1.974-0.18,4.307-1.256,5.743c-1.077,1.436-2.154,2.872-0.897,4.128
					c1.256,1.256,2.333,2.154,2.333,2.154s1.615,8.795,3.051,9.692c1.436,0.897,6.82,0.179,6.82,0.179l1.077,7.718l19.922-4.307
					l-3.59-12.923c0,0-2.872-15.076-8.077-20.82C583.843,195.726,573.254,200.033,570.92,203.085z"/>
				<path style="fill:#263238;stroke:#263238;stroke-linecap:round;stroke-linejoin:round;stroke-miterlimit:10;" d="
					M574.151,231.622c0,0-0.18-0.18,1.436-0.897c1.615-0.718,3.769-3.051,3.769-3.051l0.359,4.128
					C579.715,231.801,575.407,231.622,574.151,231.622z"/>
			</g>
			<path style="fill:#263238;stroke:#263238;stroke-linecap:round;stroke-linejoin:round;stroke-miterlimit:10;" d="
				M577.382,193.393c0,0-3.41-0.897-7.538,2.333c-4.128,3.231-5.564,7.718-4.128,8.436c1.436,0.718,7.538,0.718,7.538,0.718
				s-0.718,2.692,0.539,3.949c1.256,1.256,2.333,1.436,2.333,1.436s-0.718,2.872,0,3.41c0,0,1.615-3.051,2.513-2.872
				c0.897,0.179,1.615,3.769,1.615,5.205c0,1.436,1.615,5.923,3.051,7.538c1.436,1.615,7,4.128,9.512,3.59
				c2.513-0.538,5.384-2.154,5.564-2.692c0.18-0.538,6.102-6.461,6.461-12.205c0.359-5.743,1.077-12.205-3.769-15.974
				c-4.846-3.769-8.435-6.461-8.435-6.461s-3.59-3.41-5.384-2.513s-3.231,2.872-3.231,2.872s-3.41-3.051-7.538-0.718
				C572.356,191.777,577.382,193.393,577.382,193.393z"/>
			<path style="fill:none;stroke:#263238;stroke-linecap:round;stroke-linejoin:round;stroke-miterlimit:10;" d="M580.253,216.007
				c0,0,0.18,3.231-0.718,3.949c-0.897,0.718-1.795,0.359-1.795,0.359"/>
		</g>
		<path style="fill:#92E3A9;stroke:#263238;stroke-linecap:round;stroke-linejoin:round;stroke-miterlimit:10;" d="M576.305,238.263
			l-0.897,6.102c0,0,10.41-3.59,15.974-5.384s14.179-0.897,14.179-0.897l-2.333-6.102c0,0-6.82-1.436-12.384,0.718
			C585.279,234.852,576.305,238.263,576.305,238.263z"/>
		<g>
			<path style="fill:#263238;stroke:#263238;stroke-linecap:round;stroke-linejoin:round;stroke-miterlimit:10;" d="
				M563.562,312.567c0,0-4.307,35.178-0.718,57.793s10.23,48.998,12.922,59.049c2.692,10.051,3.41,23.512,3.41,23.512
				s-1.436,1.256-1.436,2.154s0,3.59,0.18,4.128c0.18,0.538-2.513,2.692-5.923,4.487c-3.41,1.795-8.077,2.513-8.256,3.949
				c-0.18,1.436-0.539,1.256,6.102,3.41c6.641,2.154,20.64,0.359,20.64,0.359s4.846,0.718,6.461,0.179
				c1.615-0.538,1.615-2.333,1.615-2.333s7,0.897,9.154,0.359c2.154-0.538,1.974-4.308,1.615-7.718
				c-0.359-3.41-2.333-24.948-1.974-36.434c0.359-11.487-4.846-36.973-4.846-36.973l7-46.306c0,0,2.154-16.153,1.077-21.179
				c-1.077-5.025-1.077-8.256-1.077-8.256L563.562,312.567z"/>
			<path style="fill:none;stroke:#FFFFFF;stroke-linecap:round;stroke-linejoin:round;stroke-miterlimit:10;" d="M597.483,345.771
				l-6.102,4.487c0,0-3.59,31.948-1.436,43.075c2.154,11.128,5.384,16.692,5.384,33.204c0,16.512,2.513,38.768,2.513,38.768"/>
		</g>
		<g>
			<path style="fill:#92E3A9;stroke:#263238;stroke-linecap:round;stroke-linejoin:round;stroke-miterlimit:10;" d="
				M577.202,244.006c0,0-18.487,7.897-18.307,9.692s-5.384,57.254-5.384,57.254s1.436,1.615,5.923,2.513s7.359,0,7.359,0
				s3.59,3.231,19.025,3.231s23.153-2.513,23.691-3.949c0.538-1.436,0.538-4.667,0.538-7.179s6.82-40.921,7-41.819
				c0.18-0.897,1.436-15.076,0.539-18.307c-0.897-3.231-12.025-7.359-12.025-7.359s-5.564-0.897-13.641-0.359
				C583.843,238.263,577.202,244.006,577.202,244.006z"/>
			
				<line style="fill:none;stroke:#263238;stroke-linecap:round;stroke-linejoin:round;stroke-miterlimit:10;" x1="577.759" y1="269.766" x2="578.458" y2="266.979"/>
			
				<line style="fill:none;stroke:#263238;stroke-linecap:round;stroke-linejoin:round;stroke-miterlimit:10;" x1="566.792" y1="313.465" x2="576.806" y2="273.566"/>
			<path style="fill:none;stroke:#263238;stroke-linecap:round;stroke-linejoin:round;stroke-miterlimit:10;" d="M602.034,270.926
				c-2.516,4.1-6.328,10.113-9.756,14.719"/>
			<path style="fill:none;stroke:#263238;stroke-linecap:round;stroke-linejoin:round;stroke-miterlimit:10;" d="M604.842,266.262
				c0,0-0.536,0.917-1.434,2.406"/>
			<path style="fill:none;stroke:#263238;stroke-linecap:round;stroke-linejoin:round;stroke-miterlimit:10;" d="M599.637,280.62
				c0,0-9.333,9.871-9.871,10.41"/>
		</g>
		<path style="fill:#FFFFFF;stroke:#263238;stroke-linecap:round;stroke-linejoin:round;stroke-miterlimit:10;" d="M552.613,314.901
			c0,0,0.359,31.947,0.718,34.64c0.359,2.692,1.256,8.436,1.615,10.948c0.359,2.513,0.718,5.384,1.436,5.743
			c0.718,0.359,3.949,2.692,5.025,2.513c1.077-0.18,2.513-1.077,2.154-2.333c-0.359-1.256-2.154-1.615-2.154-1.615
			s-0.179-3.231,0.18-5.384c0.359-2.154,1.077-2.872,0.18-6.461s-2.692-7-2.692-7l6.282-28.178L552.613,314.901z"/>
		<path style="fill:#FFFFFF;stroke:#263238;stroke-linecap:round;stroke-linejoin:round;stroke-miterlimit:10;" d="M551.536,304.311
			c0,0,2.872,2.513,7.718,3.769c4.846,1.256,9.333,0.718,9.333,0.718s-0.718,7.718-1.615,9.333s-4.307,2.154-8.974,0.539
			c-4.667-1.615-6.461-2.333-6.641-3.41C551.178,314.183,551.536,304.311,551.536,304.311z"/>
	</g>
</g>
<g id="Character_3">
	<g>
		<g>
			<path style="fill:#FFFFFF;stroke:#263238;stroke-linecap:round;stroke-linejoin:round;stroke-miterlimit:10;" d="
				M467.149,368.686c0,0,1.752,15.433,2.232,18.156c0.48,2.723,1.152,6.536,1.152,6.536s-1.075,17.249,2.387,31.048
				c3.461,13.799,7.688,28.506,7.641,29.958c-0.046,1.453-1.315,4.902-1.315,4.902s-4.134,4.358-7.114,5.992
				c-2.98,1.634-4.977,1.634-5.177,2.905c-0.2,1.271,2.677,1.453,3.432,1.271c0.755-0.181,16.704,0,16.704,0
				s3.211,0.363,3.678-1.452c0.467-1.816,0.098-8.715-0.247-9.986c-0.345-1.271-0.999-6.355-0.914-6.899
				c0.086-0.545-1.098-32.319-0.302-40.852c0.796-8.533-1.117-21.788-1.117-21.788l2.154-18.338L467.149,368.686z"/>
			<path style="fill:#263238;stroke:#263238;stroke-linecap:round;stroke-linejoin:round;stroke-miterlimit:10;" d="
				M474.185,463.896c-0.703,0.54-1.405,1.027-2.053,1.383c-2.98,1.634-4.977,1.634-5.177,2.905c-0.2,1.271,2.677,1.453,3.432,1.271
				c0.755-0.181,16.704,0,16.704,0s3.211,0.363,3.678-1.452c0.203-0.791,0.248-2.548,0.205-4.384l-14.751,2.205L474.185,463.896z"/>
		</g>
		<g>
			<path style="fill:#FFFFFF;stroke:#263238;stroke-linecap:round;stroke-linejoin:round;stroke-miterlimit:10;" d="
				M486.202,367.596c0,0-3.58,11.395-3.164,16.841c0.416,5.447,8.5,65.952,8.78,69.946c0.28,3.994,1.814,9.26,2.055,12.346
				c0.242,3.087,2.822,3.994,4.524,4.721c1.702,0.726,5.678,1.997,6.562-3.631c0.884-5.628-4.914-13.799-5.451-16.159
				c-0.537-2.36,3.398-27.416,3.944-36.676c0.546-9.26-0.313-19.972-1.167-23.785c-0.854-3.813-0.942-6.718-0.942-6.718
				l6.885-17.249L486.202,367.596z"/>
			<path style="fill:#263238;stroke:#263238;stroke-linecap:round;stroke-linejoin:round;stroke-miterlimit:10;" d="M504.96,467.82
				c0.367-2.334-0.421-5.102-1.5-7.715c-0.093,1.852-0.24,3.669-0.471,4.084c-0.506,0.908-4.07,1.634-5.704,1.634
				c-1.255,0-2.94-0.641-3.656-0.939c0.11,0.666,0.203,1.299,0.246,1.847c0.242,3.087,2.823,3.994,4.524,4.721
				C500.099,472.178,504.076,473.449,504.96,467.82z"/>
		</g>
		<path style="fill:#263238;stroke:#263238;stroke-linecap:round;stroke-linejoin:round;stroke-miterlimit:10;" d="M485.574,232.361
			c0,0-8.286-1.055-12.354-0.603c-4.068,0.452-11.751,2.109-11.751,2.109l-15.819,0.904l-10.546-6.78l-6.328,8.135
			c0,0,8.437,10.094,12.505,11.299c4.068,1.205,24.708,2.109,24.708,2.109s-0.151,7.684,0.753,10.546s1.055,20.941,1.205,24.406
			c0.151,3.465-4.821,15.819-5.122,16.422c-0.301,0.603-4.67,9.642-4.821,25.913c-0.151,16.271,5.876,46.101,5.876,46.101h44.896
			c0,0,7.099-20.763,7.551-40.951c0.452-20.188-3.785-28.954-6.647-37.24c-2.862-8.286-0.904-12.505-0.904-12.505
			s-1.808-4.972,0.452-14.312c2.26-9.341,7.232-18.531,7.533-20.941c0.301-2.41-19.435-13.107-19.435-13.107L485.574,232.361z"/>
		<path style="fill:#FFFFFF;stroke:#263238;stroke-linecap:round;stroke-linejoin:round;stroke-miterlimit:10;" d="M484.068,231.909
			c0,0-1.959,2.561-2.863,3.917c-0.904,1.356-3.917,12.053-3.917,12.053l8.437-1.507l10.847,4.52c0,0,4.67-10.245,3.766-14.765
			c-0.904-4.52-5.725-5.122-5.725-5.122L484.068,231.909z"/>
		<g>
			<path style="fill:#FFFFFF;stroke:#263238;stroke-linecap:round;stroke-linejoin:round;stroke-miterlimit:10;" d="
				M479.096,199.367c0,0-2.26,2.411-2.561,5.574c-0.301,3.164,0,5.574-0.603,6.478c-0.603,0.904-5.876,4.821-5.574,5.725
				c0.301,0.904,3.314,3.164,3.314,3.164s1.507,8.889,2.411,9.341c0.904,0.452,5.273-0.301,5.273-0.301s1.657,2.863,2.411,5.273
				c0.753,2.411,0.603,13.107,1.958,11.751c1.356-1.356,9.341-11.45,9.943-13.559c0.603-2.109,0-6.478,0-6.478
				s5.273-5.876,5.122-13.861c-0.151-7.985-7.684-13.559-12.203-14.915C484.068,196.203,479.096,199.367,479.096,199.367z"/>
			<path style="fill:#263238;stroke:#263238;stroke-linecap:round;stroke-linejoin:round;stroke-miterlimit:10;" d="
				M483.766,191.081c0,0-11.149,3.465-9.943,5.876c1.205,2.411,11.45,10.998,11.45,10.998l1.657,2.712c0,0-0.452,2.26,0.603,2.712
				c1.055,0.452,3.465-3.616,3.465-3.616s4.369,0.603,3.917,5.424c-0.452,4.821-2.862,6.328-2.862,6.328s2.862,4.52,3.616,4.821
				s6.629-4.67,10.395-9.793c3.766-5.122,3.917-9.491,1.657-13.861c-2.26-4.369-5.424-9.039-11.751-10.697
				C489.642,190.328,483.766,191.081,483.766,191.081z"/>
			<path style="fill:#263238;stroke:#263238;stroke-linecap:round;stroke-linejoin:round;stroke-miterlimit:10;" d="
				M505.913,201.476c0,0,1.055-1.808,3.616-2.862s6.93-0.151,7.985,1.356c1.055,1.507,2.862,6.177,2.26,9.642
				c-0.603,3.465-5.122,7.232-7.081,7.232s-4.972-1.808-6.177-5.424C505.31,207.804,505.913,201.476,505.913,201.476z"/>
			<path style="fill:none;stroke:#263238;stroke-linecap:round;stroke-linejoin:round;stroke-miterlimit:10;" d="M476.083,221.363
				c0,0,1.958-0.301,3.465-1.507"/>
			<path style="fill:#263238;" d="M479.096,210.817c0,0.874-0.303,1.582-0.678,1.582c-0.374,0-0.678-0.708-0.678-1.582
				s0.303-1.582,0.678-1.582C478.792,209.235,479.096,209.943,479.096,210.817z"/>
			<path style="fill:none;stroke:#263238;stroke-linecap:round;stroke-linejoin:round;stroke-miterlimit:10;" d="M477.891,207.352
				c0,0,1.356-1.507,2.411,0.301"/>
			<polyline style="fill:none;stroke:#263238;stroke-linecap:round;stroke-linejoin:round;stroke-miterlimit:10;" points="
				492.052,221.514 488.738,221.062 487.834,223.773 			"/>
			<polygon style="fill:#263238;stroke:#263238;stroke-linecap:round;stroke-linejoin:round;stroke-miterlimit:10;" points="
				481.356,229.348 484.52,228.896 483.164,232.964 			"/>
		</g>
		<g>
			<path style="fill:#263238;stroke:#263238;stroke-linecap:round;stroke-linejoin:round;stroke-miterlimit:10;" d="M516.76,246.975
				c0,0,2.109-0.452,3.766,13.559c1.657,14.011,2.656,28.743,3.164,29.68c0.637,1.174-5.102,2.597-7.834,3.465
				c-1.729,0.549-6.177,1.055-6.177,1.055l-2.109-8.135l5.574-1.959l-3.917-16.723C509.227,267.916,513.898,251.344,516.76,246.975z
				"/>
			<polygon style="fill:#FFFFFF;stroke:#263238;stroke-linecap:round;stroke-linejoin:round;stroke-miterlimit:10;" points="
				477.439,285.995 473.672,277.106 479.698,275.901 482.712,285.392 			"/>
			<path style="fill:#FFFFFF;stroke:#263238;stroke-linecap:round;stroke-linejoin:round;stroke-miterlimit:10;" d="
				M504.105,287.954l-14.162,0.753c0,0-2.862-4.821-3.314-5.122c-0.452-0.301-5.122-1.808-5.122-1.808l0.904,2.561l-8.437,1.205
				c0,0,0,1.507,0.603,2.411c0.603,0.904,2.109,0.904,2.109,0.904s4.218,3.465,5.725,4.218c1.507,0.753,5.424,0.603,5.424,0.603
				l18.079,2.26L504.105,287.954z"/>
			<polygon style="fill:#FFFFFF;stroke:#263238;stroke-linecap:round;stroke-linejoin:round;stroke-miterlimit:10;" points="
				508.775,284.338 501.845,286.447 506.214,296.993 511.939,295.938 			"/>
		</g>
		<path style="fill:#FFFFFF;stroke:#263238;stroke-linecap:round;stroke-linejoin:round;stroke-miterlimit:10;" d="M433.597,226.636
			l-20.64-18.983c0,0-7.231-8.587-10.847-10.546c-3.616-1.959-5.876-1.959-5.273-0.452c0.603,1.507,2.863,2.411,2.863,2.411
			l2.862,2.863c0,0-0.151,5.876,0.753,7.382c0.904,1.507,4.821,2.411,4.821,2.411l2.41,0.904l16.271,21.695L433.597,226.636z"/>
		<path style="fill:#FFFFFF;stroke:#263238;stroke-linecap:round;stroke-linejoin:round;stroke-miterlimit:10;" d="M415.368,210.817
			c0,0-1.507-5.424-2.712-7.232c-1.205-1.808-2.862-3.766-3.465-5.273c-0.603-1.507-0.151-4.52-0.904-4.369
			c-0.753,0.151-2.411,0.301-2.411,2.561c0,2.26,1.507,5.122,1.507,5.122s0,5.424,1.356,7.081"/>
		<path style="fill:#FFFFFF;stroke:#263238;stroke-linecap:round;stroke-linejoin:round;stroke-miterlimit:10;" d="M400.182,201.313
			c0,0-0.334,1.894,0.111,2.451c0.446,0.557,3.676,1.671,4.233,0.668c0.557-1.002,0.334-2.451-0.557-2.785
			C403.078,201.313,400.961,200.422,400.182,201.313z"/>
		<path style="fill:#FFFFFF;stroke:#263238;stroke-linecap:round;stroke-linejoin:round;stroke-miterlimit:10;" d="M401.184,204.543
			c0,0-1.894-0.446-1.782,0.891c0.111,1.337,0.223,2.228,0.78,2.451c0.557,0.223,3.23,0,4.01-0.446
			c0.78-0.446,1.003-1.56,0.557-2.005C404.303,204.989,401.184,204.543,401.184,204.543z"/>
		<path style="fill:#FFFFFF;stroke:#263238;stroke-linecap:round;stroke-linejoin:round;stroke-miterlimit:10;" d="M400.182,207.885
			c0,0,0.334,1.56,1.003,1.894c0.668,0.334,3.119,0.334,3.676-0.557c0.557-0.891-0.668-1.782-0.668-1.782
			S400.738,207.774,400.182,207.885z"/>
		<polygon style="fill:#FFFFFF;stroke:#263238;stroke-linecap:round;stroke-linejoin:round;stroke-miterlimit:10;" points="
			433.447,225.28 425.462,234.169 429.379,239.593 438.418,229.197 		"/>
	</g>
</g>
<g id="Character_2">
	<g>
		<path style="fill:#92E3A9;stroke:#263238;stroke-linecap:round;stroke-linejoin:round;stroke-miterlimit:10;" d="M361.102,234.046
			c0,0,2.419,0.235,2.859,10.571c0.44,10.336,2.419,21.142,1.319,30.068c-1.099,8.927-1.539,15.739-2.639,17.618
			c-1.099,1.879-4.398,2.349-6.157,1.879c-1.759-0.47-4.178-2.349-4.178-2.349l-1.1-4.228L361.102,234.046z"/>
		<g>
			<path style="fill:#FFFFFF;stroke:#263238;stroke-linecap:round;stroke-linejoin:round;stroke-miterlimit:10;" d="M294.5,284.901
				c0,0,7.651,11.701,8.551,12.151c0.9,0.45,4.276,0.9,4.725-2.925c0.45-3.825-3.825-11.251-3.825-11.251L294.5,284.901z"/>
			<g>
				
					<rect x="281.224" y="283.101" style="fill:#FFFFFF;stroke:#263238;stroke-linecap:round;stroke-linejoin:round;stroke-miterlimit:10;" width="42.304" height="2.475"/>
				<polygon style="fill:#FFFFFF;stroke:#263238;stroke-linecap:round;stroke-linejoin:round;stroke-miterlimit:10;" points="
					311.273,256.773 277.519,256.773 281.328,283.101 315.082,283.101 				"/>
				<polygon style="fill:#263238;stroke:#263238;stroke-linecap:round;stroke-linejoin:round;stroke-miterlimit:10;" points="
					309.755,258.108 279.424,258.108 282.847,281.766 313.177,281.766 				"/>
			</g>
		</g>
		<g>
			<path style="fill:#FFFFFF;stroke:#263238;stroke-linecap:round;stroke-linejoin:round;stroke-miterlimit:10;" d="M337.03,412.489
				c0,0,11.701,42.079,12.376,44.555c0.675,2.475,0.225,7.876,0.675,9.901c0.45,2.025,0.225,3.825,2.25,4.051
				c2.025,0.225,6.976,1.35,8.551-1.125c1.575-2.475-0.225-6.301-0.9-8.326s-2.25-8.776-2.25-8.776s1.575-28.353-1.35-42.529
				c-2.925-14.177-6.976-28.128-6.976-28.128s7.201-13.952,9.226-21.602c0,0-28.128-3.15-28.128,0S327.129,389.312,337.03,412.489z"
				/>
			<path style="fill:#263238;stroke:#263238;stroke-linecap:round;stroke-linejoin:round;stroke-miterlimit:10;" d="
				M350.081,466.945c0.45,2.025,0.225,3.825,2.25,4.051c2.025,0.225,6.976,1.35,8.551-1.125c0.895-1.407,0.699-3.25,0.24-4.951
				h-11.24C349.914,465.737,349.97,466.445,350.081,466.945z"/>
		</g>
		<g>
			<path style="fill:#FFFFFF;stroke:#263238;stroke-linecap:round;stroke-linejoin:round;stroke-miterlimit:10;" d="
				M309.577,363.209l7.876,32.853c0,0-0.45,6.976,1.575,18.452c2.025,11.476,7.201,45.905,7.201,45.905s-2.7,4.5-4.725,6.301
				c-2.025,1.8-5.626,2.25-4.5,3.6s3.825,1.575,4.5,1.575c0.675,0,12.826,0,12.826,0s2.25,1.125,2.475-1.8s-1.35-8.326-1.35-10.576
				c0-2.25,0.45-13.051,2.025-25.653c1.575-12.601,2.475-29.028,0.225-37.579c-2.25-8.551-2.925-12.601-2.925-13.501
				c0-0.9,1.575-17.777,1.575-17.777L309.577,363.209z"/>
			<path style="fill:#263238;stroke:#263238;stroke-linecap:round;stroke-linejoin:round;stroke-miterlimit:10;" d="
				M336.805,470.095c0.072-0.934-0.041-2.12-0.226-3.375h-15.076c-2.025,1.8-5.626,2.25-4.5,3.6c1.125,1.35,3.825,1.575,4.5,1.575
				c0.675,0,12.826,0,12.826,0S336.58,473.021,336.805,470.095z"/>
		</g>
		<path style="fill:#263238;stroke:#263238;stroke-linecap:round;stroke-linejoin:round;stroke-miterlimit:10;" d="M311.377,287.376
			c0,0-7.201,19.577-6.976,42.755c0.225,23.177,4.05,37.354,4.05,37.354s11.476,1.8,27.903,1.8c16.427,0,22.952-4.5,22.952-4.5
			s11.476-30.603,6.526-47.93c-4.951-17.327-12.151-30.153-12.151-30.153L311.377,287.376z"/>
		<g>
			<path style="fill:#92E3A9;stroke:#263238;stroke-linecap:round;stroke-linejoin:round;stroke-miterlimit:10;" d="M320.378,230.67
				c0,0-16.202,7.876-16.202,9.676s-3.15,53.106-2.25,54.906c0.9,1.8,4.05,4.951,7.426,4.951c3.375,0,7.201-2.25,7.876-4.725
				c0.675-2.475,2.025-7.651,2.025-7.651l34.429-1.125c0,0,8.551-45.68,8.551-48.155c0-2.475-0.225-3.6-0.9-4.5
				c-0.675-0.9-14.626-4.725-14.626-4.725S325.779,228.42,320.378,230.67z"/>
			
				<line style="fill:#FFFFFF;stroke:#263238;stroke-linecap:round;stroke-linejoin:round;stroke-miterlimit:10;" x1="319.253" y1="287.826" x2="322.853" y2="260.373"/>
		</g>
		<path style="fill:#FFFFFF;stroke:#263238;stroke-linecap:round;stroke-linejoin:round;stroke-miterlimit:10;" d="M317.453,210.418
			c0,0-2.475,0.45-0.675,3.825c1.8,3.375,6.526,4.05,6.526,4.05l2.925,8.101l14.402-1.125l2.25-8.551c0,0,3.825-0.225,5.176-4.275
			c1.35-4.05-0.675-5.401-3.375-4.951C341.98,207.943,317.453,210.418,317.453,210.418z"/>
		<path style="fill:#FFFFFF;stroke:#263238;stroke-linecap:round;stroke-linejoin:round;stroke-miterlimit:10;" d="M345.806,224.595
			c0,0-3.825-1.575-10.351-1.125c-6.526,0.45-14.626,3.15-14.626,3.15l-0.45,4.05c0,0,10.351-1.575,14.852-1.575
			s11.476,0.225,11.476,0.225L345.806,224.595z"/>
		<path style="fill:#263238;stroke:#263238;stroke-linecap:round;stroke-linejoin:round;stroke-miterlimit:10;" d="M324.654,186.791
			c0,0-4.05-0.9-9.226,5.176c-5.176,6.076-3.6,8.101-2.25,11.926c1.35,3.825,9.451,12.826,13.501,14.626c4.05,1.8,4.05,1.8,4.05,1.8
			s-9.901,13.727-9.901,20.927c0,7.201,5.626,16.427,13.951,17.327c8.326,0.9,15.077-18.677,11.476-24.753
			c-3.6-6.076-8.101-14.176-8.101-14.176s8.101-5.176,8.326-13.051c0.225-7.876,0.675-15.077-4.951-20.477
			c-5.626-5.4-11.251-6.076-13.727-3.6C325.329,184.99,324.654,186.791,324.654,186.791z"/>
	</g>
</g>
<g id="Character_1">
	<g>
		<g>
			<path style="fill:#FFFFFF;stroke:#263238;stroke-linecap:round;stroke-linejoin:round;stroke-miterlimit:10;" d="M187.47,198.816
				c0,0,2.51,5.792,2.317,7.143c-0.193,1.351-0.386,3.668,0,4.826c0.386,1.158,1.351,3.282,0.579,6.564
				c-0.772,3.282-1.351,9.266-3.089,10.618c-1.737,1.351-5.019-0.193-5.019-0.193l-0.193,6.757l-15.637,0.579l-1.544-10.811
				c0,0-3.089-11.197,1.158-21.236C170.288,193.025,186.311,197.079,187.47,198.816z"/>
			<path style="fill:none;stroke:#263238;stroke-linecap:round;stroke-linejoin:round;stroke-miterlimit:10;" d="M182.45,219.087
				c0,0,0.579,0.965,1.737,1.351c1.158,0.386,1.351-3.089,1.351-3.089"/>
			<g>
				
					<line style="fill:none;stroke:#263238;stroke-linecap:round;stroke-linejoin:round;stroke-miterlimit:10;" x1="184.574" y1="210.786" x2="193.454" y2="207.89"/>
				<path style="fill:none;stroke:#263238;stroke-linecap:round;stroke-linejoin:round;stroke-miterlimit:10;" d="M189.979,205.38
					c2.346,0,4.247,1.902,4.247,4.247c0,1.99-1.369,3.661-3.217,4.121"/>
			</g>
		</g>
		<path style="fill:#263238;stroke:#263238;stroke-linecap:round;stroke-linejoin:round;stroke-miterlimit:10;" d="M187.47,198.816
			c0,0,0.579,3.089-0.386,5.019c-0.965,1.931-3.089,4.247-3.089,4.247s0.965,2.124,0.579,2.703
			c-0.386,0.579-0.965-0.772-1.737-0.772c-0.772,0-2.317,0-1.931,3.089c0.386,3.089,1.544,5.985,1.544,5.985
			s-0.579,4.054-4.826,6.564c-4.247,2.51-10.232,2.123-12.162,1.158c-1.93-0.965-11.39-13.9-11.39-22.973
			c0-9.073,14.093-16.989,21.815-16.989c7.722,0,16.989,3.861,16.989,7.722C192.875,198.43,187.47,198.816,187.47,198.816z"/>
		<path style="fill:#92E3A9;stroke:#263238;stroke-linecap:round;stroke-linejoin:round;stroke-miterlimit:10;" d="M162.759,232.794
			l-3.089,5.792c0,0,7.722-0.965,15.058-1.158c7.336-0.193,12.355,0.579,12.355,0.579l-1.931-5.212
			C185.153,232.794,169.516,229.898,162.759,232.794z"/>
		<path style="fill:#92E3A9;stroke:#263238;stroke-linecap:round;stroke-linejoin:round;stroke-miterlimit:10;" d="M145.191,246.5
			c0,0-4.247,18.34-4.247,30.116c0,11.776-1.158,18.919,1.351,19.884c2.51,0.965,11.776-3.475,11.776-3.475l-4.826-42.857
			L145.191,246.5z"/>
		<path style="fill:#263238;stroke:#263238;stroke-linecap:round;stroke-linejoin:round;stroke-miterlimit:10;" d="M152.913,296.115
			c0,0-6.371,4.826-9.266,23.938c-2.896,19.112,2.896,50,6.564,57.916c3.668,7.915,4.44,10.811,4.247,13.514
			c-0.193,2.703-4.826,8.108-1.544,22.394c3.282,14.286,7.143,39.19,7.143,39.19v2.317c0,0-1.158,0.772-0.772,1.544
			c0.386,0.772,0.965,4.054,0.965,4.054l8.494,0.193c0,0,2.124-3.282,2.124-5.985c0-2.703-0.386-6.95-0.386-6.95l-0.193-7.529
			l2.124-80.503l0.772-16.216l15.251,49.421l18.919,63.321c0,0,5.212,0.386,7.143,0.193c1.931-0.193,5.019-0.772,5.019-0.772
			s0.579-2.317,0.193-3.861c-0.386-1.544-1.351-3.668-2.51-5.792c-1.158-2.124-2.703-17.375-3.089-19.691
			c-0.386-2.317-1.544-25.29-3.282-30.695c-1.737-5.405-4.633-10.232-4.633-10.232s-2.317-56.178-6.757-71.043
			c-4.44-14.865-7.143-17.568-7.143-17.568S172.219,299.783,152.913,296.115z"/>
		<path style="fill:#92E3A9;stroke:#263238;stroke-linecap:round;stroke-linejoin:round;stroke-miterlimit:10;" d="M159.67,238.585
			c0,0-14.479,6.95-14.479,7.915c0,0.965,7.722,49.614,7.722,49.614s8.494,5.212,21.622,4.054s17.761-2.896,17.761-2.896
			s9.653-51.352,8.687-52.896c-0.965-1.544-13.9-6.371-13.9-6.371S168.744,235.11,159.67,238.585z"/>
		<polygon style="fill:#263238;stroke:#263238;stroke-linecap:round;stroke-linejoin:round;stroke-miterlimit:10;" points="
			206.582,235.689 228.204,238.971 218.358,273.141 196.929,267.543 		"/>
		<path style="fill:#FFFFFF;stroke:#263238;stroke-linecap:round;stroke-linejoin:round;stroke-miterlimit:10;" d="M208.512,281.636
			c0,0,5.792-10.811,6.371-11.197c0.579-0.386-0.965-5.599-0.772-6.95c0.193-1.351,0.579-2.51,1.351-4.44
			c0.772-1.931-0.193-3.668,1.158-3.282c1.351,0.386,1.738,1.158,1.544,3.089c-0.193,1.931-0.193,3.282-0.193,3.282l5.019-4.247
			l1.544-4.826c0,0,1.351,2.703,1.351,4.633c0,1.93-0.386,2.896-0.579,3.475c-0.193,0.579,0,4.633-2.124,7.915
			c-2.124,3.282-3.089,3.861-3.475,4.826c-0.386,0.965-1.158,8.494-3.475,14.865c-2.317,6.371-4.633,11.776-7.722,12.741
			c-3.089,0.965-5.405-6.95-4.054-11.583C205.81,285.304,208.512,281.636,208.512,281.636z"/>
		<path style="fill:#92E3A9;stroke:#263238;stroke-linecap:round;stroke-linejoin:round;stroke-miterlimit:10;" d="M187.47,270.439
			c0,0,9.46,25.483,12.162,29.151c2.703,3.668,9.653,2.51,11.197-0.772c1.544-3.282,0.386-9.073-0.193-11.969
			c-0.579-2.896-4.247-23.552-5.212-30.116c-0.965-6.564-4.44-12.355-4.44-12.355s-4.44-2.896-7.336-0.386"/>
		
			<line style="fill:none;stroke:#FFFFFF;stroke-linecap:round;stroke-linejoin:round;stroke-miterlimit:10;" x1="173.184" y1="343.991" x2="162.623" y2="339.499"/>
		<polygon style="fill:#FFFFFF;stroke:#263238;stroke-linecap:round;stroke-linejoin:round;stroke-miterlimit:10;" points="
			160.249,460.981 159.911,471.756 169.956,471.756 168.744,461.174 		"/>
		<polygon style="fill:#FFFFFF;stroke:#263238;stroke-linecap:round;stroke-linejoin:round;stroke-miterlimit:10;" points="
			159.911,471.756 169.956,471.756 169.653,469.112 159.994,469.112 		"/>
		<g>
			<path style="fill:#FFFFFF;stroke:#263238;stroke-linecap:round;stroke-linejoin:round;stroke-miterlimit:10;" d="
				M207.354,456.734c0,0-2.505,10.44-1.623,10.969c0.881,0.529,7.754,1.762,10.045,2.467c2.291,0.705,7.578,1.939,9.869,1.939
				c2.291,0,5.992,0,6.168-1.234c0.176-1.234,0.352-2.115-0.529-2.643c-0.881-0.529-4.934-3.525-7.754-6.344
				c-2.82-2.82-4.014-5.732-4.014-5.732L207.354,456.734z"/>
			<path style="fill:#FFFFFF;stroke:#263238;stroke-linecap:round;stroke-linejoin:round;stroke-miterlimit:10;" d="
				M215.952,466.998c-4.833-2.045-8.133-2.467-10.186-2.414c-0.245,1.643-0.332,2.941-0.036,3.119
				c0.881,0.529,7.754,1.762,10.045,2.467c2.291,0.705,7.578,1.938,9.869,1.938c2.291,0,5.992,0,6.168-1.234
				c0.073-0.512,0.142-0.96,0.139-1.35C229.48,469.917,223.497,470.19,215.952,466.998z"/>
		</g>
	</g>
</g>
</svg>
