<?xml version="1.0" encoding="utf-8"?>
<!-- Generator: Adobe Illustrator 27.5.0, SVG Export Plug-In . SVG Version: 6.00 Build 0)  -->
<svg version="1.1" xmlns="http://www.w3.org/2000/svg" xmlns:xlink="http://www.w3.org/1999/xlink" x="0px" y="0px"
	 viewBox="0 0 500 500" style="enable-background:new 0 0 500 500;" xml:space="preserve">
<g id="Background_Simple">
	<g>
		<path style="fill:#92E3A9;" d="M420.33,87.842C366.942,54.398,249.197,7.845,168.151,47.649
			C81.927,89.996,46.806,193.802,45.098,260.491c-1.774,69.273,10.542,127.95,44.668,155.052
			c35.784,28.418,124.793,30.874,179.395-48.357c30.237-43.877,4.245-94.573,24.491-111.917
			c29.904-25.617,109.072,2.348,162.64-57.646C498.166,150.725,452.147,107.773,420.33,87.842z"/>
		<path style="opacity:0.7;fill:#FFFFFF;" d="M420.33,87.842C366.942,54.398,249.197,7.845,168.151,47.649
			C81.927,89.996,46.806,193.802,45.098,260.491c-1.774,69.273,10.542,127.95,44.668,155.052
			c35.784,28.418,124.793,30.874,179.395-48.357c30.237-43.877,4.245-94.573,24.491-111.917
			c29.904-25.617,109.072,2.348,162.64-57.646C498.166,150.725,452.147,107.773,420.33,87.842z"/>
	</g>
</g>
<g id="Screen">
	<g>
		<path style="fill:#999999;stroke:#263238;stroke-linecap:round;stroke-linejoin:round;stroke-miterlimit:10;" d="M292.456,384.543
			c-3.205-0.452-4.807-0.677-8.012-1.129c0-13.075,0-26.149,0-39.224c3.205,0.34,4.807,0.51,8.012,0.85
			C292.456,358.208,292.456,371.376,292.456,384.543z"/>
		<path style="fill:#FFFFFF;stroke:#263238;stroke-linecap:round;stroke-linejoin:round;stroke-miterlimit:10;" d="M472.296,364.119
			c-122.564-13.002-245.127-26.004-367.691-39.006c0-74.322,0-148.644,0-222.966c122.564-15.858,245.127-31.716,367.691-47.573
			C472.296,157.755,472.296,260.937,472.296,364.119z"/>
		<path style="fill:#999999;stroke:#263238;stroke-linecap:round;stroke-linejoin:round;stroke-miterlimit:10;" d="M475.439,54.166
			C350.78,70.295,226.121,86.424,101.461,102.553c-2.585,0.334-4.68-1.05-4.68-3.092c0-1.366,0-2.049,0-3.415
			c0-2.042,2.095-3.993,4.68-4.357C226.121,74.126,350.78,56.562,475.439,38.998c2.585-0.364,4.68,1.672,4.68,4.547
			c0,1.924,0,2.886,0,4.809C480.119,51.23,478.023,53.832,475.439,54.166z"/>
		<g>
			<path style="fill:none;stroke:#FFFFFF;stroke-linecap:round;stroke-linejoin:round;stroke-miterlimit:10;" d="M465.47,44.476
				c2.617-0.373,3.926-0.56,6.543-0.933"/>
			<path style="fill:none;stroke:#FFFFFF;stroke-linecap:round;stroke-linejoin:round;stroke-miterlimit:10;" d="M447.896,46.983
				c4.017-0.573,6.026-0.86,10.043-1.433"/>
			<path style="fill:none;stroke:#FFFFFF;stroke-linecap:round;stroke-linejoin:round;stroke-miterlimit:10;" d="M135.546,91.535
				C237.71,76.963,339.874,62.39,442.037,47.818"/>
			<path style="fill:none;stroke:#FFFFFF;stroke-linecap:round;stroke-linejoin:round;stroke-miterlimit:10;" d="M104.887,95.908
				c9.1-1.298,13.649-1.947,22.749-3.245"/>
		</g>
	</g>
</g>
<g id="Chart_3">
	<g>
		<g>
			<g>
				<defs>
					<path id="XMLID_59_" d="M324.541,331.06c-20.862-1.877-41.724-3.754-62.586-5.63c0-29.444,0-58.887,0-88.331
						c20.862-0.045,41.724-0.091,62.586-0.136C324.541,268.328,324.541,299.694,324.541,331.06z"/>
				</defs>
				<use xlink:href="#XMLID_59_"  style="overflow:visible;fill:#92E3A9;"/>
				<clipPath id="XMLID_00000039846462610512901570000016053264279436460431_">
					<use xlink:href="#XMLID_59_"  style="overflow:visible;"/>
				</clipPath>
				<path style="opacity:0.8;clip-path:url(#XMLID_00000039846462610512901570000016053264279436460431_);fill:#FFFFFF;" d="
					M324.541,331.06c-20.862-1.877-41.724-3.754-62.586-5.63c0-29.444,0-58.887,0-88.331c20.862-0.045,41.724-0.091,62.586-0.136
					C324.541,268.328,324.541,299.694,324.541,331.06z"/>
			</g>
			<g>
				<defs>
					<path id="XMLID_58_" d="M387.126,336.69c-20.862-1.877-41.724-3.754-62.586-5.63c0-31.366,0-62.731,0-94.097
						c20.862-0.045,41.724-0.091,62.586-0.136C387.126,270.114,387.126,303.402,387.126,336.69z"/>
				</defs>
				<use xlink:href="#XMLID_58_"  style="overflow:visible;fill:#92E3A9;"/>
				<clipPath id="XMLID_00000124842190616275976040000009195621168140727448_">
					<use xlink:href="#XMLID_58_"  style="overflow:visible;"/>
				</clipPath>
				<path style="opacity:0.6;clip-path:url(#XMLID_00000124842190616275976040000009195621168140727448_);fill:#FFFFFF;" d="
					M387.126,336.69c-20.862-1.877-41.724-3.754-62.586-5.63c0-31.366,0-62.731,0-94.097c20.862-0.045,41.724-0.091,62.586-0.136
					C387.126,270.114,387.126,303.402,387.126,336.69z"/>
			</g>
			<g>
				<defs>
					<path id="XMLID_56_" d="M449.712,342.321c-20.862-1.877-41.724-3.754-62.586-5.63c0-33.288,0-66.576,0-99.864
						c20.862-0.046,41.724-0.091,62.586-0.136C449.712,271.9,449.712,307.11,449.712,342.321z"/>
				</defs>
				<use xlink:href="#XMLID_56_"  style="overflow:visible;fill:#92E3A9;"/>
				<clipPath id="XMLID_00000029039970553110369580000015470678439039982523_">
					<use xlink:href="#XMLID_56_"  style="overflow:visible;"/>
				</clipPath>
				<path style="opacity:0.4;clip-path:url(#XMLID_00000029039970553110369580000015470678439039982523_);fill:#FFFFFF;" d="
					M449.712,342.321c-20.862-1.877-41.724-3.754-62.586-5.63c0-33.288,0-66.576,0-99.864c20.862-0.046,41.724-0.091,62.586-0.136
					C449.712,271.9,449.712,307.11,449.712,342.321z"/>
			</g>
			<path style="fill:none;stroke:#7F7F7F;stroke-linecap:round;stroke-linejoin:round;" d="M449.712,236.69
				c-62.586,0.136-125.172,0.273-187.757,0.409"/>
			<path style="fill:none;stroke:#7F7F7F;stroke-linecap:round;stroke-linejoin:round;" d="M261.955,249.718
				c62.586,0.688,125.171,1.375,187.757,2.063"/>
			<path style="fill:none;stroke:#7F7F7F;stroke-linecap:round;stroke-linejoin:round;" d="M449.712,266.87
				c-62.586-1.511-125.172-3.023-187.757-4.534"/>
			<path style="fill:none;stroke:#7F7F7F;stroke-linecap:round;stroke-linejoin:round;" d="M261.955,274.955
				c62.586,2.335,125.171,4.67,187.757,7.005"/>
			<path style="fill:none;stroke:#7F7F7F;stroke-linecap:round;stroke-linejoin:round;" d="M449.712,297.05
				c-62.586-3.159-125.172-6.318-187.757-9.477"/>
			<path style="fill:none;stroke:#7F7F7F;stroke-linecap:round;stroke-linejoin:round;" d="M261.955,300.192
				c62.586,3.983,125.171,7.965,187.757,11.948"/>
			<path style="fill:none;stroke:#7F7F7F;stroke-linecap:round;stroke-linejoin:round;" d="M449.712,327.231
				c-62.586-4.807-125.172-9.613-187.757-14.42"/>
			<path style="fill:none;stroke:#7F7F7F;stroke-linecap:round;stroke-linejoin:round;" d="M261.955,325.43
				c62.586,5.63,125.171,11.261,187.757,16.891"/>
			<path style="fill:none;stroke:#7F7F7F;stroke-linecap:round;stroke-linejoin:round;" d="M277.601,326.837
				c0-29.924,0-59.848,0-89.772"/>
			<path style="fill:none;stroke:#7F7F7F;stroke-linecap:round;stroke-linejoin:round;" d="M261.955,237.099
				c0,29.444,0,58.887,0,88.331"/>
			<path style="fill:none;stroke:#7F7F7F;stroke-linecap:round;stroke-linejoin:round;" d="M308.894,329.652
				c0-30.885,0-61.77,0-92.655"/>
			<path style="fill:none;stroke:#7F7F7F;stroke-linecap:round;stroke-linejoin:round;" d="M293.248,237.031
				c0,30.405,0,60.809,0,91.214"/>
			<path style="fill:none;stroke:#7F7F7F;stroke-linecap:round;stroke-linejoin:round;" d="M340.187,332.467
				c0-31.846,0-63.693,0-95.539"/>
			<path style="fill:none;stroke:#7F7F7F;stroke-linecap:round;stroke-linejoin:round;" d="M324.541,236.963
				c0,31.366,0,62.731,0,94.097"/>
			<path style="fill:none;stroke:#7F7F7F;stroke-linecap:round;stroke-linejoin:round;" d="M371.48,335.283
				c0-32.807,0-65.615,0-98.422"/>
			<path style="fill:none;stroke:#7F7F7F;stroke-linecap:round;stroke-linejoin:round;" d="M355.834,236.895
				c0,32.327,0,64.654,0,96.98"/>
			<path style="fill:none;stroke:#7F7F7F;stroke-linecap:round;stroke-linejoin:round;" d="M402.773,338.098
				c0-33.768,0-67.537,0-101.306"/>
			<path style="fill:none;stroke:#7F7F7F;stroke-linecap:round;stroke-linejoin:round;" d="M387.126,236.826
				c0,33.288,0,66.576,0,99.864"/>
			<path style="fill:none;stroke:#7F7F7F;stroke-linecap:round;stroke-linejoin:round;" d="M434.066,340.913
				c0-34.73,0-69.459,0-104.189"/>
			<path style="fill:none;stroke:#7F7F7F;stroke-linecap:round;stroke-linejoin:round;" d="M418.419,236.758
				c0,34.249,0,68.498,0,102.747"/>
			<path style="fill:none;stroke:#7F7F7F;stroke-linecap:round;stroke-linejoin:round;" d="M449.712,236.69
				c0,35.21,0,70.42,0,105.631"/>
		</g>
		<path style="fill:none;stroke:#263238;stroke-linecap:round;stroke-linejoin:round;" d="M261.955,237.099
			c0,29.444,0,58.887,0,88.331c62.586,5.63,125.171,11.261,187.757,16.891c0-35.21,0-70.42,0-105.631
			C387.126,236.826,324.541,236.963,261.955,237.099z"/>
		<g>
			<g>
				<path style="fill:#263238;" d="M269.778,325.755c-1.878-0.168-2.816-0.252-4.694-0.42c0-10.128,0-15.192,0-25.32
					c1.878,0.119,2.816,0.178,4.694,0.297C269.778,310.489,269.778,315.577,269.778,325.755z"/>
				<path style="fill:#92E3A9;" d="M274.472,326.175c-1.878-0.168-2.816-0.252-4.694-0.421c0-12.722,0-25.443,0-38.165
					c1.878,0.094,2.816,0.141,4.694,0.235C274.472,300.608,274.472,313.392,274.472,326.175z"/>
				<path style="fill:#263238;" d="M285.425,327.156c-1.878-0.168-2.816-0.252-4.694-0.42c0-15.01,0-30.02,0-45.03
					c1.878,0.082,2.816,0.122,4.694,0.204C285.425,296.992,285.425,312.074,285.425,327.156z"/>
				<path style="fill:#92E3A9;" d="M290.119,327.577c-1.878-0.168-2.816-0.252-4.694-0.42c0-17.237,0-34.474,0-51.71
					c1.878,0.069,2.816,0.104,4.694,0.173C290.119,292.938,290.119,310.257,290.119,327.577z"/>
				<path style="fill:#263238;" d="M301.071,328.558c-1.878-0.168-2.816-0.252-4.694-0.421c0-13.072,0-26.143,0-39.215
					c1.878,0.094,2.816,0.141,4.694,0.235C301.071,302.29,301.071,315.424,301.071,328.558z"/>
				<path style="fill:#92E3A9;" d="M305.765,328.978c-1.878-0.168-2.816-0.252-4.694-0.42c0-15.322,0-30.645,0-45.967
					c1.877,0.082,2.816,0.122,4.694,0.204C305.765,298.189,305.765,313.583,305.765,328.978z"/>
				<path style="fill:#263238;stroke:#263238;stroke-linecap:round;stroke-linejoin:round;" d="M316.717,329.959
					c-1.878-0.168-2.816-0.252-4.694-0.421c0-10.622,0-15.933,0-26.555c1.878,0.119,2.816,0.178,4.694,0.297
					C316.717,313.952,316.717,319.287,316.717,329.959z"/>
				<path style="fill:#92E3A9;stroke:#92E3A9;stroke-linecap:round;stroke-linejoin:round;" d="M321.411,330.379
					c-1.877-0.168-2.816-0.252-4.694-0.42c0-10.676,0-21.351,0-32.027c1.878,0.109,2.816,0.163,4.694,0.272
					C321.411,308.929,321.411,319.654,321.411,330.379z"/>
				<path style="fill:#263238;" d="M332.364,331.361c-1.878-0.168-2.816-0.252-4.694-0.421c0-15.178,0-30.356,0-45.535
					c1.877,0.085,2.816,0.127,4.694,0.212C332.364,300.865,332.364,316.113,332.364,331.361z"/>
				<path style="fill:#92E3A9;" d="M337.058,331.781c-1.878-0.168-2.816-0.252-4.694-0.42c0-12.373,0-24.745,0-37.118
					c1.877,0.1,2.816,0.151,4.694,0.251C337.058,306.923,337.058,319.352,337.058,331.781z"/>
				<path style="fill:#263238;" d="M348.01,332.762c-1.878-0.168-2.816-0.252-4.694-0.42c0-13.16,0-26.321,0-39.481
					c1.878,0.097,2.816,0.145,4.694,0.242C348.01,306.322,348.01,319.542,348.01,332.762z"/>
				<path style="fill:#92E3A9;" d="M352.704,333.182c-1.878-0.168-2.816-0.252-4.694-0.421c0-15.48,0-30.959,0-46.439
					c1.878,0.085,2.816,0.127,4.694,0.212C352.704,302.084,352.704,317.633,352.704,333.182z"/>
				<path style="fill:#263238;" d="M363.657,334.163c-1.878-0.168-2.816-0.252-4.694-0.42c0-16.455,0-32.909,0-49.364
					c1.877,0.08,2.816,0.121,4.694,0.201C363.657,301.108,363.657,317.636,363.657,334.163z"/>
				<path style="fill:#92E3A9;" d="M368.351,334.584c-1.878-0.168-2.816-0.252-4.694-0.42c0-15.298,0-30.596,0-45.894
					c1.878,0.087,2.816,0.13,4.694,0.217C368.351,303.853,368.351,319.218,368.351,334.584z"/>
				<path style="fill:#263238;" d="M379.303,335.565c-1.878-0.168-2.816-0.252-4.694-0.421c0-20.267,0-40.533,0-60.8
					c1.878,0.062,2.816,0.092,4.694,0.154C379.303,294.854,379.303,315.209,379.303,335.565z"/>
				<path style="fill:#92E3A9;" d="M383.997,335.985c-1.878-0.168-2.816-0.252-4.694-0.42c0-22.764,0-45.527,0-68.291
					c1.878,0.049,2.816,0.074,4.694,0.122C383.997,290.259,383.997,313.122,383.997,335.985z"/>
				<path style="fill:#263238;" d="M394.95,336.966c-1.878-0.168-2.816-0.252-4.694-0.421c0-19.077,0-38.153,0-57.23
					c1.878,0.069,2.816,0.104,4.694,0.173C394.95,298.648,394.95,317.807,394.95,336.966z"/>
				<path style="fill:#92E3A9;" d="M399.644,276.155c0,20.41,0,40.821,0,61.232c-1.878-0.168-2.816-0.252-4.694-0.42
					c0-20.323,0-40.647,0-60.97C396.827,276.06,397.766,276.091,399.644,276.155z"/>
				<path style="fill:#263238;" d="M410.596,338.368c-1.878-0.168-2.816-0.252-4.694-0.421c0-21.932,0-43.863,0-65.795
					c1.878,0.056,2.816,0.084,4.694,0.14C410.596,294.318,410.596,316.343,410.596,338.368z"/>
				<path style="fill:#92E3A9;" d="M415.29,338.788c-1.878-0.168-2.816-0.252-4.694-0.421c0-21.574,0-43.148,0-64.722
					c1.877,0.059,2.816,0.088,4.694,0.146C415.29,295.458,415.29,317.123,415.29,338.788z"/>
				<path style="fill:#263238;" d="M426.242,339.769c-1.878-0.168-2.816-0.252-4.694-0.421c0-25.465,0-50.93,0-76.395
					c1.878,0.04,2.816,0.06,4.694,0.1C426.243,288.625,426.242,314.197,426.242,339.769z"/>
				<path style="fill:#92E3A9;" d="M430.936,340.19c-1.878-0.168-2.816-0.252-4.694-0.42c0-26.961,0-53.921,0-80.881
					c1.877,0.033,2.816,0.049,4.694,0.082C430.936,286.043,430.936,313.117,430.936,340.19z"/>
				<path style="fill:#263238;" d="M441.889,341.171c-1.878-0.168-2.816-0.252-4.694-0.421c0-29.851,0-59.701,0-89.552
					c1.877,0.02,2.816,0.03,4.694,0.05C441.889,281.222,441.889,311.197,441.889,341.171z"/>
				<path style="fill:#92E3A9;" d="M446.583,341.591c-1.878-0.168-2.816-0.252-4.694-0.42c0-31.237,0-62.474,0-93.711
					c1.877,0.014,2.816,0.021,4.694,0.034C446.583,278.859,446.583,310.225,446.583,341.591z"/>
			</g>
			<g>
				<path style="fill:#FFFFFF;stroke:#263238;stroke-linecap:round;stroke-linejoin:round;stroke-miterlimit:10;" d="
					M325.873,284.349c-5.447-0.241-8.171-0.361-13.618-0.602c-1.665-0.073-3.015-1.275-3.015-2.685c0-3.475,0-5.212,0-8.687
					c0-1.409,1.35-2.51,3.015-2.46c5.447,0.166,8.171,0.249,13.618,0.415c1.665,0.051,3.015,1.256,3.015,2.693
					c0,3.542,0,5.314,0,8.856C328.888,283.317,327.538,284.422,325.873,284.349z"/>
				<g>
					<path style="fill:#263238;" d="M313.176,280.429c-1.059-0.226-1.595-0.941-1.595-1.941c0-0.209,0-0.314,0-0.523
						c0.558,0.021,0.837,0.032,1.394,0.054c0,0.241,0,0.362,0,0.603c0,0.49,0.295,0.706,0.764,0.725
						c0.469,0.019,0.764-0.175,0.764-0.688c0-0.571-0.271-0.991-1.26-1.689c-1.206-0.851-1.622-1.505-1.622-2.369
						c0-0.966,0.523-1.631,1.555-1.79c0-0.278,0-0.417,0-0.694c0.483,0.016,0.724,0.024,1.207,0.039c0,0.278,0,0.417,0,0.695
						c1.046,0.217,1.581,0.921,1.581,1.925c0,0.091,0,0.137,0,0.229c-0.557-0.02-0.836-0.029-1.394-0.049c0-0.123,0-0.185,0-0.308
						c0-0.491-0.268-0.716-0.737-0.732c-0.469-0.016-0.737,0.191-0.737,0.658c0,0.524,0.27,0.931,1.26,1.64
						c1.206,0.863,1.622,1.51,1.622,2.423c0,1.027-0.549,1.702-1.595,1.842c0,0.319,0,0.479,0,0.798
						c-0.483-0.02-0.724-0.03-1.207-0.05C313.176,280.908,313.176,280.748,313.176,280.429z"/>
					<path style="fill:#999999;stroke:#263238;stroke-linecap:round;stroke-linejoin:round;stroke-miterlimit:10;" d="
						M324.226,277.727c0-2.1,0-3.15,0-5.25c-1.304-0.043-1.956-0.064-3.26-0.106c0,2.094,0,3.14,0,5.234
						c-0.929-0.035-1.393-0.053-2.322-0.088c1.581,1.792,2.371,2.691,3.951,4.496c1.581-1.672,2.371-2.512,3.951-4.198
						C325.619,277.779,325.155,277.762,324.226,277.727z"/>
				</g>
			</g>
			<g>
				<path style="fill:#FFFFFF;stroke:#263238;stroke-linecap:round;stroke-linejoin:round;stroke-miterlimit:10;" d="
					M412.711,263.976c-5.447-0.122-8.171-0.183-13.618-0.304c-1.665-0.037-3.015-1.308-3.015-2.839c0-3.775,0-5.662,0-9.437
					c0-1.531,1.35-2.76,3.015-2.746c5.447,0.047,8.171,0.071,13.618,0.118c1.665,0.014,3.015,1.289,3.015,2.847
					c0,3.843,0,5.764,0,9.606C415.726,262.78,414.376,264.013,412.711,263.976z"/>
				<g>
					<path style="fill:#263238;" d="M400.014,260.045c-1.059-0.218-1.595-0.982-1.595-2.068c0-0.227,0-0.341,0-0.568
						c0.558,0.009,0.837,0.014,1.394,0.023c0,0.262,0,0.393,0,0.656c0,0.531,0.295,0.759,0.764,0.768
						c0.469,0.008,0.764-0.209,0.764-0.766c0-0.62-0.271-1.07-1.26-1.803c-1.206-0.894-1.622-1.594-1.622-2.533
						c0-1.049,0.523-1.784,1.555-1.983c0-0.302,0-0.453,0-0.754c0.483,0.005,0.724,0.008,1.207,0.013c0,0.302,0,0.453,0,0.755
						c1.046,0.21,1.581,0.96,1.581,2.051c0,0.099,0,0.149,0,0.248c-0.557-0.008-0.836-0.011-1.394-0.019c0-0.134,0-0.201,0-0.334
						c0-0.533-0.268-0.771-0.737-0.777c-0.469-0.006-0.737,0.225-0.737,0.732c0,0.569,0.27,1.005,1.26,1.75
						c1.206,0.907,1.622,1.599,1.622,2.591c0,1.116-0.55,1.862-1.595,2.04c0,0.347,0,0.52,0,0.867
						c-0.483-0.01-0.724-0.014-1.207-0.024C400.014,260.564,400.014,260.391,400.014,260.045z"/>
					<path style="fill:#999999;stroke:#263238;stroke-linecap:round;stroke-linejoin:round;stroke-miterlimit:10;" d="
						M407.804,255.811c0,2.272,0,3.408,0,5.68c1.304,0.026,1.956,0.04,3.26,0.066c0-2.279,0-3.418,0-5.697
						c0.928,0.014,1.393,0.021,2.321,0.035c-1.581-1.917-2.371-2.873-3.951-4.776c-1.581,1.87-2.371,2.801-3.951,4.658
						C406.411,255.79,406.876,255.797,407.804,255.811z"/>
				</g>
			</g>
		</g>
	</g>
</g>
<g id="Chart_2">
	<g>
		<g>
			<path style="fill:#92E3A9;stroke:#263238;stroke-linecap:round;stroke-linejoin:round;stroke-miterlimit:10;" d="
				M353.772,185.932c4.04,0.867,8.305,1.292,12.717,1.171c24.049-0.656,45.891-18.717,45.96-42.3
				c0.067-22.616-22.681-39.874-45.96-36.529c0,13.138,0,26.276,0,39.414C362.278,160.445,358.04,173.192,353.772,185.932z"/>
			<path style="fill:#999999;stroke:#263238;stroke-linecap:round;stroke-linejoin:round;stroke-miterlimit:10;" d="
				M366.489,147.689c0-13.138,0-26.276,0-39.414c-22.454,2.292-46.327,19.906-45.96,42.3c0.276,16.889,15.32,32.206,33.244,35.357
				C358.04,173.192,362.278,160.445,366.489,147.689z"/>
			<g>
				<path style="fill:none;stroke:#263238;stroke-linecap:round;stroke-linejoin:round;stroke-miterlimit:10;" d="M349.806,131.596
					c0-1.397-1.341-2.422-2.995-2.289c-1.654,0.133-2.995,1.368-2.995,2.757c0,0.278,0,1.311,0,1.589
					c0,1.39,1.341,2.416,2.994,2.293c1.654-0.123,2.995-1.356,2.995-2.753"/>
				<path style="fill:none;stroke:#263238;stroke-linecap:round;stroke-linejoin:round;stroke-miterlimit:10;" d="M341.461,161.998
					c0,2.044,0,3.066,0,5.11c0,0.924,0.894,1.633,1.996,1.584l0,0c1.103-0.05,1.996-0.842,1.996-1.77c0-5.149,0-7.723,0-12.872
					c0-0.619,0.551-1.206,1.285-1.282c0.783-0.081,1.431,0.406,1.431,1.059c0,5.187,0,7.781,0,12.969
					c0,0.93,0.894,1.644,1.996,1.594l0,0c1.103-0.049,1.996-0.846,1.996-1.78c0-4.98,0-7.471,0-12.451"/>
				<path style="fill:none;stroke:#263238;stroke-linecap:round;stroke-linejoin:round;stroke-miterlimit:10;" d="M341.461,158.645
					c0,0.602,0,0.902,0,1.504"/>
				<path style="fill:none;stroke:#263238;stroke-linecap:round;stroke-linejoin:round;stroke-miterlimit:10;" d="M352.163,152.336
					c0-4.053,0-6.079,0-10.132c0-0.301,0.288-0.564,0.643-0.589l0,0c0.355-0.025,0.643,0.2,0.643,0.501c0,2.402,0,3.602,0,6.004
					c0,0.707,0.61,1.301,1.44,1.317c0.952,0.018,1.754-0.666,1.754-1.46c0-2.89,0-4.335,0-7.224c0-1.901-1.813-3.311-4.05-3.148
					c-4.625,0.336-6.938,0.504-11.563,0.84c-2.237,0.163-4.05,1.808-4.05,3.676c0,2.816,0,4.223,0,7.039
					c0,0.697,0.61,1.281,1.44,1.296c0.953,0.017,1.754-0.658,1.754-1.44c0-2.396,0-3.594,0-5.99c0-0.297,0.288-0.558,0.643-0.583h0
					c0.355-0.025,0.643,0.197,0.643,0.495c0,5.698,0,8.547,0,14.245"/>
			</g>
			<g>
				<g>
					<path style="fill:none;stroke:#263238;stroke-linecap:round;stroke-linejoin:round;stroke-miterlimit:10;" d="M388.93,129.692
						c0.211,1.254,0.516,3.076,0.516,3.076c-2.852,0.213-4.28,0.319-7.132,0.532c0,0,0.66-4.012,0.708-4.304
						c0.24-1.458,1.52-2.728,2.858-2.836c1.338-0.108,2.618,0.961,2.857,2.389"/>
				</g>
				<path style="fill:none;stroke:#263238;stroke-linecap:round;stroke-linejoin:round;stroke-miterlimit:10;" d="M395.097,145.551
					c0-2.99,0-4.484,0-7.474c0-1.967-1.813-3.43-4.05-3.267"/>
				<path style="fill:none;stroke:#263238;stroke-linecap:round;stroke-linejoin:round;stroke-miterlimit:10;" d="M390.616,157.496
					c0-1.015,0-1.522,0-2.537c0.914-0.05,1.371-0.076,2.285-0.126c-0.914-6.118-1.371-9.171-2.285-15.264
					c0-0.311,0.288-0.583,0.643-0.608c0.355-0.024,0.643,0.208,0.643,0.52c0,2.485,0,3.727,0,6.212c0,0.731,0.61,1.347,1.44,1.365"
					/>
				<path style="fill:none;stroke:#263238;stroke-linecap:round;stroke-linejoin:round;stroke-miterlimit:10;" d="M390.616,160.729
					c0-0.701,0-1.051,0-1.751"/>
				<path style="fill:none;stroke:#263238;stroke-linecap:round;stroke-linejoin:round;stroke-miterlimit:10;" d="M379.134,153.76
					c-0.11,0.739-0.165,1.108-0.275,1.847c0.914-0.05,1.371-0.076,2.285-0.126c0,3.912,0,5.869,0,9.781
					c0,0.958,0.894,1.694,1.996,1.645c1.103-0.049,1.996-0.869,1.996-1.83c0-3.926,0-5.889,0-9.815
					c0.594-0.033,0.891-0.049,1.486-0.082c0,3.931,0,5.897,0,9.828c0,0.963,0.894,1.703,1.996,1.653
					c1.103-0.05,1.996-0.873,1.996-1.839c0-0.937,0-1.405,0-2.341"/>
				<path style="fill:none;stroke:#263238;stroke-linecap:round;stroke-linejoin:round;stroke-miterlimit:10;" d="M387.587,135.061
					c-2.749,0.2-4.124,0.3-6.873,0.499c-2.237,0.163-4.05,1.863-4.05,3.799c0,2.918,0,4.377,0,7.295c0,0.722,0.61,1.329,1.44,1.346
					c0.953,0.02,1.754-0.678,1.754-1.488c0-2.483,0-3.724,0-6.207c0-0.308,0.288-0.578,0.643-0.603h0
					c0.355-0.025,0.643,0.206,0.643,0.514c-0.623,4.205-0.935,6.305-1.558,10.499"/>
			</g>
		</g>
		<g>
			<g>
				<path style="fill:#999999;stroke:#263238;stroke-linecap:round;stroke-linejoin:round;stroke-miterlimit:10;" d="M429.259,141.2
					c-2.034,0.132-3.05,0.198-5.084,0.33c-1.996,0.13-3.614-1.22-3.614-3.014c0-1.828,0-2.742,0-4.57
					c0-1.794,1.618-3.369,3.614-3.517c2.033-0.151,3.05-0.227,5.083-0.378c1.996-0.148,3.614,1.201,3.614,3.014
					c0,1.847,0,2.77,0,4.617C432.873,139.496,431.255,141.07,429.259,141.2z"/>
				<path style="fill:#263238;" d="M441.533,137.782c-1.239,0.083-1.859,0.125-3.099,0.208c0-0.539,0-0.808,0-1.347
					c1.18-2.628,1.77-3.945,2.951-6.586c0.708-0.052,1.063-0.078,1.771-0.13c0,2.558,0,3.837,0,6.394
					c0.307-0.021,0.461-0.031,0.768-0.052c0,0.541,0,0.812,0,1.353c-0.307,0.021-0.461,0.031-0.768,0.051c0,0.687,0,1.03,0,1.717
					c-0.649,0.043-0.974,0.064-1.623,0.107C441.533,138.811,441.533,138.468,441.533,137.782z M441.533,136.432
					c0-1.474,0-2.211,0-3.685c-0.011,0.001-0.017,0.001-0.029,0.002c-0.638,1.52-0.957,2.278-1.594,3.794
					C440.56,136.498,440.884,136.476,441.533,136.432z"/>
				<path style="fill:#263238;" d="M444.68,136.975c0-0.298,0-0.447,0-0.744c0.614-0.042,0.921-0.063,1.534-0.105
					c0,0.342,0,0.512,0,0.854c0,0.678,0.324,0.9,0.841,0.865c0.517-0.034,0.841-0.3,0.841-0.979c0-0.852,0-1.279,0-2.131
					c0-0.679-0.324-0.914-0.841-0.878c-0.517,0.036-0.841,0.317-0.841,0.994c0,0.033,0,0.049,0,0.081
					c-0.614,0.042-0.921,0.064-1.534,0.106c0.118-2.125,0.177-3.188,0.294-5.314c1.712-0.126,2.568-0.189,4.28-0.315
					c0,0.544,0,0.815,0,1.359c-1.133,0.082-1.7,0.123-2.833,0.205c-0.053,0.909-0.08,1.364-0.133,2.273
					c0.012-0.001,0.018-0.001,0.03-0.002c0.296-0.468,0.752-0.744,1.402-0.791c1.194-0.085,1.8,0.646,1.8,2.046
					c0,0.859,0,1.288,0,2.147c0,1.522-0.827,2.446-2.42,2.551C445.506,139.303,444.68,138.491,444.68,136.975z"/>
				<path style="fill:#263238;" d="M450.541,133.151c0-0.952,0-1.428,0-2.38c0-0.98,0.546-1.564,1.564-1.639
					c1.018-0.075,1.563,0.43,1.563,1.412c0,0.954,0,1.432,0,2.386c0,0.982-0.545,1.565-1.563,1.636
					C451.086,134.637,450.541,134.13,450.541,133.151z M452.636,133.071c0-1.008,0-1.512,0-2.521c0-0.423-0.207-0.585-0.531-0.561
					c-0.34,0.025-0.531,0.216-0.531,0.638c0,1.007,0,1.511,0,2.518c0,0.422,0.191,0.586,0.531,0.562
					C452.43,133.686,452.636,133.494,452.636,133.071z M455.852,128.992c0.413-0.03,0.62-0.046,1.033-0.076
					c-1.599,3.946-2.399,5.913-3.999,9.834c-0.413,0.027-0.62,0.041-1.033,0.068C453.453,134.9,454.253,132.935,455.852,128.992z
					 M455.07,137.214c0-0.956,0-1.434,0-2.39c0-0.983,0.547-1.568,1.564-1.639c1.018-0.071,1.564,0.438,1.564,1.423
					c0,0.958,0,1.437,0,2.396c0,0.985-0.547,1.569-1.564,1.635C455.617,138.708,455.07,138.197,455.07,137.214z M457.166,137.142
					c0-1.012,0-1.518,0-2.53c0-0.424-0.207-0.587-0.531-0.564c-0.339,0.023-0.531,0.214-0.531,0.638c0,1.011,0,1.517,0,2.528
					c0,0.424,0.192,0.589,0.531,0.566C456.959,137.758,457.166,137.567,457.166,137.142z"/>
			</g>
			<g>
				<path style="fill:#92E3A9;stroke:#263238;stroke-linecap:round;stroke-linejoin:round;stroke-miterlimit:10;" d="
					M429.259,157.445c-2.034,0.104-3.05,0.156-5.084,0.26c-1.996,0.102-3.614-1.269-3.614-3.063c0-1.828,0-2.742,0-4.57
					c0-1.794,1.618-3.346,3.614-3.467c2.033-0.123,3.05-0.185,5.084-0.308c1.996-0.121,3.614,1.25,3.614,3.063
					c0,1.847,0,2.77,0,4.617C432.873,155.79,431.255,157.343,429.259,157.445z"/>
				<path style="fill:#263238;" d="M438.775,153.75c0-0.296,0-0.444,0-0.741c0.614-0.033,0.921-0.05,1.534-0.084
					c0,0.34,0,0.51,0,0.849c0,0.674,0.324,0.9,0.841,0.872c0.516-0.027,0.841-0.288,0.841-0.963c0-0.848,0-1.272,0-2.12
					c0-0.675-0.325-0.914-0.841-0.885c-0.517,0.029-0.841,0.304-0.841,0.978c0,0.032,0,0.049,0,0.081
					c-0.614,0.034-0.921,0.051-1.534,0.085c0.118-2.113,0.177-3.17,0.294-5.284c1.712-0.103,2.568-0.154,4.28-0.257
					c0,0.541,0,0.811,0,1.352c-1.133,0.067-1.7,0.1-2.833,0.167c-0.053,0.904-0.08,1.356-0.133,2.26
					c0.012-0.001,0.018-0.001,0.03-0.002c0.296-0.462,0.752-0.731,1.402-0.768c1.194-0.069,1.8,0.667,1.8,2.06
					c0,0.855,0,1.282,0,2.137c0,1.515-0.827,2.423-2.42,2.506C439.6,156.078,438.775,155.258,438.775,153.75z"/>
				<path style="fill:#263238;" d="M444.68,153.432c0-0.298,0-0.447,0-0.744c0.614-0.034,0.921-0.05,1.534-0.084
					c0,0.342,0,0.512,0,0.854c0,0.678,0.324,0.904,0.841,0.877c0.517-0.027,0.841-0.289,0.841-0.967c0-0.852,0-1.278,0-2.131
					c0-0.678-0.324-0.918-0.841-0.889c-0.517,0.029-0.841,0.305-0.841,0.983c0,0.032,0,0.049,0,0.081
					c-0.614,0.034-0.921,0.051-1.534,0.085c0.118-2.124,0.177-3.186,0.294-5.31c1.712-0.103,2.568-0.154,4.28-0.257
					c0,0.543,0,0.815,0,1.359c-1.133,0.067-1.7,0.1-2.833,0.166c-0.053,0.909-0.08,1.363-0.133,2.271
					c0.012-0.001,0.018-0.001,0.03-0.002c0.296-0.464,0.752-0.734,1.402-0.772c1.194-0.069,1.8,0.671,1.8,2.071
					c0,0.859,0,1.288,0,2.147c0,1.522-0.827,2.435-2.42,2.517C445.506,155.771,444.68,154.947,444.68,153.432z"/>
				<path style="fill:#263238;" d="M450.541,149.688c0-0.952,0-1.428,0-2.38c0-0.98,0.546-1.556,1.564-1.617
					c1.018-0.061,1.563,0.451,1.563,1.434c0,0.954,0,1.432,0,2.386c0,0.982-0.545,1.558-1.563,1.614
					C451.086,151.181,450.541,150.667,450.541,149.688z M452.636,149.637c0-1.008,0-1.512,0-2.521c0-0.423-0.207-0.587-0.531-0.568
					c-0.34,0.02-0.531,0.208-0.531,0.631c0,1.007,0,1.511,0,2.518c0,0.422,0.191,0.588,0.531,0.569
					C452.43,150.248,452.636,150.059,452.636,149.637z M455.852,145.602c0.413-0.025,0.62-0.037,1.033-0.062
					c-1.599,3.924-2.399,5.88-3.999,9.779c-0.413,0.021-0.62,0.032-1.033,0.054C453.453,151.477,454.253,149.523,455.852,145.602z
					 M455.07,153.813c0-0.956,0-1.434,0-2.39c0-0.983,0.547-1.56,1.564-1.617c1.018-0.057,1.564,0.46,1.564,1.445
					c0,0.958,0,1.438,0,2.396c0,0.985-0.547,1.561-1.564,1.614C455.617,155.314,455.07,154.796,455.07,153.813z M457.166,153.77
					c0-1.012,0-1.518,0-2.53c0-0.424-0.207-0.59-0.531-0.572c-0.339,0.019-0.531,0.207-0.531,0.63c0,1.011,0,1.517,0,2.528
					c0,0.424,0.192,0.591,0.531,0.574C456.959,154.383,457.166,154.194,457.166,153.77z"/>
			</g>
		</g>
	</g>
</g>
<g id="Chart_1">
	<g>
		<g>
			<g>
				<g>
					<defs>
						<path id="XMLID_62_" d="M184.044,209.245c-20.862,0.481-41.724,0.961-62.586,1.442c0-34.249,0-68.498,0-102.747
							c20.862-2.403,41.724-4.806,62.586-7.209C184.044,136.902,184.044,173.073,184.044,209.245z"/>
					</defs>
					<use xlink:href="#XMLID_62_"  style="overflow:visible;fill:#92E3A9;"/>
					<clipPath id="XMLID_00000023257318820439042650000015267380238432210324_">
						<use xlink:href="#XMLID_62_"  style="overflow:visible;"/>
					</clipPath>
					<path style="opacity:0.8;clip-path:url(#XMLID_00000023257318820439042650000015267380238432210324_);fill:#FFFFFF;" d="
						M184.044,209.245c-20.862,0.481-41.724,0.961-62.586,1.442c0-34.249,0-68.498,0-102.747
						c20.862-2.403,41.724-4.806,62.586-7.209C184.044,136.902,184.044,173.073,184.044,209.245z"/>
				</g>
				<g>
					<defs>
						<path id="XMLID_61_" d="M246.629,207.803c-20.862,0.481-41.724,0.961-62.586,1.442c0-36.171,0-72.343,0-108.514
							c20.862-2.403,41.724-4.805,62.586-7.208C246.629,131.616,246.629,169.709,246.629,207.803z"/>
					</defs>
					<use xlink:href="#XMLID_61_"  style="overflow:visible;fill:#92E3A9;"/>
					<clipPath id="XMLID_00000054961004014995228200000001103074422135546520_">
						<use xlink:href="#XMLID_61_"  style="overflow:visible;"/>
					</clipPath>
					<path style="opacity:0.6;clip-path:url(#XMLID_00000054961004014995228200000001103074422135546520_);fill:#FFFFFF;" d="
						M246.629,207.803c-20.862,0.481-41.724,0.961-62.586,1.442c0-36.171,0-72.343,0-108.514
						c20.862-2.403,41.724-4.805,62.586-7.208C246.629,131.616,246.629,169.709,246.629,207.803z"/>
				</g>
				<g>
					<defs>
						<path id="XMLID_60_" d="M309.215,206.361c-20.862,0.48-41.724,0.961-62.586,1.442c0-38.093,0-76.187,0-114.28
							c20.862-2.403,41.724-4.806,62.586-7.208C309.215,126.33,309.215,166.345,309.215,206.361z"/>
					</defs>
					<use xlink:href="#XMLID_60_"  style="overflow:visible;fill:#92E3A9;"/>
					<clipPath id="XMLID_00000052818323928419706310000009296000945608500868_">
						<use xlink:href="#XMLID_60_"  style="overflow:visible;"/>
					</clipPath>
					<path style="opacity:0.4;clip-path:url(#XMLID_00000052818323928419706310000009296000945608500868_);fill:#FFFFFF;" d="
						M309.215,206.361c-20.862,0.48-41.724,0.961-62.586,1.442c0-38.093,0-76.187,0-114.28c20.862-2.403,41.724-4.806,62.586-7.208
						C309.215,126.33,309.215,166.345,309.215,206.361z"/>
				</g>
				<path style="fill:none;stroke:#7F7F7F;stroke-linecap:round;stroke-linejoin:round;" d="M309.215,86.314
					c-62.586,7.208-125.171,14.417-187.757,21.625"/>
				<path style="fill:none;stroke:#7F7F7F;stroke-linecap:round;stroke-linejoin:round;" d="M121.458,122.617
					c62.586-6.385,125.171-12.769,187.757-19.154"/>
				<path style="fill:none;stroke:#7F7F7F;stroke-linecap:round;stroke-linejoin:round;" d="M309.215,120.613
					c-62.586,5.561-125.171,11.122-187.757,16.682"/>
				<path style="fill:none;stroke:#7F7F7F;stroke-linecap:round;stroke-linejoin:round;" d="M121.458,151.974
					c62.586-4.737,125.171-9.474,187.757-14.211"/>
				<path style="fill:none;stroke:#7F7F7F;stroke-linecap:round;stroke-linejoin:round;" d="M309.215,154.912
					c-62.586,3.913-125.171,7.826-187.757,11.74"/>
				<path style="fill:none;stroke:#7F7F7F;stroke-linecap:round;stroke-linejoin:round;" d="M121.458,181.33
					c62.586-3.089,125.171-6.179,187.757-9.268"/>
				<path style="fill:none;stroke:#7F7F7F;stroke-linecap:round;stroke-linejoin:round;" d="M309.215,189.212
					c-62.586,2.266-125.171,4.531-187.757,6.796"/>
				<path style="fill:none;stroke:#7F7F7F;stroke-linecap:round;stroke-linejoin:round;" d="M121.458,210.686
					c62.586-1.442,125.171-2.883,187.757-4.325"/>
				<path style="fill:none;stroke:#7F7F7F;stroke-linecap:round;stroke-linejoin:round;" d="M137.104,210.326
					c0-34.73,0-69.459,0-104.189"/>
				<path style="fill:none;stroke:#7F7F7F;stroke-linecap:round;stroke-linejoin:round;" d="M121.458,107.939
					c0,34.249,0,68.498,0,102.747"/>
				<path style="fill:none;stroke:#7F7F7F;stroke-linecap:round;stroke-linejoin:round;" d="M168.397,209.605
					c0-35.691,0-71.381,0-107.072"/>
				<path style="fill:none;stroke:#7F7F7F;stroke-linecap:round;stroke-linejoin:round;" d="M152.751,104.335
					c0,35.21,0,70.42,0,105.631"/>
				<path style="fill:none;stroke:#7F7F7F;stroke-linecap:round;stroke-linejoin:round;" d="M199.69,208.884
					c0-36.652,0-73.304,0-109.955"/>
				<path style="fill:none;stroke:#7F7F7F;stroke-linecap:round;stroke-linejoin:round;" d="M184.044,100.731
					c0,36.171,0,72.343,0,108.514"/>
				<path style="fill:none;stroke:#7F7F7F;stroke-linecap:round;stroke-linejoin:round;" d="M230.983,208.163
					c0-37.613,0-75.226,0-112.839"/>
				<path style="fill:none;stroke:#7F7F7F;stroke-linecap:round;stroke-linejoin:round;" d="M215.337,97.127
					c0,37.132,0,74.265,0,111.397"/>
				<path style="fill:none;stroke:#7F7F7F;stroke-linecap:round;stroke-linejoin:round;" d="M262.276,207.442
					c0-38.574,0-77.148,0-115.722"/>
				<path style="fill:none;stroke:#7F7F7F;stroke-linecap:round;stroke-linejoin:round;" d="M246.629,93.522
					c0,38.093,0,76.187,0,114.28"/>
				<path style="fill:none;stroke:#7F7F7F;stroke-linecap:round;stroke-linejoin:round;" d="M293.569,206.722
					c0-39.535,0-79.071,0-118.606"/>
				<path style="fill:none;stroke:#7F7F7F;stroke-linecap:round;stroke-linejoin:round;" d="M277.922,89.918
					c0,39.055,0,78.109,0,117.164"/>
				<path style="fill:none;stroke:#7F7F7F;stroke-linecap:round;stroke-linejoin:round;" d="M309.215,86.314
					c0,40.016,0,80.031,0,120.047"/>
			</g>
			<path style="fill:none;stroke:#263238;stroke-linecap:round;stroke-linejoin:round;" d="M121.458,107.939
				c0,34.249,0,68.498,0,102.747c62.586-1.442,125.171-2.883,187.757-4.325c0-40.016,0-80.032,0-120.047
				C246.629,93.522,184.044,100.731,121.458,107.939z"/>
			<g>
				<path style="fill:none;stroke:#263238;stroke-linecap:round;stroke-linejoin:round;" d="M121.458,196.008
					c0.447-0.016,0.67-0.024,1.118-0.04"/>
				<path style="fill:none;stroke:#263238;stroke-linecap:round;stroke-linejoin:round;stroke-dasharray:1.7143,1.7143;" d="
					M124.492,195.898c4.215-0.153,6.322-0.229,10.537-0.382"/>
				<path style="fill:none;stroke:#263238;stroke-linecap:round;stroke-linejoin:round;" d="M135.987,195.482
					c0.447-0.016,0.671-0.024,1.118-0.04c0.316-0.312,0.474-0.468,0.79-0.781"/>
				<path style="fill:none;stroke:#263238;stroke-linecap:round;stroke-linejoin:round;stroke-dasharray:1.9777,1.9777;" d="
					M139.458,193.113c4.689-4.648,7.033-6.996,11.722-11.737"/>
				<path style="fill:none;stroke:#263238;stroke-linecap:round;stroke-linejoin:round;" d="M151.961,180.586
					c0.316-0.32,0.474-0.48,0.79-0.801c0.316,0.289,0.474,0.434,0.79,0.724"/>
				<path style="fill:none;stroke:#263238;stroke-linecap:round;stroke-linejoin:round;stroke-dasharray:1.5799,1.5799;" d="
					M154.79,181.654c1.748,1.605,2.622,2.411,4.37,4.03"/>
				<path style="fill:none;stroke:#263238;stroke-linecap:round;stroke-linejoin:round;" d="M159.784,186.262
					c0.316,0.293,0.474,0.44,0.79,0.733c0.141-0.418,0.212-0.627,0.353-1.045"/>
				<path style="fill:none;stroke:#263238;stroke-linecap:round;stroke-linejoin:round;stroke-dasharray:1.8305,1.8305;" d="
					M161.574,184.036c2.458-7.279,3.688-10.938,6.146-18.293"/>
				<path style="fill:none;stroke:#263238;stroke-linecap:round;stroke-linejoin:round;" d="M168.044,164.775
					c0.141-0.423,0.212-0.635,0.353-1.058c0.447-0.028,0.671-0.042,1.118-0.07"/>
				<path style="fill:none;stroke:#263238;stroke-linecap:round;stroke-linejoin:round;stroke-dasharray:1.6667,1.6667;" d="
					M171.378,163.531c1.118-0.07,1.676-0.105,2.794-0.175"/>
				<path style="fill:none;stroke:#263238;stroke-linecap:round;stroke-linejoin:round;" d="M175.103,163.298
					c0.447-0.028,0.671-0.042,1.118-0.07c0.2-0.406,0.3-0.609,0.5-1.015"/>
				<path style="fill:none;stroke:#263238;stroke-linecap:round;stroke-linejoin:round;stroke-dasharray:1.9504,1.9504;" d="
					M177.695,160.229c2.145-4.366,3.217-6.559,5.361-10.964"/>
				<path style="fill:none;stroke:#263238;stroke-linecap:round;stroke-linejoin:round;" d="M183.544,148.264
					c0.2-0.411,0.3-0.617,0.5-1.028c0.447-0.034,0.671-0.051,1.118-0.085"/>
				<path style="fill:none;stroke:#263238;stroke-linecap:round;stroke-linejoin:round;stroke-dasharray:1.7143,1.7143;" d="
					M187.077,147.007c4.215-0.319,6.322-0.479,10.537-0.798"/>
				<path style="fill:none;stroke:#263238;stroke-linecap:round;stroke-linejoin:round;" d="M198.573,146.137
					c0.447-0.034,0.67-0.051,1.118-0.085c0.316-0.341,0.474-0.512,0.79-0.854"/>
				<path style="fill:none;stroke:#263238;stroke-linecap:round;stroke-linejoin:round;stroke-dasharray:1.5799,1.5799;" d="
					M201.729,143.848c1.748-1.893,2.622-2.843,4.37-4.749"/>
				<path style="fill:none;stroke:#263238;stroke-linecap:round;stroke-linejoin:round;" d="M206.723,138.418
					c0.316-0.345,0.474-0.518,0.79-0.863c0.447-0.037,0.671-0.055,1.118-0.092"/>
				<path style="fill:none;stroke:#263238;stroke-linecap:round;stroke-linejoin:round;stroke-dasharray:1.9909,1.9909;" d="
					M210.856,137.28c4.922-0.405,7.382-0.607,12.304-1.012c2.499-2.763,3.748-4.151,6.246-6.941"/>
				<path style="fill:none;stroke:#263238;stroke-linecap:round;stroke-linejoin:round;" d="M230.193,128.448
					c0.316-0.353,0.474-0.53,0.79-0.884c0.316,0.298,0.474,0.446,0.79,0.744"/>
				<path style="fill:none;stroke:#263238;stroke-linecap:round;stroke-linejoin:round;stroke-dasharray:1.9777,1.9777;" d="
					M233.336,129.784c4.689,4.432,7.033,6.672,11.722,11.197"/>
				<path style="fill:none;stroke:#263238;stroke-linecap:round;stroke-linejoin:round;" d="M245.839,141.735
					c0.316,0.305,0.474,0.458,0.79,0.764c0.316-0.354,0.474-0.531,0.79-0.885"/>
				<path style="fill:none;stroke:#263238;stroke-linecap:round;stroke-linejoin:round;stroke-dasharray:1.5799,1.5799;" d="
					M248.668,140.214c1.748-1.962,2.622-2.946,4.37-4.921"/>
				<path style="fill:none;stroke:#263238;stroke-linecap:round;stroke-linejoin:round;" d="M253.662,134.587
					c0.316-0.357,0.474-0.536,0.79-0.894c0.447-0.037,0.671-0.055,1.118-0.092"/>
				<path style="fill:none;stroke:#263238;stroke-linecap:round;stroke-linejoin:round;stroke-dasharray:1.9266,1.9266;" d="
					M257.723,133.424c4.95-0.407,7.425-0.611,12.376-1.018c3.129-3.585,4.694-5.387,7.823-9.013c2.252-0.2,3.377-0.3,5.629-0.5"/>
				<path style="fill:none;stroke:#263238;stroke-linecap:round;stroke-linejoin:round;" d="M284.628,122.798
					c0.447-0.04,0.671-0.06,1.118-0.099c0.2-0.448,0.3-0.672,0.5-1.121"/>
				<path style="fill:none;stroke:#263238;stroke-linecap:round;stroke-linejoin:round;stroke-dasharray:1.9504,1.9504;" d="
					M287.22,119.389c2.145-4.818,3.217-7.236,5.362-12.093"/>
				<path style="fill:none;stroke:#263238;stroke-linecap:round;stroke-linejoin:round;" d="M293.069,106.193
					c0.2-0.453,0.3-0.68,0.5-1.133"/>
			</g>
			<path style="fill:none;stroke:#263238;stroke-linecap:round;stroke-linejoin:round;stroke-miterlimit:10;" d="M121.458,181.33
				c6.258-0.309,9.388-0.463,15.646-0.772c6.259-3.286,9.388-4.949,15.646-8.317c3.129-0.175,4.694-0.263,7.823-0.438
				c3.129-6.252,4.694-9.399,7.823-15.734c3.129-3.275,4.694-4.923,7.823-8.24c3.129-6.396,4.694-9.615,7.823-16.094
				c6.258,2.544,9.388,3.837,15.646,6.464c3.129,2.884,4.694,4.337,7.823,7.262c6.259-6.798,9.388-10.238,15.646-17.201
				c3.129-6.685,4.694-10.048,7.823-16.815c6.259,5.809,9.388,8.755,15.646,14.73c3.129,6.252,4.694,9.399,7.823,15.734
				c6.258-0.474,9.388-0.711,15.646-1.184c3.129-3.564,4.694-5.356,7.823-8.961c3.129-10.3,4.694-15.481,7.823-25.905
				c3.129-7.055,4.694-10.604,7.823-17.742"/>
		</g>
		<g>
			<path style="fill:#263238;" d="M151.463,222.846c-0.282,0.106-0.617,0.162-0.979,0.167c-1.447,0.017-2.238-0.798-2.238-2.24
				c0-1.895,0-2.843,0-4.738c0-1.442,0.791-2.282,2.238-2.311c1.448-0.029,2.239,0.783,2.239,2.231c0,1.903,0,2.854,0,4.757
				c0,0.62-0.147,1.113-0.415,1.491c0.107,0.18,0.281,0.203,0.549,0.2c0.091-0.001,0.137-0.002,0.228-0.003c0,0.517,0,0.776,0,1.293
				c-0.156,0.002-0.233,0.003-0.389,0.004C152.146,223.704,151.637,223.515,151.463,222.846z M151.248,220.822
				c0-1.973,0-2.959,0-4.932c0-0.645-0.295-0.885-0.765-0.877c-0.469,0.009-0.764,0.259-0.764,0.904c0,1.97,0,2.955,0,4.925
				c0,0.645,0.295,0.885,0.764,0.879C150.953,221.716,151.248,221.467,151.248,220.822z"/>
			<path style="fill:#263238;" d="M155.781,215.899c-0.617,0.011-0.925,0.016-1.542,0.027c0-0.404,0-0.606,0-1.01
				c1.246-0.023,1.689-0.29,2.024-1.179c0.397-0.008,0.595-0.012,0.992-0.02c0,3.634,0,5.451,0,9.085
				c-0.59,0.007-0.885,0.01-1.475,0.017C155.781,220.052,155.781,218.668,155.781,215.899z"/>
		</g>
		<g>
			<path style="fill:#263238;" d="M213.633,222.111c-0.282,0.112-0.617,0.171-0.979,0.175c-1.447,0.017-2.238-0.843-2.238-2.364
				c0-1.999,0-2.998,0-4.997c0-1.521,0.791-2.405,2.238-2.434c1.448-0.029,2.238,0.828,2.238,2.354c0,2.006,0,3.009,0,5.015
				c0,0.654-0.147,1.174-0.415,1.572c0.107,0.189,0.281,0.214,0.549,0.211c0.091-0.001,0.137-0.001,0.228-0.003
				c0,0.546,0,0.818,0,1.364c-0.156,0.002-0.234,0.002-0.389,0.004C214.316,223.016,213.807,222.817,213.633,222.111z
				 M213.419,219.977c0-2.08,0-3.12,0-5.2c0-0.681-0.295-0.934-0.765-0.925c-0.469,0.009-0.764,0.273-0.764,0.952
				c0,2.077,0,3.116,0,5.193c0,0.68,0.295,0.934,0.764,0.928C213.123,220.92,213.419,220.658,213.419,219.977z"/>
			<path style="fill:#263238;" d="M215.861,221.076c0-1.364,0.381-2.2,1.474-3.392c1.126-1.227,1.448-1.964,1.448-2.852
				c0-0.862-0.295-1.088-0.765-1.08c-0.469,0.009-0.764,0.274-0.764,0.956c0,0.41,0,0.614,0,1.024
				c-0.557,0.009-0.836,0.014-1.394,0.024c0-0.371,0-0.556,0-0.927c0-1.527,0.75-2.415,2.198-2.444
				c1.448-0.029,2.198,0.833,2.198,2.366c0,1.136-0.456,2.158-1.822,3.654c-0.885,0.97-1.113,1.45-1.113,2.119
				c0,0.082,0,0.123,0,0.205c1.121-0.015,1.681-0.022,2.802-0.036c0,0.548,0,0.821,0,1.369c-1.705,0.02-2.558,0.03-4.262,0.05
				C215.861,221.697,215.861,221.49,215.861,221.076z"/>
		</g>
		<g>
			<path style="fill:#263238;" d="M276.259,221.372c-0.282,0.118-0.617,0.179-0.979,0.183c-1.447,0.017-2.238-0.888-2.238-2.488
				c0-2.102,0-3.154,0-5.256c0-1.6,0.791-2.53,2.238-2.558c1.448-0.029,2.238,0.873,2.238,2.479c0,2.11,0,3.165,0,5.275
				c0,0.688-0.147,1.234-0.415,1.653c0.108,0.199,0.282,0.226,0.549,0.223c0.091-0.001,0.137-0.002,0.228-0.003
				c0,0.574,0,0.861,0,1.434c-0.156,0.002-0.233,0.003-0.389,0.004C276.942,222.324,276.433,222.114,276.259,221.372z
				 M276.044,219.126c0-2.188,0-3.282,0-5.469c0-0.716-0.295-0.983-0.764-0.974c-0.469,0.009-0.764,0.286-0.764,1.001
				c0,2.185,0,3.278,0,5.463c0,0.715,0.295,0.982,0.764,0.976C275.749,220.118,276.044,219.842,276.044,219.126z"/>
			<path style="fill:#263238;" d="M278.406,219.023c0-0.327,0-0.491,0-0.818c0.558-0.008,0.836-0.012,1.394-0.02
				c0,0.356,0,0.534,0,0.89c0,0.718,0.295,0.987,0.764,0.981c0.469-0.006,0.764-0.254,0.764-1.145c0-0.328,0-0.492,0-0.819
				c0-0.935-0.295-1.275-0.965-1.265c-0.198,0.003-0.298,0.005-0.496,0.008c0-0.574,0-0.862,0-1.436
				c0.214-0.004,0.322-0.005,0.536-0.009c0.55-0.009,0.885-0.274,0.885-1.079c0-0.293,0-0.44,0-0.734c0-0.719-0.308-1-0.737-0.992
				c-0.429,0.008-0.711,0.286-0.711,0.946c0,0.264,0,0.396,0,0.661c-0.558,0.01-0.836,0.015-1.394,0.024c0-0.212,0-0.318,0-0.53
				c0-1.607,0.751-2.511,2.158-2.539c1.407-0.028,2.158,0.835,2.158,2.447c0,0.144,0,0.216,0,0.36c0,1.079-0.321,1.747-1.045,2.046
				c0,0.011,0,0.017,0,0.029c0.791,0.304,1.085,1.033,1.085,2.055c0,0.357,0,0.536,0,0.892c0,1.612-0.75,2.499-2.198,2.516
				C279.157,221.51,278.406,220.629,278.406,219.023z"/>
		</g>
	</g>
</g>
<g id="Character_2">
	<g>
		<g>
			<path style="fill:#263238;stroke:#263238;stroke-linecap:round;stroke-linejoin:round;stroke-miterlimit:10;" d="
				M178.123,164.535c0,0-14.896-12.791-5.005-21.242c0,0,4.774-15.002,20.437-12.889c15.664,2.113,7.825-6.761,7.825-6.761
				s8.875,4.648,4.803,8.241c0,0,3.768,0.423,6.067-3.381c0,0,2.728,4.86-2.373,6.973c0,0,6.671,1.69,4.894,5.494
				c0,0-4.741-2.514-6.035,6.983c-1.295,9.498-16.337,8.132-16.337,8.132L178.123,164.535z"/>
			<path style="fill:#263238;stroke:#263238;stroke-linecap:round;stroke-linejoin:round;stroke-miterlimit:10;" d="
				M179.067,167.698c-0.001-0.483-3.537,10.306,3.198,9.39c3.182-0.432-1.358-9.39-1.358-9.39H179.067z"/>
			<g>
				<path style="fill:none;stroke:#7F7F7F;stroke-linecap:round;stroke-linejoin:round;" d="M211.895,138.538
					c0,0-4-0.634-4.782,4.015"/>
				<path style="fill:none;stroke:#7F7F7F;stroke-linecap:round;stroke-linejoin:round;" d="M202.426,137.427
					c-1.572,2.065-1.046,5.126-1.046,5.126"/>
				<path style="fill:none;stroke:#7F7F7F;stroke-linecap:round;stroke-linejoin:round;" d="M210.774,131.883
					c0,0-1.63,2.694-5.979,3.962"/>
				<path style="fill:none;stroke:#7F7F7F;stroke-linecap:round;stroke-linejoin:round;" d="M192.4,137.218
					c0,0,6.42-1.268,5.567,5.335"/>
			</g>
		</g>
		<g>
			<defs>
				<path id="XMLID_4_" d="M223.879,296.757c0,0,5.331,27.828,0,55.085c-5.331,27.257-8.624,114.797-8.624,114.797h-33.163V292.415
					l40.121-1.426L223.879,296.757z"/>
			</defs>
			<use xlink:href="#XMLID_4_"  style="overflow:visible;fill:#999999;"/>
			<clipPath id="XMLID_00000174595474816341949760000015988733238907516330_">
				<use xlink:href="#XMLID_4_"  style="overflow:visible;"/>
			</clipPath>
			<path style="opacity:0.2;clip-path:url(#XMLID_00000174595474816341949760000015988733238907516330_);" d="M204.17,334.092
				c0,0-1.436,9.618,5.749,7.186c7.185-2.432,12.183-1.584,6.186,3.855c-5.997,5.439-14.327,13.68-15.659,43.473
				c-1.333,29.793-3.383,78.032-3.383,78.032h-14.454l-2.958-110.677l13.131-19.333l6.108-2.535H204.17z"/>
			
				<use xlink:href="#XMLID_4_"  style="overflow:visible;fill:none;stroke:#263238;stroke-linecap:round;stroke-linejoin:round;stroke-miterlimit:10;"/>
		</g>
		<path style="fill:none;stroke:#263238;stroke-linecap:round;stroke-linejoin:round;stroke-miterlimit:10;" d="M219.88,341.382
			c0,0-7.433-1.585-15.711,7.607"/>
		<path style="fill:#999999;stroke:#263238;stroke-linecap:round;stroke-linejoin:round;stroke-miterlimit:10;" d="M208.886,299.895
			c0,0-0.333,31.029-4.331,42.755c-3.998,11.727-9.998,66.938-9.332,123.988h-34.295c0,0-2.018-103.07-3.351-118.283
			c-1.333-15.213-8.329-12.678,1.333-55.94h51.392L208.886,299.895z"/>
		<g>
			<path style="fill:#263238;" d="M202.389,306.533c2.637-0.18,5.048-0.392,7.242-0.615l0.288,5.111
				c-2.279,0.231-4.798,0.446-7.53,0.628V306.533z"/>
			<path style="fill:#263238;" d="M213.358,305.505c4.143-0.5,7.142-0.997,8.766-1.293l0.688,5.047
				c-1.885,0.345-5.104,0.876-9.455,1.393V305.505z"/>
			<path style="fill:#263238;" d="M157.082,310.541l0.776-5.019c5.625,0.631,11.021,1.044,16.129,1.286l-0.333,5.07
				C168.415,311.623,162.88,311.196,157.082,310.541z"/>
			<path style="fill:#263238;" d="M177.89,306.962c7.818,0.248,14.883,0.108,21-0.219v5.121c-3.885,0.201-8.136,0.326-12.722,0.326
				c-2.697,0-5.52-0.05-8.435-0.145L177.89,306.962z"/>
		</g>
		<path style="fill:#FFFFFF;stroke:#263238;stroke-linecap:round;stroke-linejoin:round;stroke-miterlimit:10;" d="M273.189,252.337
			l8.44-5.087c0,0,3.554-9.297,7.996-11.833c4.442-2.536,8.885-4.86,9.995-4.226c1.111,0.634-0.222,2.747-3.11,4.86
			c-1.805,1.321,3.443-0.917,10.162-4.015c4.031-1.858,8.612-4.444,9.329-3.328c2.61,4.067-10.739,9.253-10.739,9.253
			s4.575-0.22,2.798,3.16c0,0,0.666,3.17-0.889,4.226l-1.777,2.165c0,0-1.111,3.54-3.998,5.231
			c-2.887,1.69-7.996,3.592-13.105,3.803l-11.106,7.772L273.189,252.337z"/>
		<path style="fill:none;stroke:#263238;stroke-linecap:round;stroke-linejoin:round;stroke-miterlimit:10;" d="M302.508,238.376
			c0,0-9.436,1.902-8.938,4.015c0.498,2.113,3.385,0.634,3.385,0.634s-3.111,1.057-2.777,2.219c0.334,1.162,2.555,1.137,2.555,1.137
			s-2.888,0.659-2.555,2.032c0.334,1.373,2.26,1.796,3.851,1.585c1.591-0.211,2.813-0.742,3.257,0.051
			c0.444,0.794-4.332-0.474-7.108,1.48"/>
		<path style="fill:none;stroke:#263238;stroke-linecap:round;stroke-linejoin:round;stroke-miterlimit:10;" d="M294.956,236.791
			c0,0-0.256,2.113-1.405,3.169c-1.149,1.057-0.15,4.648-4.37,8.557"/>
		
			<line style="fill:none;stroke:#263238;stroke-linecap:round;stroke-linejoin:round;stroke-miterlimit:10;" x1="304.59" y1="242.021" x2="299.343" y2="242.655"/>
		
			<line style="fill:none;stroke:#263238;stroke-linecap:round;stroke-linejoin:round;stroke-miterlimit:10;" x1="304.174" y1="245.983" x2="299.343" y2="246.379"/>
		<path style="fill:#92E3A9;stroke:#263238;stroke-linecap:round;stroke-linejoin:round;stroke-miterlimit:10;" d="M253.198,257.71
			c7.335-1.973,16.192-7.469,20.455-10.304c1.09-0.725,2.592-0.087,2.747,1.17c0.479,3.88,2.04,10.467,7.117,12.256
			c7.33,2.583,0.333,6.562-4.331,7.9c-4.664,1.339-37.982,17.503-47.977,15.284c-9.995-2.219-13.327-3.803-17.991-13.47
			c-4.665-9.667-2.332-56.257-2.332-56.257l13.993-3.486c0,0,3.665,3.275,5.442,25.25c1.777,21.975,4.664,24.721,4.664,24.721
			s8.885-6.575,6.553-0.224C241.537,260.549,250.682,258.386,253.198,257.71z"/>
		<path style="fill:none;stroke:#263238;stroke-linecap:round;stroke-linejoin:round;stroke-miterlimit:10;" d="M236.873,264.319
			c0,0-3.614,12.059-6.33,11.139c-2.716-0.92-1.999-4.213,2.499-11.139"/>
		<path style="fill:#92E3A9;stroke:#263238;stroke-linecap:round;stroke-linejoin:round;stroke-miterlimit:10;" d="M224.878,210.802
			c-6.487-6.171-15.992-12.361-35.65-13.629c-19.657-1.268-46.978,3.486-47.977,11.093c-1,7.607,10.329,48.404,10.329,84.941
			c0,5.388,0.666,11.41,11.994,11.41c11.328,0,63.303,3.803,63.97-8.557c0.666-12.361-2.665-24.721-1.666-42.47
			C226.877,235.84,229.876,215.556,224.878,210.802z"/>
		<path style="fill:#92E3A9;stroke:#263238;stroke-linecap:round;stroke-linejoin:round;stroke-miterlimit:10;" d="M146.75,202.985
			c0,0-8.165,2.429-9.941,14.684c-1.777,12.255-9.551,39.935-6.663,40.569c2.887,0.634-6.886,5.494-3.332,12.678
			c3.554,7.184,19.546,30.426,28.875,27.891c9.329-2.536,8.885-16.904,5.997-19.439c-2.887-2.535-12.661-7.818-12.661-7.818
			s2.887-1.69-0.666-4.86c-3.554-3.17,2.57,1.599,4.442-9.086c2.221-12.678,9.995-30.849,5.331-41.836"/>
		<path style="fill:none;stroke:#263238;stroke-linecap:round;stroke-linejoin:round;stroke-miterlimit:10;" d="M147.248,260.139
			c0,0-12.661-2.958-15.992,2.113c-3.332,5.071,5.262-1.056,13.515,1.057"/>
		<g>
			<path style="fill:#FFFFFF;stroke:#263238;stroke-linecap:round;stroke-linejoin:round;stroke-miterlimit:10;" d="
				M165.573,284.227c-1.978-1.429-6.775-3.909-9.884-0.951c-3.11,2.958-10.55,4.648-10.106,6.867
				c0.444,2.218,3.221,2.852,8.218,0.423c4.998-2.43,0.87,0.634,1.768,5.494c0.898,4.86,1.634,9.285,5.542,8.446
				c0,0,0.347,2.116,3.908,1.168c0,0,2.665,2.179,6.886,0.244c0,0,2.332,2.397,5.775-1.723c3.443-4.12,1.333-5.196,1.333-5.196
				s-1.555-4.773-4.998,0c0,0,0.595-5.895-2.887-9.595C169.829,288.026,167.121,285.345,165.573,284.227z"/>
			<path style="fill:none;stroke:#263238;stroke-linecap:round;stroke-linejoin:round;stroke-miterlimit:10;" d="M162.607,303.032
				c0,0,5.631-3.592,4.41-5.705c-1.222-2.113-5.775,2.324-5.775,2.324s0.666-1.141-0.666-2.895"/>
			<path style="fill:none;stroke:#263238;stroke-linecap:round;stroke-linejoin:round;stroke-miterlimit:10;" d="M166.684,304.194
				c0,0,8.507-2.65,6.552-5.196c-1.721-2.242-5.386,0.336-5.386,0.336"/>
			<path style="fill:none;stroke:#263238;stroke-linecap:round;stroke-linejoin:round;stroke-miterlimit:10;" d="M178.011,299.895
				c0,0-0.902,2.536-4.893,4.976"/>
			<path style="fill:none;stroke:#263238;stroke-linecap:round;stroke-linejoin:round;stroke-miterlimit:10;" d="M163.883,292.415
				c0,0,1.805,2.968,4.855,4.342"/>
		</g>
		<path style="fill:none;stroke:#263238;stroke-linecap:round;stroke-linejoin:round;stroke-miterlimit:10;" d="M147.248,270.546
			c0,0-7.163-3.486-12.661-0.792"/>
		<g>
			<defs>
				<path id="XMLID_3_" d="M201.389,203.671l-5.72-2.06l-6.441,2.06c0,0,4.331,6.497,6.081,6.814c0,0,6.274,48.671,8.246,71.405
					c1.971,22.734,1.333,24.829,1.333,24.829l8.663,7.09l6.33-8.938c0,0-3.332-35.751-7.663-56.986
					c-4.331-21.235-12.327-37.716-12.327-37.716S202.444,206.893,201.389,203.671z"/>
			</defs>
			<use xlink:href="#XMLID_3_"  style="overflow:visible;fill:#92E3A9;"/>
			<clipPath id="XMLID_00000095320223508065123770000005081311651153000324_">
				<use xlink:href="#XMLID_3_"  style="overflow:visible;"/>
			</clipPath>
			<path style="opacity:0.3;clip-path:url(#XMLID_00000095320223508065123770000005081311651153000324_);" d="M201.389,203.671
				l-5.72-2.06l-6.441,2.06c0,0,4.331,6.497,6.081,6.814c0,0,6.274,48.671,8.246,71.405c1.971,22.734,1.333,24.829,1.333,24.829
				l8.663,7.09l6.33-8.938c0,0-3.332-35.751-7.663-56.986c-4.331-21.235-12.327-37.716-12.327-37.716
				S202.444,206.893,201.389,203.671z"/>
			
				<use xlink:href="#XMLID_3_"  style="overflow:visible;fill:none;stroke:#263238;stroke-linecap:round;stroke-linejoin:round;stroke-miterlimit:10;"/>
		</g>
		<g>
			<defs>
				<path id="XMLID_2_" d="M202.075,187.031c0,0-1.134,7.31,1.673,12.318c0,0-6.079,2.658-8.688,2.974
					c-2.61,0.317-15.993-7.646-15.993-7.646s2.731-11.454,1.865-25.556c-0.866-14.102,15.127,8.813,15.127,8.813l7.689,7.036
					L202.075,187.031z"/>
			</defs>
			<use xlink:href="#XMLID_2_"  style="overflow:visible;fill:#FFFFFF;"/>
			<clipPath id="XMLID_00000027582172669724046030000010458959948555957139_">
				<use xlink:href="#XMLID_2_"  style="overflow:visible;"/>
			</clipPath>
			
				<path style="clip-path:url(#XMLID_00000027582172669724046030000010458959948555957139_);fill:#263238;stroke:#263238;stroke-linecap:round;stroke-linejoin:round;stroke-miterlimit:10;" d="
				M204.554,187.665c0,0,0.151,4.754-6.588,4.596c-6.739-0.158-13.439-10.182-14.571-12.678c-1.131-2.495-2.464-14.262-2.464-14.262
				l17.035,4.777l8.217,16.934L204.554,187.665z"/>
			
				<use xlink:href="#XMLID_2_"  style="overflow:visible;fill:none;stroke:#263238;stroke-linecap:round;stroke-linejoin:round;stroke-miterlimit:10;"/>
		</g>
		<path style="fill:#92E3A9;stroke:#263238;stroke-linecap:round;stroke-linejoin:round;stroke-miterlimit:10;" d="M202.777,195.694
			c0,0-3.332,5.705-7.108,5.916c-3.776,0.211-16.437-12.044-19.102-10.142c-2.665,1.902-3.45,4.972-3.45,4.972l11.319,13.411
			c0,0,8.29-7.077,11.622-6.866c3.332,0.21,10.495,6.866,10.495,6.866v-9.713C206.554,200.139,204.353,193.476,202.777,195.694z"/>
		<g>
			<defs>
				<path id="XMLID_1_" d="M207.606,144.424c0,0,4.666,13.666,3.744,17.144c0,0,4.344,25.909-6.043,27.978
					c-8.161,1.626-16.226-6.219-19.307-9.656c-0.849-0.947-1.482-2.051-1.885-3.235l-1.996-5.858c0,0-4.072,0.3-6.552-5.154
					c-2.479-5.455,2.572-10.764,6.484-2.491c0,0,3.062-8.367,2.833-11.722c-0.23-3.355,4.175-2.541,5.09-5.864
					C189.972,145.566,200.46,147.258,207.606,144.424z"/>
			</defs>
			<use xlink:href="#XMLID_1_"  style="overflow:visible;fill:#FFFFFF;"/>
			<clipPath id="XMLID_00000003815904850911627770000002043780560317977023_">
				<use xlink:href="#XMLID_1_"  style="overflow:visible;"/>
			</clipPath>
			
				<use xlink:href="#XMLID_1_"  style="overflow:visible;fill:none;stroke:#263238;stroke-linecap:round;stroke-linejoin:round;stroke-miterlimit:10;"/>
		</g>
		<path style="fill:#FFFFFF;stroke:#263238;stroke-linecap:round;stroke-linejoin:round;stroke-miterlimit:10;" d="M207.114,163.932
			l5.516,6.951c0.565,0.712,0.248,1.74-0.631,2.05l-3.915,1.378"/>
		<path style="fill:none;stroke:#263238;stroke-linecap:round;stroke-linejoin:round;stroke-miterlimit:10;" d="M199.077,177.088
			c0,0,1.71,3.522,7.433,0.408"/>
		<path style="fill:none;stroke:#263238;stroke-linecap:round;stroke-linejoin:round;stroke-miterlimit:10;" d="M206.172,163.652
			c0.169,3.458-1.527,6.342-3.79,6.443c-2.263,0.1-4.234-2.622-4.403-6.079c-0.169-3.458,1.528-4.445,3.79-4.546
			C204.031,159.369,206.002,160.194,206.172,163.652z"/>
		<path style="fill:#FFFFFF;stroke:#263238;stroke-linecap:round;stroke-linejoin:round;stroke-miterlimit:10;" d="M216.582,162.872
			c0.169,3.458-1.191,6.327-3.038,6.409c-1.847,0.082-3.482-2.655-3.652-6.113c-0.169-3.458,1.208-4.431,3.056-4.513
			C214.795,158.573,216.412,159.414,216.582,162.872z"/>
		<path style="fill:none;stroke:#263238;stroke-linecap:round;stroke-linejoin:round;stroke-miterlimit:10;" d="M197.967,158.62
			c0,0,2.465-3.598,6.828-0.849"/>
		<path style="fill:none;stroke:#263238;stroke-linecap:round;stroke-linejoin:round;stroke-miterlimit:10;" d="M210.005,157.761
			c0,0,1.228-1.481,3.048-1.677"/>
		<path style="fill:none;stroke:#263238;stroke-linecap:round;stroke-linejoin:round;stroke-miterlimit:10;" d="M197.978,164.015
			c0,0-3.305,0.872-4.423,0.764c-3.383-0.326-12.623-4.817-12.623-4.817"/>
		
			<line style="fill:none;stroke:#263238;stroke-linecap:round;stroke-linejoin:round;stroke-miterlimit:10;" x1="209.878" y1="162.6" x2="206.337" y2="163.212"/>
		<path style="fill:#263238;" d="M204.183,164.072c-0.099,1.063-0.743,1.878-1.438,1.819c-0.695-0.059-1.179-0.968-1.081-2.031
			c0.099-1.063,0.743-1.877,1.439-1.819C203.798,162.1,204.282,163.009,204.183,164.072z"/>
		<path style="fill:#263238;" d="M212.795,162.903c-0.096,1.036-0.577,1.842-1.074,1.801c-0.497-0.042-0.822-0.916-0.725-1.952
			c0.096-1.036,0.577-1.842,1.074-1.801C212.567,160.993,212.891,161.867,212.795,162.903z"/>
		<g>
			<path style="fill:none;stroke:#263238;stroke-linecap:round;stroke-linejoin:round;stroke-miterlimit:10;" d="M173.286,283.35
				c1.749-4.518,13.499-3.773,13.499-3.773"/>
			<path style="fill:none;stroke:#263238;stroke-linecap:round;stroke-linejoin:round;stroke-miterlimit:10;" d="M201.315,285.635
				c-12.442,2.988-25.998,5.141-27.787,0.916"/>
			<path style="fill:none;stroke:#263238;stroke-linecap:round;stroke-linejoin:round;stroke-miterlimit:10;" d="M222.813,279.578
				c0,0-1.298,0.424-3.474,1.092"/>
		</g>
	</g>
</g>
<g id="Table">
	<g>
		<path style="fill:#92E3A9;stroke:#263238;stroke-linecap:round;stroke-linejoin:round;stroke-miterlimit:10;" d="M478.595,466.638
			H39.378v-58.473c0,0,85.114-32.958,195.042-32.958C368.351,375.207,478.595,466.638,478.595,466.638z"/>
		<g>
			<polygon style="opacity:0.2;" points="297.626,391.525 245.782,384.527 193.044,393.439 244.888,400.437 			"/>
			<polygon style="fill:#FFFFFF;stroke:#263238;stroke-linecap:round;stroke-linejoin:round;stroke-miterlimit:10;" points="
				291.277,391.03 243.099,384.527 194.09,392.809 242.269,399.312 			"/>
			<polygon style="fill:#FFFFFF;stroke:#263238;stroke-linecap:round;stroke-linejoin:round;stroke-miterlimit:10;" points="
				297.626,389.08 249.447,382.577 200.438,390.859 248.617,397.361 			"/>
		</g>
		<g>
			<ellipse style="opacity:0.2;" cx="198.644" cy="421.691" rx="16.553" ry="3.381"/>
			<g>
				<path style="fill:#FFFFFF;stroke:#263238;stroke-linecap:round;stroke-linejoin:round;stroke-miterlimit:10;" d="
					M208.208,420.771c0,0.94-5.343,1.702-11.935,1.702c-6.591,0-11.935-0.762-11.935-1.702v-22.401c0-0.94,5.343-1.702,11.935-1.702
					c6.592,0,11.935,0.762,11.935,1.702V420.771z"/>
				<path style="fill:#FFFFFF;stroke:#263238;stroke-linecap:round;stroke-linejoin:round;stroke-miterlimit:10;" d="
					M208.208,398.369c0,0.94-5.343,1.702-11.935,1.702c-6.591,0-11.935-0.762-11.935-1.702c0-0.94,5.343-1.702,11.935-1.702
					C202.865,396.668,208.208,397.43,208.208,398.369z"/>
				<g>
					<path style="fill:#FFFFFF;stroke:#263238;stroke-linecap:round;stroke-linejoin:round;stroke-miterlimit:10;" d="
						M206.77,418.649c-0.657,0-1.23-0.46-1.324-1.097c-0.103-0.696,0.407-1.34,1.14-1.438c0.305-0.042,7.549-1.122,7.549-7.641
						c0-1.642-0.44-2.755-1.308-3.309c-1.605-1.025-4.618-0.221-5.547,0.141c-0.685,0.266-1.466-0.044-1.747-0.695
						c-0.281-0.651,0.047-1.395,0.73-1.661c0.502-0.196,4.989-1.857,8.054,0.1c1.655,1.055,2.494,2.88,2.494,5.424
						c0,6.999-6.446,9.708-9.854,10.163C206.895,418.644,206.832,418.649,206.77,418.649z"/>
				</g>
			</g>
		</g>
	</g>
</g>
<g id="Character_1">
	<g>
		<g>
			<path style="fill:#263238;stroke:#263238;stroke-linecap:round;stroke-linejoin:round;stroke-miterlimit:10;" d="
				M223.923,404.073c-0.796,0.758-1.329,1.48-1.189,1.613c0.14,0.133,0.899-0.374,1.695-1.131c0.797-0.758,1.329-1.48,1.189-1.613
				C225.479,402.809,224.72,403.315,223.923,404.073z"/>
			<path style="fill:#92E3A9;stroke:#263238;stroke-linecap:round;stroke-linejoin:round;stroke-miterlimit:10;" d="
				M228.224,397.195c-3.27,3.11-5.15,6.365-4.2,7.269c0.95,0.904,4.371-0.885,7.641-3.996l21.078-20.051
				c3.27-3.111,5.15-6.365,4.2-7.269c-0.95-0.904-4.371,0.885-7.641,3.995L228.224,397.195z"/>
			<path style="fill:#263238;stroke:#263238;stroke-linecap:round;stroke-linejoin:round;stroke-miterlimit:10;" d="M249.65,383.36
				l-0.874,0.831c-0.602-0.487-1.201-1.01-1.79-1.57c-0.589-0.56-1.139-1.131-1.651-1.703l0.874-0.831
				c0.512,0.572,1.062,1.143,1.651,1.703C248.449,382.35,249.048,382.873,249.65,383.36z"/>
			<path style="fill:none;stroke:#263238;stroke-linecap:round;stroke-linejoin:round;stroke-miterlimit:10;" d="M254.35,373.466
				c0,0-1.455-0.895-4.795,1.56c-3.34,2.455-6.452,6.715-7.97,6.571"/>
		</g>
		<path style="fill:#FFFFFF;stroke:#263238;stroke-linecap:round;stroke-linejoin:round;stroke-miterlimit:10;" d="M213.774,414.868
			c0,0,2.422-5.847,2.422-8.859c0-3.012,6.328-13.112,10.987-14.884c4.659-1.772,20.441-9.214,21.584-6.202
			c1.143,3.012-5.935,6.733-7.425,7.442c-1.49,0.709-4.657,3.544-4.657,3.544s7.204-1.44,8.01-3.721
			c0.805-2.281,2.992-5.316,4.197-3.367c1.205,1.949,0.646,6.91-1.216,10.72v2.57c0,0,2.049,3.012-0.186,5.493l-1.714,1.772
			c0,0,3.017,3.012-1.08,5.493c0,0,1.863,2.658-1.49,5.316c0,0-7.08,3.365-11.553,4.43c-4.473,1.065-8.378,7.442-8.378,7.442
			L213.774,414.868z"/>
		<path style="fill:#FFFFFF;stroke:#263238;stroke-linecap:round;stroke-linejoin:round;stroke-miterlimit:10;" d="M76.839,313.221
			l11.679-26.074l-7.558-21.838l-0.75-25.045l20.576-11.541l18.167-3.068l7.41,4.292l3.076,7.145c0,0,9.239,18.683,7.815,22.265
			c-1.424,3.582-2.495,6.98-2.495,6.98s4.363,9.707,6.937,12.78c2.533,3.024-5.42,1.21-6.352,6.761
			c-0.938,5.583,0.174,20.278-6.679,20.95c-6.853,0.672-10.996-1.462-11.636,4.333c-0.64,5.795-7.671,20.49-7.671,20.49
			L76.839,313.221z"/>
		<path style="fill:#263238;stroke:#263238;stroke-linecap:round;stroke-linejoin:round;stroke-miterlimit:10;" d="M134.138,208.957
			c-0.994-3.359-10.627,1.31-11.629,8.514c0,0-1.234-11.021-4.407-12.055c-2.778-0.906-6.621,4.089-5.232,10.006
			c0,0-10.391-5.458-13.744-4.19c-2.473,0.935-3.351,5.776,2.001,9.946c0,0-32.477-7.214-30.581,21.074
			c0,0-17.861,13.312,15.183,51.119c0,0,7.84-1.741,9.95-2.979c1.252-0.735,11.7-8.989,11.7-8.989
			c-3.013-1.074-8.215-4.134-9.637-7.819c-1.801-4.67,0.609-10.256,5.035-11.029c2.628-0.458,4.121,0.715,6.036,2.817
			c0,0-4.331-5.475-4.062-7.588c0.339-2.655,6.877-5.458,7.356-8.094c0.226-1.243-2.693-3.676-1.924-4.704
			c3.923-5.239,22.658,0.821,20.738-16.514C129.004,211.136,135.544,213.71,134.138,208.957z"/>
		<path style="fill:#263238;" d="M133.452,265.019c0.041,1.372-0.276,2.493-0.709,2.505c-0.433,0.012-0.817-1.091-0.858-2.462
			c-0.041-1.372,0.276-2.493,0.709-2.505C133.027,262.545,133.411,263.647,133.452,265.019z"/>
		<path style="fill:none;stroke:#263238;stroke-linecap:round;stroke-linejoin:round;stroke-miterlimit:10;" d="M130.173,260.078
			c0,0,1.137-3.512,3.432-3.74"/>
		<g>
			<path style="fill:none;stroke:#7F7F7F;stroke-linecap:round;stroke-linejoin:round;" d="M105.633,233.065
				c11.222,0.894,1.939-15.576,1.939-15.576"/>
			<path style="fill:none;stroke:#7F7F7F;stroke-linecap:round;stroke-linejoin:round;" d="M77.168,240.777
				c0,0,8.831-12.841,25.092-8.351"/>
		</g>
		<g>
			<path style="fill:none;stroke:#7F7F7F;stroke-linecap:round;stroke-linejoin:round;" d="M120.965,225.712
				c1.098,5.698,0.019,13.315-13.104,14.234"/>
			<path style="fill:none;stroke:#7F7F7F;stroke-linecap:round;stroke-linejoin:round;" d="M118.764,219.378
				c0,0,0.572,1.053,1.171,2.683"/>
		</g>
		<path style="fill:#263238;stroke:#263238;stroke-linecap:round;stroke-linejoin:round;stroke-miterlimit:10;" d="M130.885,466.638
			c0,0,10.119-104.219-1.926-123.887c-12.045-19.668-47.825-42.787-60.66-32.736c-44.518,34.862-44.67,64.63-47.498,156.623H130.885
			z"/>
		<path style="fill:#263238;stroke:#263238;stroke-linecap:round;stroke-linejoin:round;stroke-miterlimit:10;" d="M121.106,339.03
			c0,0,14.159,3.721,22.027,24.984c7.225,19.524,20.362,45.272,29.134,58.104c1.358,1.986,3.826,3.01,6.283,2.621
			c3.861-0.611,11.223-1.077,18.274-4.91c6.527-3.548,12.294-7.442,19.558-6.379c7.264,1.063,11.787,7.804,10.617,17.542
			c-1.118,9.303-42.927,33.489-67.615,33.489c-20.148,0-38.557-55.284-44.704-71.763C108.533,376.24,102.107,340.093,121.106,339.03
			z"/>
		<g>
			<path style="fill:none;stroke:#7F7F7F;stroke-linecap:round;stroke-linejoin:round;" d="M113.66,341.22
				c1.696-1.273,3.787-2.047,6.336-2.19"/>
			<path style="fill:none;stroke:#7F7F7F;stroke-linecap:round;stroke-linejoin:round;" d="M108.733,349.008
				c0.415-1.38,0.932-2.656,1.563-3.801"/>
			<path style="fill:none;stroke:#7F7F7F;stroke-linecap:round;stroke-linejoin:round;" d="M129.414,427.598
				c-7.395-13.875-13.233-27.878-15.844-34.879c-3.829-10.267-7.767-28.167-5.598-40.461"/>
		</g>
		<path style="fill:#263238;stroke:#263238;stroke-linecap:round;stroke-linejoin:round;stroke-miterlimit:10;" d="M120.64,335.309
			c0,0,5.588-8.151,0-14.884c-5.588-6.733-31.098-21.308-40.606-17.719c-1.963,0.741-4.773,2.925-3.504,7.31
			C76.53,310.015,95.68,310.856,120.64,335.309z"/>
		<g>
			<path style="fill:none;stroke:#7F7F7F;stroke-linecap:round;stroke-linejoin:round;" d="M117.537,333.017
				c0.792,0.74,1.591,1.504,2.396,2.292"/>
			<path style="fill:none;stroke:#7F7F7F;stroke-linecap:round;stroke-linejoin:round;" d="M83.046,311.524
				c6.635,2.015,17.356,6.701,30.105,17.573"/>
			<path style="fill:none;stroke:#7F7F7F;stroke-linecap:round;stroke-linejoin:round;" d="M75.823,310.015
				c0,0,1.18,0.052,3.335,0.504"/>
		</g>
		<path style="fill:none;stroke:#7F7F7F;stroke-linecap:round;stroke-linejoin:round;" d="M177.824,438.434c0,0,0-5.847-3.073-7.442
			s-0.559,7.442-3.632,14.884"/>
		<path style="fill:none;stroke:#7F7F7F;stroke-linecap:round;stroke-linejoin:round;" d="M145.414,374.645
			c0,0,2.515,0.266,4.75,24.718"/>
		<path style="fill:#263238;stroke:#263238;stroke-linecap:round;stroke-linejoin:round;stroke-miterlimit:10;" d="M107.38,281.402
			l2.135,0.395c0,0,0.042,4.961,2.091,8.682c2.049,3.721,4.843,4.43,11.517,11.666c6.221,6.745,9.079,2.353,9.439,1.724
			c-0.881,1.659-2.12,2.783-3.898,2.958c-6.853,0.672-10.996-1.462-11.636,4.333c-1.097-4.48-4.677-9.873-7.513-16.606
			C106.679,287.821,107.38,281.402,107.38,281.402z"/>
		<path style="opacity:0.3;fill:#263238;" d="M110.302,277.19c0.787-4.607-3.965-14.029-1.488-11.819
			c2.477,2.21,5.772,10.224,9.684,13.282c3.912,3.058,3.539,10.232,9.127,7.219c3.138-1.691,6.04-1.483,7.983-0.975
			c-0.114,0.299-0.204,0.624-0.264,0.981c-0.938,5.583,0.174,20.278-6.679,20.95c-2.298,0.225-4.282,0.138-5.941,0.137
			c-3.881-4.06-9.424-10.099-11.545-13.594C107.77,287.755,109.515,281.797,110.302,277.19z"/>
		<path style="fill:none;stroke:#263238;stroke-linecap:round;stroke-linejoin:round;stroke-miterlimit:10;" d="M134.087,290.523
			c0,0-3.508-1.538-3.441-3.732"/>
	</g>
</g>
</svg>
